<svg version="1.1" xmlns="http://www.w3.org/2000/svg" xmlns:xlink="http://www.w3.org/1999/xlink" width="953.6" height="448" viewBox="0 0 953.6 448">
  <g fill="none" fill-rule="nonzero" stroke="none" stroke-width="1" stroke-linecap="butt" stroke-linejoin="miter" stroke-miterlimit="10" stroke-dasharray="" stroke-dashoffset="0" font-family="none" font-weight="none" font-size="none" text-anchor="none" style="mix-blend-mode: normal">
    <rect x="0" y="0" width="953.6" height="448" fill="none"/>
    <path d="M232.241,195.574c6.9332,9.61214 11.4786,19.46133 13.5937,29.42633c0.05507,-0.00022 0.11017,-0.00033 0.1653,-0.00033c22.09139,0 40,17.90861 40,40c0,22.09139 -17.90861,40 -40,40c-10.99848,0 -20.96019,-4.43896 -28.1913,-11.62306c-3.03926,2.0678 -6.25366,3.89085 -9.6147,5.44506l-2.191,1.015l-0.06,-0.026c-8.236,3.449 -16.915,5.193 -25.8287,5.193c-0.7972,0 -1.5944,-0.013 -2.3958,-0.043c-7.0637,-0.243 -13.9909,-1.582 -20.59,-3.977l-0.0213,0.008l-0.4987,-0.175l-1.6498,-0.665c-12.6694,-5.102 -23.3694,-13.846 -30.9446,-25.283c-7.7415,-11.693 -11.5739,-25.309 -11.0837,-39.377c0.3794,-10.832 3.4104,-21.5234 8.7646,-30.9147l1.1425,-2.0036l2.221,-0.6223c5.188,-1.4622 10.5593,-2.1059 15.9604,-1.9184c0.1663,0.0043 0.2899,0.0086 0.4135,0.0171c1.475,0.0341 2.9628,0.1108 4.4249,0.2302c0.2345,-1.7393 0.5159,-3.4743 0.8441,-5.1624c1.2533,-7.5028 3.6448,-14.7881 7.3067,-22.2398c5.9723,-12.5245 14.8861,-23.7615 25.7694,-32.4792l4.2625,-3.41892l3.364,3.95172l0.068,0.0299l0.154,0.2259l0.788,0.9293l1.454,1.7137c0.912,1.0785 2.067,2.4427 3.414,4.037c2.443,2.8903 7.405,8.7774 13.19,15.7132c13.326,15.9903 22.001,26.7542 25.774,31.989zM182.655,242.449c-2.8775,-10.917 -8.3554,-19.0679 -16.2759,-24.2303c-2.7538,-1.7947 -5.8445,-3.2526 -9.2079,-4.3567c0.7247,8.6495 3.0139,18.002 6.8207,27.833c3.5552,9.191 9.3827,17.814 17.3288,25.658c3.1803,-7.831 3.6323,-16.199 1.3343,-24.908zM184.1,284.605c-2.515,3.193 -5.3968,6.19 -8.6025,8.953c0.8739,0.072 1.7436,0.123 2.6132,0.153c5.6271,0.2 11.1903,-0.443 16.5833,-1.91c-3.662,-2.217 -7.213,-4.625 -10.59,-7.196zM193.538,239.576c3.313,12.546 2.183,24.486 -3.35,35.515c6.863,5.315 13.326,8.969 17.776,11.19c1.03507,-0.59748 2.04984,-1.22756 3.04275,-1.8888c-3.19,-5.74408 -5.00675,-12.35598 -5.00675,-19.3922c0,-18.15504 12.09512,-33.48511 28.667,-38.37186c-1.86114,-8.20346 -5.72117,-16.39091 -11.548,-24.46794c-4.523,-6.2793 -16.246,-20.5217 -25.288,-31.3666c-4.02,-4.8214 -8.441,-10.0904 -13.143,-15.662l-2.016,-2.383c-5.2221,4.7872 -9.7877,10.2182 -13.5987,16.1735l0.0213,0.0128l-0.6437,1.0615c-1.6412,2.7027 -3.0352,5.2306 -4.2715,7.733l-0.0298,0.0596c-0.8014,1.6839 -1.556,3.4274 -2.2466,5.1838c-1.7989,4.5826 -3.1886,9.3528 -4.1222,14.1742c-0.1151,0.6778 -0.2217,1.4025 -0.324,2.1912c-0.1194,0.9208 -0.2217,1.8586 -0.3027,2.8007c5.6697,1.4622 10.8321,3.7003 15.3636,6.6502c10.3291,6.7269 17.4013,17.0858 21.0163,30.7869zM175.5018,277.358c-10.1543,-9.476 -17.5548,-20.104 -22.0095,-31.609c-4.6253,-11.954 -7.2257,-23.3782 -7.7373,-33.9673c-1.5645,-0.2515 -3.1545,-0.4178 -4.7403,-0.4903c-1.0786,-0.0255 -2.2125,-0.0255 -3.3507,0l-0.584,0.0128c-2.2551,0.1151 -4.5102,0.4221 -6.7227,0.9123c-3.811,7.3706 -5.8871,15.3295 -6.177,23.6595c-0.405,11.621 2.7411,22.883 9.0929,32.573c6.2153,9.481 15.014,16.766 25.4454,21.076l0.4519,0.179c0.5627,0.23 1.1339,0.447 1.7052,0.656c3.5211,-2.148 9.5575,-6.424 14.6304,-12.997zM242.16,286.90048c0,2.12077 1.71923,3.84 3.84,3.84c2.12077,0 3.84,-1.71923 3.84,-3.84l16.41792,-12.19584c0.62377,-0.45119 0.95664,-1.20301 0.8714,-1.96812c-0.08525,-0.76511 -0.57544,-1.42523 -1.28323,-1.72805c-0.70778,-0.30282 -1.52374,-0.20154 -2.13601,0.26513l-16.176,12.01728c-0.9779,-0.42819 -2.09026,-0.42819 -3.06816,0l-16.176,-12.01728c-0.94803,-0.66551 -2.25369,-0.45457 -2.94392,0.47563c-0.69023,0.93019 -0.51371,2.24095 0.398,2.95541l16.416,12.19776zM247.92,286.81216c0,1.06039 -0.85961,1.92 -1.92,1.92c-1.06039,0 -1.92,-0.85961 -1.92,-1.92c0,-1.06039 0.85961,-1.92 1.92,-1.92c1.06039,0 1.92,0.85961 1.92,1.92zM229.2384,251.69152c0.3264,0.3168 0.77184,0.51648 1.25184,0.56064c0.26479,0.01616 0.53031,-0.01638 0.78336,-0.096c0.25152,-0.0768 0.48,-0.2016 0.67584,-0.36288c0.19066,-0.15617 0.3458,-0.35123 0.45504,-0.57216c0.10499,-0.21323 0.15952,-0.44776 0.15936,-0.68544v-4.2432c-0.00536,-0.46234 -0.20795,-0.90037 -0.5568,-1.20384c-0.37203,-0.32651 -0.84902,-0.50845 -1.344,-0.51264c-0.51072,0.00768 -0.9984,0.192 -1.35936,0.51072c-0.35245,0.30265 -0.56147,0.7395 -0.576,1.20384v4.24512c0.00969,0.43827 0.19428,0.85446 0.51264,1.15584zM259.95264,257.45152c0.3264,0.3168 0.76992,0.51648 1.25184,0.56064c0.26479,0.01616 0.53031,-0.01638 0.78336,-0.096c0.2496,-0.0768 0.48,-0.2016 0.67392,-0.36288c0.19066,-0.15617 0.3458,-0.35123 0.45504,-0.57216c0.10505,-0.21321 0.15958,-0.44775 0.15936,-0.68544v-4.2432c-0.00487,-0.46204 -0.20675,-0.90002 -0.55488,-1.20384c-0.37303,-0.32737 -0.85154,-0.50937 -1.34784,-0.51264c-0.51072,0.00768 -0.9984,0.192 -1.35936,0.51072c-0.35293,0.3031 -0.562,0.74075 -0.576,1.20576v4.2432c0.0102,0.43856 0.1955,0.85479 0.51456,1.15584zM230.64384,258.016c1.06039,0 1.92,-0.85961 1.92,-1.92c0,-1.06039 -0.85961,-1.92 -1.92,-1.92c-1.06039,0 -1.92,0.85961 -1.92,1.92c0,1.06039 0.85961,1.92 1.92,1.92zM230.64384,265.696c-1.06039,0 -1.92,0.85961 -1.92,1.92c0,1.06039 0.85961,1.92 1.92,1.92c1.06039,0 1.92,-0.85961 1.92,-1.92c0,-1.06039 -0.85961,-1.92 -1.92,-1.92zM230.64384,263.776c1.06039,0 1.92,-0.85961 1.92,-1.92c0,-1.06039 -0.85961,-1.92 -1.92,-1.92c-1.06039,0 -1.92,0.85961 -1.92,1.92c0,1.06039 0.85961,1.92 1.92,1.92zM261.35616,265.696c-1.06039,0 -1.92,0.85961 -1.92,1.92c0,1.06039 0.85961,1.92 1.92,1.92c1.06039,0 1.92,-0.85961 1.92,-1.92c0,-1.06039 -0.85961,-1.92 -1.92,-1.92zM261.35616,263.776c1.06039,0 1.92,-0.85961 1.92,-1.92c0,-1.06039 -0.85961,-1.92 -1.92,-1.92c-1.06039,0 -1.92,0.85961 -1.92,1.92c0,1.06039 0.85961,1.92 1.92,1.92zM261.35616,244.576c-1.06039,0 -1.92,0.85961 -1.92,1.92c0,1.06039 0.85961,1.92 1.92,1.92c1.06039,0 1.92,-0.85961 1.92,-1.92c0,-1.06039 -0.85961,-1.92 -1.92,-1.92zM254.30976,263.67808c0.24609,-0.07695 0.47494,-0.20083 0.67392,-0.3648c0.19066,-0.15617 0.3458,-0.35123 0.45504,-0.57216c0.10594,-0.21366 0.16113,-0.44888 0.16128,-0.68736v-4.2432c0,-0.44928 -0.2016,-0.88128 -0.5568,-1.20192c-0.3552,-0.32064 -0.83904,-0.50496 -1.34592,-0.51264c-0.51264,0.00768 -1.00032,0.19008 -1.3632,0.51072c-0.35293,0.3031 -0.562,0.74075 -0.576,1.20576v4.2432c0.01041,0.43851 0.19567,0.85466 0.51456,1.15584c0.34202,0.324 0.78425,0.52175 1.25376,0.56064c0.26496,0.01536 0.53184,-0.01728 0.78336,-0.09408zM244.59456,274.73152c0.3264,0.3168 0.77184,0.51648 1.25184,0.56064c0.26688,0.01536 0.53376,-0.01536 0.78336,-0.096c0.25152,-0.0768 0.48,-0.2016 0.67584,-0.36288c0.19062,-0.15621 0.34575,-0.35127 0.45504,-0.57216c0.10499,-0.21323 0.15952,-0.44776 0.15936,-0.68544v-4.2432c-0.00487,-0.46204 -0.20675,-0.90002 -0.55488,-1.20384c-0.37312,-0.32722 -0.85157,-0.5092 -1.34784,-0.51264c-0.51072,0.00768 -0.9984,0.192 -1.35936,0.51072c-0.35245,0.30265 -0.56147,0.7395 -0.576,1.20384v4.24512c0.00969,0.43827 0.19428,0.85446 0.51264,1.15584zM253.68,275.296c1.06039,0 1.92,-0.85961 1.92,-1.92c0,-1.06039 -0.85961,-1.92 -1.92,-1.92c-1.06039,0 -1.92,0.85961 -1.92,1.92c0,1.06039 0.85961,1.92 1.92,1.92zM246,277.216c-1.06039,0 -1.92,0.85961 -1.92,1.92c0,1.06039 0.85961,1.92 1.92,1.92c1.06039,0 1.92,-0.85961 1.92,-1.92c0,-1.06039 -0.85961,-1.92 -1.92,-1.92zM253.68,269.536c1.06039,0 1.92,-0.85961 1.92,-1.92c0,-1.06039 -0.85961,-1.92 -1.92,-1.92c-1.06039,0 -1.92,0.85961 -1.92,1.92c0,1.06039 0.85961,1.92 1.92,1.92zM246,261.856c-1.06039,0 -1.92,0.85961 -1.92,1.92c0,1.06039 0.85961,1.92 1.92,1.92c1.06039,0 1.92,-0.85961 1.92,-1.92c0,-1.06039 -0.85961,-1.92 -1.92,-1.92zM246,259.936c1.06039,0 1.92,-0.85961 1.92,-1.92c0,-1.06039 -0.85961,-1.92 -1.92,-1.92c-1.06039,0 -1.92,0.85961 -1.92,1.92c0,1.06039 0.85961,1.92 1.92,1.92zM236.9184,268.97152c0.32448,0.3168 0.76992,0.51648 1.25184,0.56064c0.26496,0.01536 0.53184,-0.01536 0.78144,-0.096c0.25152,-0.0768 0.48,-0.2016 0.67584,-0.36288c0.19066,-0.15617 0.3458,-0.35123 0.45504,-0.57216c0.10499,-0.21323 0.15952,-0.44776 0.15936,-0.68544v-4.2432c-0.00487,-0.46204 -0.20675,-0.90002 -0.55488,-1.20384c-0.37303,-0.32737 -0.85154,-0.50937 -1.34784,-0.51264c-0.51072,0.00768 -0.9984,0.192 -1.35936,0.51072c-0.35245,0.30265 -0.56147,0.7395 -0.576,1.20384v4.24512c0.00969,0.43827 0.19428,0.85446 0.51264,1.15584zM238.32192,275.296c1.06039,0 1.92,-0.85961 1.92,-1.92c0,-1.06039 -0.85961,-1.92 -1.92,-1.92c-1.06039,0 -1.92,0.85961 -1.92,1.92c0,1.06039 0.85961,1.92 1.92,1.92zM238.32192,256.096c-1.06039,0 -1.92,0.85961 -1.92,1.92c0,1.06039 0.85961,1.92 1.92,1.92c1.06039,0 1.92,-0.85961 1.92,-1.92c0,-1.06039 -0.85961,-1.92 -1.92,-1.92zM238.32192,254.176c1.06039,0 1.92,-0.85961 1.92,-1.92c0,-1.06039 -0.85961,-1.92 -1.92,-1.92c-1.06039,0 -1.92,0.85961 -1.92,1.92c0,1.06039 0.85961,1.92 1.92,1.92zM253.68,250.336c-1.06039,0 -1.92,0.85961 -1.92,1.92c0,1.06039 0.85961,1.92 1.92,1.92c1.06039,0 1.92,-0.85961 1.92,-1.92c0,-1.06039 -0.85961,-1.92 -1.92,-1.92z" fill="#ffffff"/>
    <g fill="#ffffff">
      <path d="M380.54,272h-12.29l-32.25,-91.65h13.05l25.09,74.37h0.51l26.11,-74.37h13.06z"/>
      <path d="M441.98,274.05v0c-9.47333,0 -17.17333,-3.15667 -23.1,-9.47c-5.93333,-6.32 -8.9,-14.3 -8.9,-23.94v0c0,-9.13333 2.88,-16.98333 8.64,-23.55c5.76,-6.57333 13.12,-9.86 22.08,-9.86v0c9.3,0 16.74667,3.03 22.34,9.09c5.58667,6.06 8.38,14.16667 8.38,24.32v0l-0.13,2.18h-49.53c0.34,6.31333 2.45,11.30333 6.33,14.97c3.88667,3.67333 8.43,5.51 13.63,5.51v0c8.45333,0 14.17333,-3.58667 17.16,-10.76v0l10.49,4.36c-2.04667,4.86 -5.41667,8.93333 -10.11,12.22c-4.69333,3.28667 -10.45333,4.93 -17.28,4.93zM422.52,233.09h36.36c-0.26,-3.58667 -1.90333,-7 -4.93,-10.24c-3.03333,-3.24667 -7.53667,-4.87 -13.51,-4.87v0c-4.34667,0 -8.12,1.36667 -11.32,4.1c-3.2,2.73333 -5.4,6.40333 -6.6,11.01z"/>
      <path d="M557.95,273.02v0c-6.57333,0 -11.58667,-1.74667 -15.04,-5.24c-3.46,-3.5 -5.19,-8.45 -5.19,-14.85v0v-32.9h-11v-10.75h11v-19.2h11.78v19.2h15.36v10.75h-15.36v32c0,6.82667 2.81667,10.24 8.45,10.24v0c2.13333,0 3.92333,-0.34 5.37,-1.02v0l4.1,10.11c-2.56,1.10667 -5.71667,1.66 -9.47,1.66zM482.17,209.28h11.27v10.24h0.51c1.36667,-3.66667 3.90333,-6.54667 7.61,-8.64c3.71333,-2.09333 7.79,-3.14 12.23,-3.14v0c1.28,0 2.68667,0.08667 4.22,0.26v0v11.52c-1.62,-0.17333 -3.19667,-0.26 -4.73,-0.26v0c-5.63333,0 -10.26333,1.64333 -13.89,4.93c-3.62667,3.28667 -5.44,7.79 -5.44,13.51v0v34.3h-11.78z"/>
      <path d="M603.9,274.05v0c-9.47333,0 -17.17333,-3.15667 -23.1,-9.47c-5.93333,-6.32 -8.9,-14.3 -8.9,-23.94v0c0,-9.13333 2.88,-16.98333 8.64,-23.55c5.76,-6.57333 13.12,-9.86 22.08,-9.86v0c9.3,0 16.74667,3.03 22.34,9.09c5.58667,6.06 8.38,14.16667 8.38,24.32v0l-0.13,2.18h-49.53c0.34,6.31333 2.45,11.30333 6.33,14.97c3.88667,3.67333 8.43,5.51 13.63,5.51v0c8.45333,0 14.17333,-3.58667 17.16,-10.76v0l10.49,4.36c-2.04667,4.86 -5.41667,8.93333 -10.11,12.22c-4.69333,3.28667 -10.45333,4.93 -17.28,4.93zM584.44,233.09h36.36c-0.26,-3.58667 -1.90333,-7 -4.93,-10.24c-3.03333,-3.24667 -7.53667,-4.87 -13.51,-4.87v0c-4.34667,0 -8.12,1.36667 -11.32,4.1c-3.2,2.73333 -5.4,6.40333 -6.6,11.01z"/>
      <path d="M672.64,240.13l22.4,31.87h-13.83l-15.49,-23.17l-15.23,23.17h-13.82l22.14,-31.87l-21.63,-30.85h13.31l15.49,22.14l14.72,-22.14h13.82z"/>
      <path d=""/>
      <path d="M733.69,272h-13.05l34.56,-91.65h13.31l34.56,91.65h-13.06l-8.83,-24.83h-38.53zM761.6,194.82l-14.98,41.34h30.46l-14.97,-41.34z"/>
      <path d="M825.6,272h-11.78v-91.65h11.78z"/>
    </g>
    <g fill="#ffffff">
      <path d="M565.82583,318.03917c-0.7425,0.7425 -1.64236,1.11375 -2.69958,1.11375c-1.05722,0 -1.95708,-0.37125 -2.69958,-1.11375c-0.7425,-0.74556 -1.11375,-1.64542 -1.11375,-2.69958c0,-1.05722 0.37125,-1.95708 1.11375,-2.69958c0.7425,-0.7425 1.64236,-1.11375 2.69958,-1.11375c1.05722,0 1.95708,0.37125 2.69958,1.11375c0.7425,0.7425 1.11375,1.64236 1.11375,2.69958c0,1.05417 -0.37125,1.95403 -1.11375,2.69958zM565.82583,325.25333v28.74667h-5.39917v-28.74667z"/>
      <path d="M572.27917,325.25333h5.16083v3.9875h0.23375c0.78222,-1.36889 2.01514,-2.53153 3.69875,-3.48792c1.68056,-0.95944 3.47875,-1.43917 5.39458,-1.43917v0c3.55972,0 6.27917,1.09542 8.15833,3.28625c1.87611,2.19083 2.81417,5.12417 2.81417,8.8v0v17.6h-5.39917v-16.77958c0,-5.31972 -2.365,-7.97958 -7.095,-7.97958v0c-2.23056,0 -4.05014,0.89069 -5.45875,2.67208c-1.40861,1.77833 -2.11292,3.84083 -2.11292,6.1875v0v15.89958h-5.39458z"/>
      <path d=""/>
      <path d="M623.31917,335.9875v18.0125h-5.39917v-42.00625h24.52542v5.16542h-19.12625v13.78667h17.24708v5.04167z"/>
      <path d="M652.59292,318.03917c-0.7425,0.7425 -1.64236,1.11375 -2.69958,1.11375c-1.05417,0 -1.95403,-0.37125 -2.69958,-1.11375c-0.7425,-0.74556 -1.11375,-1.64542 -1.11375,-2.69958c0,-1.05722 0.37125,-1.95708 1.11375,-2.69958c0.74556,-0.7425 1.64542,-1.11375 2.69958,-1.11375c1.05722,0 1.95708,0.37125 2.69958,1.11375c0.7425,0.7425 1.11375,1.64236 1.11375,2.69958c0,1.05417 -0.37125,1.95403 -1.11375,2.69958zM652.59292,325.25333v28.74667h-5.39917v-28.74667z"/>
      <path d="M664.44542,338.27917v15.72083h-5.39917v-28.74667h5.16083v4.69333h0.23833c0.54694,-1.56444 1.67139,-2.85542 3.37333,-3.87292c1.69889,-1.0175 3.35042,-1.52625 4.95458,-1.52625c1.60417,0 2.95319,0.23528 4.04708,0.70583v0l-2.05333,5.04625c-0.70278,-0.275 -1.66069,-0.4125 -2.87375,-0.4125v0c-1.95556,0 -3.68653,0.77306 -5.19292,2.31917c-1.50333,1.54306 -2.255,3.56736 -2.255,6.07292z"/>
      <path d="M691.60625,354.93958v0c-4.34194,0 -7.87111,-1.44681 -10.5875,-4.34042c-2.71944,-2.89667 -4.07917,-6.55417 -4.07917,-10.9725v0c0,-4.18611 1.32,-7.78403 3.96,-10.79375c2.64,-3.01278 6.01333,-4.51917 10.12,-4.51917v0c4.2625,0 7.67556,1.38875 10.23917,4.16625c2.56056,2.7775 3.84083,6.49306 3.84083,11.14667v0l-0.05958,0.99917h-22.70125c0.15583,2.89361 1.12292,5.18069 2.90125,6.86125c1.78139,1.68361 3.86375,2.52542 6.24708,2.52542v0c3.87444,0 6.49611,-1.64389 7.865,-4.93167v0l4.80792,1.99833c-0.93806,2.2275 -2.48264,4.09444 -4.63375,5.60083c-2.15111,1.50639 -4.79111,2.25958 -7.92,2.25958zM682.68708,336.16625h16.665c-0.11917,-1.64389 -0.87236,-3.20833 -2.25958,-4.69333c-1.39028,-1.48806 -3.45431,-2.23208 -6.19208,-2.23208v0c-1.99222,0 -3.72167,0.62639 -5.18833,1.87917c-1.46667,1.25278 -2.475,2.93486 -3.025,5.04625z"/>
      <path d="M724.63375,354.93958v0c-2.18778,0 -4.1525,-0.46903 -5.89417,-1.40708c-1.74167,-0.94111 -3.04181,-2.11444 -3.90042,-3.52v0h-0.23375v3.9875h-5.16542v-42.00625h5.39917v13.25958l-0.23375,3.9875h0.23375c0.85861,-1.40556 2.15875,-2.57889 3.90042,-3.52c1.74167,-0.93806 3.70639,-1.40708 5.89417,-1.40708v0c3.71556,0 6.92389,1.46667 9.625,4.4c2.69806,2.93333 4.04708,6.57097 4.04708,10.91292c0,4.34194 -1.34903,7.97958 -4.04708,10.91292c-2.70111,2.93333 -5.90944,4.4 -9.625,4.4zM723.75375,350.0125v0c2.50556,0 4.65667,-0.94875 6.45333,-2.84625c1.79972,-1.8975 2.69958,-4.41069 2.69958,-7.53958c0,-3.12889 -0.89986,-5.64208 -2.69958,-7.53958c-1.79667,-1.8975 -3.94778,-2.84625 -6.45333,-2.84625v0c-2.54222,0 -4.7025,0.93958 -6.48083,2.81875c-1.77833,1.87611 -2.6675,4.39847 -2.6675,7.56708c0,3.16861 0.88917,5.69097 2.6675,7.56708c1.77833,1.87917 3.93861,2.81875 6.48083,2.81875z"/>
      <path d="M752.03292,354.93958v0c-3.04944,0 -5.60083,-0.88 -7.65417,-2.64c-2.05333,-1.76 -3.08,-4.08681 -3.08,-6.98042v0c0,-3.12889 1.21153,-5.58403 3.63458,-7.36542c2.42611,-1.77833 5.41903,-2.6675 8.97875,-2.6675v0c3.16556,0 5.76583,0.58667 7.80083,1.76v0v-0.82042c0,-2.11444 -0.72417,-3.80722 -2.1725,-5.07833c-1.44528,-1.27111 -3.22361,-1.90667 -5.335,-1.90667v0c-1.56444,0 -2.98222,0.37278 -4.25333,1.11833c-1.27111,0.7425 -2.14194,1.75847 -2.6125,3.04792v0l-4.92708,-2.11292c0.66306,-1.72028 1.97236,-3.31375 3.92792,-4.78042c1.95556,-1.46667 4.5375,-2.2 7.74583,-2.2v0c3.67583,0 6.72681,1.07556 9.15292,3.22667c2.42306,2.15111 3.63458,5.18222 3.63458,9.09333v0v17.36625h-5.16083v-3.9875h-0.23375c-2.15111,3.28472 -5.29986,4.92708 -9.44625,4.92708zM752.91292,350.0125v0c2.23056,0 4.25486,-0.83111 6.07292,-2.49333c1.81806,-1.66222 2.72708,-3.62847 2.72708,-5.89875v0c-1.52472,-1.24972 -3.81333,-1.87458 -6.86583,-1.87458v0c-2.61861,0 -4.5925,0.56681 -5.92167,1.70042c-1.33222,1.13361 -1.99833,2.46278 -1.99833,3.9875v0c0,1.40861 0.60653,2.52389 1.81958,3.34583c1.21306,0.82194 2.60181,1.23292 4.16625,1.23292z"/>
      <path d="M782.77333,354.93958v0c-3.20528,0 -5.85444,-0.78222 -7.9475,-2.34667c-2.09306,-1.56444 -3.62847,-3.52 -4.60625,-5.86667v0l4.8125,-1.99375c1.52472,3.59639 4.125,5.39458 7.80083,5.39458v0c1.68056,0 3.05861,-0.37125 4.13417,-1.11375c1.07556,-0.7425 1.61333,-1.72028 1.61333,-2.93333v0c0,-1.87611 -1.30931,-3.14722 -3.92792,-3.81333v0l-5.80708,-1.40708c-1.83944,-0.47056 -3.58111,-1.36125 -5.225,-2.67208c-1.64083,-1.30778 -2.46125,-3.07694 -2.46125,-5.3075v0c0,-2.54222 1.12444,-4.60472 3.37333,-6.1875c2.24889,-1.58583 4.91792,-2.37875 8.00708,-2.37875v0c2.54222,0 4.81097,0.5775 6.80625,1.7325c1.99528,1.15194 3.42222,2.80347 4.28083,4.95458v0l-4.69333,1.93875c-1.05417,-2.54222 -3.24347,-3.81333 -6.56792,-3.81333v0c-1.60417,0 -2.95472,0.33153 -4.05167,0.99458c-1.09389,0.66611 -1.64083,1.56597 -1.64083,2.69958v0c0,1.64389 1.27111,2.75917 3.81333,3.34583v0l5.6925,1.3475c2.69806,0.62639 4.69181,1.70194 5.98125,3.22667c1.2925,1.52472 1.93875,3.24653 1.93875,5.16542v0c0,2.57889 -1.05722,4.73 -3.17167,6.45333c-2.11139,1.72028 -4.82931,2.58042 -8.15375,2.58042z"/>
      <path d="M812.10667,354.93958v0c-4.34194,0 -7.87111,-1.44681 -10.5875,-4.34042c-2.71944,-2.89667 -4.07917,-6.55417 -4.07917,-10.9725v0c0,-4.18611 1.32,-7.78403 3.96,-10.79375c2.64,-3.01278 6.01333,-4.51917 10.12,-4.51917v0c4.2625,0 7.67556,1.38875 10.23917,4.16625c2.56056,2.7775 3.84083,6.49306 3.84083,11.14667v0l-0.05958,0.99917h-22.70125c0.15583,2.89361 1.12292,5.18069 2.90125,6.86125c1.78139,1.68361 3.86528,2.52542 6.25167,2.52542v0c3.87139,0 6.49153,-1.64389 7.86042,-4.93167v0l4.80792,1.99833c-0.93806,2.2275 -2.48264,4.09444 -4.63375,5.60083c-2.15111,1.50639 -4.79111,2.25958 -7.92,2.25958zM803.19208,336.16625h16.66042c-0.11917,-1.64389 -0.87236,-3.20833 -2.25958,-4.69333c-1.38722,-1.48806 -3.44972,-2.23208 -6.1875,-2.23208v0c-1.99528,0 -3.72625,0.62639 -5.19292,1.87917c-1.46667,1.25278 -2.47347,2.93486 -3.02042,5.04625z"/>
    </g>
  </g>
</svg>
