<svg xmlns="http://www.w3.org/2000/svg" version="1.1" viewBox="-5.0 -10.0 110.0 135.0">
 <path d="m72.133 47.633c-0.40625 0-0.73437-0.32812-0.73437-0.73437v-3.2656c0-1.7031-1.3828-3.0859-3.0859-3.0859h-7.5312c-1.7031 0-3.0859 1.3867-3.0859 3.0859v3.2656c0 0.40625-0.32812 0.73437-0.73437 0.73437s-0.73438-0.32812-0.73438-0.73437v-3.2656c0-2.5117 2.0469-4.5586 4.5586-4.5586h7.5312c2.5117 0 4.5586 2.0469 4.5586 4.5586v3.2656c-0.007812 0.40625-0.33594 0.73437-0.74219 0.73437z"/>
 <path d="m75.043 91.66c-8.668 0-16.707-5.0508-20.477-12.871-0.84375-1.7461-2.6367-2.8789-4.5664-2.8789-1.957 0-3.7148 1.1211-4.5859 2.9258-4.0195 8.2812-12.57 13.312-21.77 12.789-11.457-0.63672-20.859-10.121-21.41-21.59-0.30469-6.2969 1.918-12.273 6.2539-16.82 4.3359-4.5469 10.18-7.0508 16.453-7.0508h50.102c0.37891 0 0.75391 0.015626 1.1328 0.03125 12.125 0.59766 21.617 10.578 21.617 22.719 0 12.543-10.207 22.746-22.75 22.746zm-25.043-17.219c2.4922 0 4.8008 1.457 5.8906 3.7109 3.5273 7.3125 11.047 12.039 19.152 12.039 11.734 0 21.281-9.5469 21.281-21.277 0-11.359-8.8789-20.691-20.215-21.25-0.35156-0.015624-0.71094-0.027343-1.0664-0.027343l-50.102-0.003907c-5.8711 0-11.336 2.3438-15.391 6.5938-4.0547 4.2539-6.1328 9.8398-5.8477 15.734 0.51562 10.73 9.3086 19.602 20.023 20.195 8.6562 0.46484 16.605-4.2188 20.363-11.961 1.1211-2.3164 3.3867-3.7539 5.9102-3.7539z"/>
 <path d="m76.145 47.66h-0.03125c-0.35938-0.015625-0.71484-0.027344-1.0742-0.027344-0.40625 0-0.73437-0.32812-0.73437-0.73437s0.32812-0.73438 0.73437-0.73438h1.1016c0.40625 0 0.73438 0.32813 0.73438 0.73438v0.03125c0 0.19922-0.082031 0.39062-0.22656 0.53125-0.12891 0.12891-0.3125 0.19922-0.50391 0.19922z"/>
 <path d="m25.75 82.152h-3.2148c-1.1484 0-2.0859-0.9375-2.0859-2.0859v-7.4609h-7.4609c-1.1484 0-2.0859-0.9375-2.0859-2.0898v-3.2109c0-1.1523 0.9375-2.0898 2.0859-2.0898h7.4609v-7.4609c0-1.1484 0.9375-2.0859 2.0859-2.0859h3.2109c1.1484 0 2.0859 0.9375 2.0859 2.0859v7.4609h7.4609c1.1523 0 2.0898 0.9375 2.0898 2.0898v3.2109c0 1.1523-0.9375 2.0898-2.0898 2.0898h-7.4609v7.4609c0.003907 1.1523-0.93359 2.0859-2.082 2.0859zm-12.762-15.461c-0.33984 0-0.61719 0.27734-0.61719 0.61719v3.2109c0 0.33984 0.27734 0.61719 0.61719 0.61719h8.1953c0.40625 0 0.73438 0.32812 0.73438 0.73438v8.1953c0 0.33984 0.27734 0.61719 0.61719 0.61719h3.2109c0.33984 0 0.61719-0.27734 0.61719-0.61719v-8.1953c0-0.40625 0.32812-0.73438 0.73438-0.73438h8.1953c0.33984 0 0.61719-0.27734 0.61719-0.61719v-3.2109c0-0.33984-0.27734-0.61719-0.61719-0.61719h-8.1953c-0.40625 0-0.73438-0.32812-0.73438-0.73438v-8.1953c0-0.33984-0.27734-0.61719-0.61719-0.61719h-3.2109c-0.33984 0-0.61719 0.27734-0.61719 0.61719v8.1953c0 0.40625-0.32812 0.73438-0.73438 0.73438z"/>
 <path d="m75.594 64.012c-2.5664 0-4.6562-2.0859-4.6562-4.6523s2.0898-4.6562 4.6562-4.6562 4.6562 2.0898 4.6562 4.6562-2.0898 4.6523-4.6562 4.6523zm0-7.8359c-1.7539 0-3.1836 1.4297-3.1836 3.1836s1.4297 3.1836 3.1836 3.1836 3.1836-1.4258 3.1836-3.1836c0-1.7539-1.4297-3.1836-3.1836-3.1836z"/>
 <path d="m75.594 83.133c-2.5664 0-4.6562-2.0898-4.6562-4.6562 0-2.5664 2.0898-4.6562 4.6562-4.6562s4.6562 2.0898 4.6562 4.6562c0 2.5664-2.0898 4.6562-4.6562 4.6562zm0-7.8398c-1.7539 0-3.1836 1.4297-3.1836 3.1836 0 1.7539 1.4297 3.1836 3.1836 3.1836s3.1836-1.4297 3.1836-3.1836c0-1.7539-1.4297-3.1836-3.1836-3.1836z"/>
 <path d="m66.035 73.574c-2.5664 0-4.6562-2.0898-4.6562-4.6562 0-2.5664 2.0898-4.6523 4.6562-4.6523 1.2422 0 2.4141 0.48438 3.2891 1.3633 0.87891 0.87891 1.3633 2.0469 1.3633 3.2891 0 2.5664-2.0859 4.6562-4.6523 4.6562zm0-7.8359c-1.7539 0-3.1836 1.4258-3.1836 3.1836 0 1.7539 1.4297 3.1836 3.1836 3.1836s3.1836-1.4297 3.1836-3.1836c0-0.85156-0.33203-1.6484-0.92969-2.25-0.60156-0.60547-1.4023-0.93359-2.2539-0.93359z"/>
 <path d="m85.152 73.574c-2.5664 0-4.6523-2.0898-4.6523-4.6562 0-2.5664 2.0898-4.6523 4.6562-4.6523s4.6523 2.0859 4.6523 4.6523c0 2.5664-2.0898 4.6562-4.6562 4.6562zm0.003906-7.8359c-1.7539 0-3.1836 1.4258-3.1836 3.1836 0 1.7539 1.4258 3.1836 3.1836 3.1836 1.7539 0 3.1836-1.4297 3.1836-3.1836-0.003906-1.7578-1.4297-3.1836-3.1836-3.1836z"/>
 <path d="m43.934 57.523c-2.2617 0-4.1055-1.5391-4.1055-3.4336 0-1.8906 1.8438-3.4297 4.1055-3.4297 2.2617 0 4.1055 1.5391 4.1055 3.4297 0 1.8945-1.8438 3.4336-4.1055 3.4336zm0-5.3906c-1.4531 0-2.6367 0.87891-2.6367 1.9609s1.1836 1.9609 2.6367 1.9609 2.6367-0.87891 2.6367-1.9609-1.1836-1.9609-2.6367-1.9609z"/>
 <path d="m56.066 57.523c-2.2617 0-4.1055-1.5391-4.1055-3.4336 0-1.8906 1.8438-3.4297 4.1055-3.4297 2.2617 0 4.1055 1.5391 4.1055 3.4297 0 1.8945-1.8438 3.4336-4.1055 3.4336zm0-5.3906c-1.4531 0-2.6367 0.87891-2.6367 1.9609s1.1836 1.9609 2.6367 1.9609 2.6367-0.87891 2.6367-1.9609-1.1836-1.9609-2.6367-1.9609z"/>
 <path d="m54.203 64.816h-8.457c-0.40625 0-0.73438-0.32812-0.73438-0.73438s0.32812-0.73438 0.73438-0.73438h8.457c0.40625 0 0.73438 0.32812 0.73438 0.73438 0.003906 0.40625-0.32422 0.73438-0.73438 0.73438z"/>
 <path d="m54.203 68.953h-8.457c-0.40625 0-0.73438-0.32812-0.73438-0.73438s0.32812-0.73438 0.73438-0.73438h8.457c0.40625 0 0.73438 0.32812 0.73438 0.73438 0.003906 0.40625-0.32422 0.73438-0.73438 0.73438z"/>
 <path d="m64.543 40.543c-0.40625 0-0.73438-0.32812-0.73438-0.73438v-9.4844c0-4.2188-3.4336-7.6523-7.6484-7.6523h-17.648c-5.0312 0-9.1211-4.0938-9.1211-9.1211v-4.4766c0-0.40625 0.32812-0.73438 0.73438-0.73438s0.73438 0.32812 0.73438 0.73438v4.4805c0 4.2188 3.4336 7.6523 7.6523 7.6523h17.648c5.0312 0 9.1211 4.0938 9.1211 9.1211l-0.003906 9.4805c0 0.40625-0.32812 0.73438-0.73438 0.73438z"/>
<text x="0.0" y="117.5" font-size="5.0" font-weight="bold" font-family="Arbeit Regular, Helvetica, Arial-Unicode, Arial, Sans-serif" fill="#000000">Created by VectorsLab</text><text x="0.0" y="122.5" font-size="5.0" font-weight="bold" font-family="Arbeit Regular, Helvetica, Arial-Unicode, Arial, Sans-serif" fill="#000000">from Noun Project</text></svg>