<svg xmlns="http://www.w3.org/2000/svg" version="1.1" viewBox="-5.0 -10.0 110.0 135.0">
 <path d="m43.598 28.648c0.81641-1.3242 1.7227-3.1016 2.9297-5.4727 0.97656-1.9141 2.1523-4.2188 3.7188-7.1289 0.70312-1.3086 1.7031-2.3516 2.9023-3.0664 1.2031-0.71875 2.5938-1.1055 4.0781-1.1055 1.4805 0 2.8711 0.39062 4.0781 1.1055 1.1992 0.71875 2.1992 1.7578 2.9023 3.0664 1.5703 2.918 2.7422 5.2188 3.7188 7.1367 2.3477 4.6133 3.5273 6.9258 5.1875 8.1289 1.668 1.2109 4.2266 1.6211 9.3398 2.4258 2.1445 0.33984 4.7266 0.75 7.9336 1.3281 1.4688 0.26562 2.7656 0.89453 3.8203 1.8125 1.0469 0.91797 1.8438 2.1172 2.3086 3.5352 0.46094 1.4141 0.52344 2.8555 0.21484 4.2109-0.30859 1.3633-0.99219 2.6367-2.0195 3.7109-0.76953 0.76953-1.5312 1.5898-2.2969 2.3711-0.57422 0.58984-1.5234 0.60156-2.1133 0.027344-0.58984-0.57422-0.60156-1.5234-0.027343-2.1133l2.2695-2.3398c0.65234-0.6875 1.0859-1.4805 1.2734-2.3086 0.1875-0.83594 0.14844-1.7383-0.14062-2.6289-0.28906-0.89453-0.78125-1.6484-1.4297-2.2109-0.64453-0.5625-1.457-0.95312-2.3789-1.1172-3.0977-0.5625-5.707-0.97656-7.8711-1.3164-5.5938-0.88672-8.3945-1.332-10.629-2.9531-2.2461-1.6328-3.5352-4.1562-6.1016-9.1992-1.0039-1.9727-2.2188-4.3516-3.6836-7.0781-0.44531-0.82812-1.0664-1.4805-1.8008-1.9219-0.73047-0.43359-1.5977-0.67188-2.543-0.67188-0.94141 0-1.8125 0.23438-2.543 0.67188-0.73437 0.4375-1.3555 1.0938-1.8008 1.9219-1.4688 2.7266-2.6758 5.0977-3.6797 7.0703-1.1211 2.2031-1.9961 3.918-2.8164 5.2969 1.0195 0.22656 2.3242 0.4375 4.0273 0.70312 1.5469 0.24219 3.4023 0.53906 5.7344 0.96094 1.1328 0.20312 2.1406 0.69141 2.9531 1.4023 0.8125 0.71094 1.4336 1.6445 1.7891 2.7344 0.35547 1.0938 0.40234 2.2031 0.16016 3.2617-0.23828 1.0547-0.76953 2.0391-1.5625 2.8711-1.7539 1.832-3.0195 3.0977-4.0703 4.1523l-0.085938 0.074219c-2.543 2.543-3.8203 3.8281-4.2422 5.1328-0.42969 1.3203-0.14062 3.1328 0.43359 6.7578l0.007813 0.050781c0.25 1.5859 0.55078 3.4961 0.85156 5.6992 0.15625 1.1406 0.003907 2.2422-0.42188 3.2383-0.42578 1-1.1211 1.875-2.0508 2.5508-0.92578 0.67188-1.9727 1.0625-3.0547 1.1602-1.0781 0.097656-2.1797-0.097657-3.2148-0.60156-2.1992-1.0586-3.8438-1.8945-5.2031-2.5938-1.5547-0.79297-2.7383-1.3945-3.7031-1.8125-0.14062 1.6094-0.44531 3.543-0.84375 6.0469-0.33594 2.1133-0.73828 4.6602-1.1758 7.8945-0.125 0.92969-0.007812 1.8242 0.32813 2.6133 0.33594 0.78516 0.89844 1.4844 1.6562 2.0391 0.76172 0.55469 1.6055 0.87109 2.457 0.94922 0.85547 0.074218 1.7383-0.089844 2.582-0.49609 2.7695-1.3359 5.1562-2.5547 7.1445-3.5625 5.043-2.5664 7.5664-3.8555 10.336-3.8555 2.7734 0 5.2969 1.2852 10.336 3.8555 1.9844 1.0117 4.375 2.2305 7.1445 3.5625 0.83594 0.40234 1.7109 0.56641 2.5547 0.49609l0.027344-0.003906c0.84766-0.078126 1.6914-0.39453 2.457-0.94922 0.75781-0.54688 1.3203-1.2461 1.6562-2.0391 0.33594-0.78906 0.45703-1.6836 0.32812-2.6133-0.43359-3.1953-0.83984-5.7617-1.1797-7.8945-1.2734-8.043-1.6484-10.418 1.3281-14.27 0.50391-0.65234 1.4414-0.77344 2.0977-0.26953 0.65234 0.50391 0.77344 1.4414 0.26953 2.0977-2.1914 2.832-1.8594 4.918-0.74219 11.973 0.34375 2.1797 0.76172 4.8047 1.1875 7.9609 0.19922 1.4727 0.003907 2.9023-0.54297 4.1836s-1.4453 2.4102-2.6523 3.2891c-1.1992 0.875-2.5508 1.3828-3.9453 1.5078l-0.046876 0.003906c-1.3789 0.11719-2.7852-0.14062-4.1094-0.78125-3.0039-1.4453-5.2969-2.6172-7.2031-3.5898-4.6133-2.3477-6.9219-3.5273-8.9805-3.5273-2.0547 0-4.3633 1.1758-8.9805 3.5273-1.9062 0.97266-4.1992 2.1406-7.2031 3.5898-1.3398 0.64453-2.7578 0.89844-4.1445 0.77734-1.4023-0.125-2.75-0.62891-3.9492-1.5-1.2031-0.875-2.1016-2.0078-2.6523-3.293-0.54688-1.2812-0.74219-2.7109-0.54297-4.1836 0.42187-3.1133 0.83984-5.7617 1.1875-7.957 0.42578-2.6875 0.74219-4.6836 0.84766-6.2539-1.3125 0.12891-2.9414 0.95703-5.9297 2.4805-1.3633 0.69141-3.0078 1.5312-5.2031 2.5938-1.0312 0.49609-2.1328 0.69531-3.2148 0.60156-1.0781-0.097656-2.1289-0.48438-3.0547-1.1602-0.92969-0.67578-1.625-1.5508-2.0508-2.5508-0.42188-0.99219-0.57422-2.1016-0.42188-3.2383 0.30469-2.2695 0.60938-4.1719 0.85938-5.7539 0.57422-3.6211 0.85938-5.4375 0.43359-6.7539-0.42578-1.3086-1.7266-2.6094-4.3242-5.207-0.98828-0.98828-2.1797-2.1797-4.0664-4.1484-0.80078-0.83203-1.3281-1.8164-1.5703-2.8672l-0.015625-0.070313c-0.22266-1.0312-0.16797-2.125 0.17578-3.1914 0.35547-1.0898 0.97266-2.0234 1.7891-2.7344s1.8203-1.1992 2.9531-1.4023c2.3477-0.42578 4.2148-0.72266 5.7656-0.96484l0.47656-0.074218c0.81641-0.125 1.5781 0.43359 1.7031 1.2461 0.125 0.81641-0.43359 1.5781-1.2461 1.7031l-0.46484 0.074219c-1.5703 0.25-3.4727 0.55078-5.707 0.95703-0.58984 0.10547-1.1055 0.35547-1.5156 0.71094-0.40625 0.35547-0.72266 0.83594-0.91016 1.4102-0.17969 0.55469-0.21094 1.1094-0.10156 1.6289l0.011719 0.046876c0.12109 0.53516 0.39453 1.0352 0.80859 1.4688 1.3086 1.375 2.7969 2.8633 4.0312 4.0977 2.9297 2.9297 4.4023 4.4023 5.0508 6.4062 0.64453 1.9961 0.32031 4.0508-0.32812 8.1484-0.24219 1.5312-0.53516 3.3711-0.84766 5.6836-0.082031 0.59375-0.007812 1.168 0.21094 1.668 0.21484 0.49609 0.57031 0.94141 1.0547 1.2969 0.48828 0.35547 1.0273 0.5625 1.5664 0.60938 0.53906 0.046875 1.1055-0.058594 1.6445-0.31641 1.9688-0.94922 3.7031-1.832 5.1445-2.5664 3.6992-1.8828 5.5469-2.8281 7.6484-2.8281 2.1016 0 3.9492 0.94531 7.6484 2.8281 1.4414 0.73438 3.1797 1.6211 5.1445 2.5664 0.53906 0.26172 1.1055 0.36719 1.6445 0.31641 0.53906-0.046875 1.0742-0.25391 1.5664-0.60938 0.48438-0.35547 0.84375-0.79688 1.0547-1.2969 0.21484-0.5 0.28906-1.0703 0.21094-1.668-0.31641-2.3281-0.60156-4.1328-0.83984-5.6328l-0.007812-0.046874c-0.65234-4.1016-0.97656-6.1523-0.32813-8.1523 0.64063-1.9766 2.0898-3.4375 4.9727-6.3203l0.074219-0.082031c1.1719-1.1719 2.582-2.582 4.0273-4.0938 0.41797-0.43359 0.69141-0.9375 0.80859-1.4727 0.12109-0.52734 0.09375-1.1016-0.09375-1.6719-0.1875-0.57422-0.5-1.0547-0.91016-1.4102-0.40625-0.35547-0.92578-0.60547-1.5156-0.71094-2.2188-0.40234-4.1055-0.70312-5.6719-0.94922-4.1016-0.65234-6.1562-0.97656-7.8477-2.2031-1.6992-1.2344-2.6445-3.0859-4.5312-6.7812-0.73047-1.4336-1.6055-3.1523-2.6523-5.1016-0.28516-0.52734-0.67969-0.94531-1.1445-1.2227-0.46094-0.27734-1.0156-0.42187-1.6211-0.42187-0.60547 0-1.1602 0.14844-1.6211 0.42187-0.46484 0.27734-0.85938 0.69531-1.1445 1.2227-1.043 1.9414-1.9219 3.6602-2.6484 5.0898l-0.85547 1.6602c-0.375 0.73047-1.2734 1.0273-2.0117 0.65234-0.73047-0.375-1.0273-1.2734-0.65234-2.0117l0.84766-1.6602c0.69141-1.375 1.5391-3.0273 2.6797-5.1523 0.54297-1.0117 1.3164-1.8164 2.2461-2.3711 0.93359-0.55859 2.0117-0.85938 3.1562-0.85938 1.1445 0 2.2227 0.30078 3.1562 0.85938 0.92969 0.55469 1.7031 1.3633 2.2461 2.3711 1.1445 2.1289 1.9883 3.7812 2.6875 5.1562 1.5352 3.0156 2.3633 4.6406 3.3594 5.5117zm-21.945 2.9922c-0.70312 0.43359-1.6289 0.21484-2.0625-0.49219-0.43359-0.70313-0.21484-1.6289 0.49219-2.0625l0.39844-0.25391c0.67969-0.46875 1.6094-0.29688 2.0781 0.38281 0.46875 0.67969 0.29688 1.6094-0.38281 2.0781zm64.59 21.023c0.58203-0.58594 1.5312-0.58984 2.1133-0.007812 0.58594 0.58203 0.58984 1.5312 0.007812 2.1133l-0.39453 0.39453c-0.58203 0.58594-1.5312 0.58984-2.1133 0.007813-0.58594-0.58203-0.58984-1.5312-0.007813-2.1133z"/>
<text x="0.0" y="117.5" font-size="5.0" font-weight="bold" font-family="Arbeit Regular, Helvetica, Arial-Unicode, Arial, Sans-serif" fill="#000000">Created by Uswah Studio</text><text x="0.0" y="122.5" font-size="5.0" font-weight="bold" font-family="Arbeit Regular, Helvetica, Arial-Unicode, Arial, Sans-serif" fill="#000000">from Noun Project</text></svg>