<svg xmlns="http://www.w3.org/2000/svg" version="1.1" viewBox="-5.0 -10.0 110.0 135.0">
 <path d="m43.898 41.266 6.1992-7.3359c1.0391 0.53516 2.2031 0.86719 3.4531 0.86719 1.8984 0 3.6133-0.72656 4.9453-1.8828l7.5938 5.5312c-0.39062 0.91016-0.60547 1.9141-0.60547 2.9648 0 4.1875 3.4023 7.5898 7.5898 7.5898s7.5898-3.4023 7.5898-7.5898c0-1.7578-0.625-3.3594-1.6328-4.6445l7.6719-9.5273c0.97656 0.45703 2.0547 0.73438 3.1992 0.73438 4.1875 0 7.5938-3.4062 7.5938-7.5938s-3.4062-7.5898-7.5938-7.5898-7.5898 3.4023-7.5898 7.5898c0 1.7969 0.65234 3.4297 1.7031 4.7305l-7.6523 9.4922c-1-0.48437-2.1055-0.78125-3.2891-0.78125-1.8984 0-3.6172 0.72656-4.9492 1.8828l-7.5977-5.5195c0.39453-0.91406 0.61328-1.9219 0.61328-2.9805 0-4.1875-3.4023-7.5898-7.5898-7.5898s-7.5938 3.4023-7.5938 7.5898c0 1.7031 0.58203 3.2578 1.5312 4.5234l-6.207 7.3438c-0.59766 0.71094-0.51172 1.7891 0.19922 2.3867 0.73828 0.625 1.7891 0.51172 2.418-0.19922zm46.008-25.07c2.3086 0 4.1836 1.8789 4.1836 4.1797 0 2.3047-1.8789 4.1836-4.1836 4.1836-2.3086 0-4.1797-1.8789-4.1797-4.1836 0-2.3086 1.8789-4.1797 4.1797-4.1797zm-16.828 21.039c2.3047 0 4.1797 1.8789 4.1797 4.1797 0 2.3047-1.8789 4.1797-4.1797 4.1797-2.3047 0-4.1797-1.8789-4.1797-4.1797 0-2.3047 1.8789-4.1797 4.1797-4.1797zm-19.527-14.207c2.3047 0 4.1797 1.8789 4.1797 4.1797 0 2.3047-1.8789 4.1797-4.1797 4.1797-2.3047 0-4.1836-1.8789-4.1836-4.1797 0-2.3047 1.8789-4.1797 4.1836-4.1797z"/>
 <path d="m41.684 67.262c1.4766-2.8516 2.3242-6.0781 2.3242-9.5039 0-11.445-9.3086-20.754-20.754-20.754-11.441 0.003906-20.754 9.3125-20.754 20.758 0 11.441 9.3125 20.754 20.754 20.754 3.4336 0 6.6641-0.85156 9.5195-2.332l11.922 13.836c1.3945 1.6211 3.4102 2.5859 5.5156 2.6719h0.28516c2.0469 0 4.0078-0.79688 5.457-2.2461 1.5078-1.5078 2.332-3.582 2.2461-5.7148-0.085938-2.1328-1.0508-4.1484-2.6719-5.543zm-35.773-9.5c0-9.5625 7.7812-17.344 17.348-17.344 9.5625 0 17.344 7.7812 17.344 17.344s-7.7812 17.348-17.344 17.348-17.348-7.7812-17.348-17.348zm47.625 30.27c-0.85156 0.85156-1.9883 1.2773-3.1836 1.25-1.1953-0.027344-2.3047-0.57031-3.0703-1.4766l-11.609-13.449c1.582-1.1875 2.9844-2.5938 4.1719-4.1758l13.465 11.598c0.91016 0.76953 1.4219 1.8789 1.4766 3.0703 0.027344 1.2227-0.39844 2.332-1.2539 3.1836z"/>
 <path d="m36.16 57.762c0-7.1133-5.7891-12.902-12.902-12.902-0.94141 0-1.7031 0.76172-1.7031 1.7031s0.76172 1.7031 1.7031 1.7031c5.2344 0 9.4961 4.2578 9.4961 9.4961 0 0.94141 0.76172 1.7031 1.7031 1.7031 0.94141 0 1.7031-0.76172 1.7031-1.7031z"/>
 <path d="m22.594 18.543 5.4141-5.4102v19.273c0 0.94141 0.76172 1.7031 1.7031 1.7031 0.94141 0 1.7031-0.76172 1.7031-1.7031l0.003907-19.273 5.4141 5.4102c0.33203 0.33203 0.76953 0.5 1.2031 0.5 0.4375 0 0.87109-0.16797 1.2031-0.5 0.66406-0.66406 0.66406-1.7461 0-2.4102l-8.3242-8.3242c-0.66406-0.66406-1.7422-0.66406-2.4102 0l-8.3242 8.3242c-0.66406 0.66406-0.66406 1.7461 0 2.4102 0.66406 0.66406 1.7422 0.66406 2.4102 0z"/>
 <path d="m86.949 58.309c-0.66406-0.66406-1.7422-0.66406-2.4102 0-0.66406 0.66406-0.66406 1.7461 0 2.4102l5.3984 5.4023h-39.332c-0.94141 0-1.7031 0.76172-1.7031 1.7031 0 0.94141 0.76172 1.7031 1.7031 1.7031h39.352l-5.4219 5.4258c-0.66406 0.66406-0.66406 1.7461 0 2.4102 0.33203 0.33203 0.76953 0.5 1.2031 0.5 0.4375 0 0.87109-0.16797 1.2031-0.5l8.3242-8.3242c0.66406-0.66406 0.66406-1.7461 0-2.4102l-8.3242-8.3242z"/>
<text x="0.0" y="117.5" font-size="5.0" font-weight="bold" font-family="Arbeit Regular, Helvetica, Arial-Unicode, Arial, Sans-serif" fill="#000000">Created by Adrien Coquet</text><text x="0.0" y="122.5" font-size="5.0" font-weight="bold" font-family="Arbeit Regular, Helvetica, Arial-Unicode, Arial, Sans-serif" fill="#000000">from Noun Project</text></svg>