<svg xmlns="http://www.w3.org/2000/svg" version="1.1" viewBox="-5.0 -10.0 110.0 135.0">
 <path d="m65.52 18.371c0.375-0.375 0.375-0.98047 0-1.3516-3.6328-3.6328-3.6328-9.5391 0-13.172 0.375-0.375 0.375-0.98047 0-1.3516-0.375-0.375-0.98047-0.375-1.3516 0-4.3789 4.3789-4.3789 11.5 0 15.879 0.375 0.36719 0.98047 0.36719 1.3516-0.003906z"/>
 <path d="m69.348 4.0078c-0.375-0.375-0.98047-0.375-1.3516 0-3.543 3.5391-3.543 9.3047 0 12.844 0.375 0.375 0.98047 0.375 1.3516 0 0.375-0.375 0.375-0.98047 0-1.3516-2.793-2.7969-2.793-7.3438 0-10.137 0.375-0.375 0.375-0.98047 0-1.3555z"/>
 <path d="m94.164 2.4922c-0.375 0.375-0.375 0.98047 0 1.3516 3.6289 3.6328 3.6289 9.5391 0 13.172-0.375 0.375-0.375 0.98047 0 1.3516 0.375 0.375 0.98047 0.375 1.3516 0 4.375-4.3789 4.375-11.5 0-15.879-0.37109-0.37109-0.97656-0.37109-1.3516 0.003907z"/>
 <path d="m90.336 16.852c0.375 0.375 0.98047 0.375 1.3516 0 3.5391-3.5391 3.5391-9.3047 0-12.844-0.375-0.375-0.98047-0.375-1.3516 0-0.375 0.375-0.375 0.98047 0 1.3516 2.793 2.7969 2.793 7.3438 0 10.137-0.37109 0.37891-0.37109 0.98438 0 1.3555z"/>
 <path d="m79.844 1.1992c-5.0859 0-9.2266 4.1406-9.2266 9.2344 0 5.0898 4.1406 9.2266 9.2266 9.2266s9.2266-4.1406 9.2266-9.2266c0-5.0938-4.1406-9.2344-9.2266-9.2344zm0 16.547c-4.0312 0-7.3125-3.2812-7.3125-7.3125 0-4.0352 3.2812-7.3203 7.3125-7.3203s7.3125 3.2812 7.3125 7.3203c0 4.0312-3.2812 7.3125-7.3125 7.3125z"/>
 <path d="m5.8359 82.992c0.375-0.375 0.375-0.98047 0-1.3516-0.375-0.375-0.98047-0.375-1.3516 0-4.375 4.3789-4.375 11.5 0 15.879 0.375 0.375 0.98047 0.375 1.3516 0 0.375-0.375 0.375-0.98047 0-1.3516-3.6328-3.6367-3.6328-9.5469 0-13.176z"/>
 <path d="m9.6641 83.156c-0.375-0.375-0.98047-0.375-1.3516 0-3.5391 3.5391-3.5391 9.3047 0 12.844 0.375 0.375 0.98047 0.375 1.3516 0 0.375-0.375 0.375-0.98047 0-1.3516-2.793-2.7969-2.793-7.3438 0-10.137 0.37109-0.37891 0.37109-0.98438 0-1.3555z"/>
 <path d="m35.832 97.516c4.3789-4.3789 4.3789-11.5 0-15.879-0.375-0.375-0.98047-0.375-1.3516 0-0.375 0.375-0.375 0.98047 0 1.3516 3.6328 3.6328 3.6328 9.5391 0 13.172-0.375 0.375-0.375 0.98047 0 1.3516 0.37109 0.375 0.97656 0.375 1.3516 0.003906z"/>
 <path d="m30.652 96c0.375 0.375 0.98047 0.375 1.3516 0 3.543-3.5391 3.543-9.3047 0-12.844-0.375-0.375-0.98047-0.375-1.3516 0-0.375 0.375-0.375 0.98047 0 1.3516 2.793 2.7969 2.793 7.3438 0 10.137-0.375 0.375-0.375 0.98047 0 1.3555z"/>
 <path d="m29.383 89.578c0-5.0898-4.1406-9.2344-9.2266-9.2344s-9.2266 4.1406-9.2266 9.2344c0 5.0898 4.1406 9.2266 9.2266 9.2266s9.2266-4.1406 9.2266-9.2266zm-16.539 0c0-4.0352 3.2812-7.3203 7.3125-7.3203s7.3125 3.2812 7.3125 7.3203c0 4.0312-3.2812 7.3125-7.3125 7.3125s-7.3125-3.2812-7.3125-7.3125z"/>
 <path d="m5.8359 18.371c0.375-0.375 0.375-0.98047 0-1.3516-3.6289-3.6328-3.6289-9.5391 0-13.172 0.375-0.375 0.375-0.98047 0-1.3516-0.375-0.375-0.98047-0.375-1.3516 0-4.375 4.3789-4.375 11.5 0 15.879 0.37109 0.36719 0.97656 0.36719 1.3516-0.003906z"/>
 <path d="m9.6641 4.0078c-0.375-0.375-0.98047-0.375-1.3516 0-3.5391 3.5391-3.5391 9.3047 0 12.844 0.375 0.375 0.98047 0.375 1.3516 0 0.375-0.375 0.375-0.98047 0-1.3516-2.793-2.7969-2.793-7.3438 0-10.137 0.37109-0.375 0.37109-0.98047 0-1.3555z"/>
 <path d="m34.48 17.016c-0.375 0.375-0.375 0.98047 0 1.3516 0.375 0.375 0.98047 0.375 1.3516 0 4.3789-4.3789 4.3789-11.5 0-15.879-0.375-0.375-0.98047-0.375-1.3516 0-0.375 0.375-0.375 0.98047 0 1.3516 3.6289 3.6367 3.6289 9.5469 0 13.176z"/>
 <path d="m30.652 16.852c0.375 0.375 0.98047 0.375 1.3516 0 3.543-3.5391 3.543-9.3047 0-12.844-0.375-0.375-0.98047-0.375-1.3516 0-0.375 0.375-0.375 0.98047 0 1.3516 2.793 2.7969 2.793 7.3438 0 10.137-0.375 0.37891-0.375 0.98438 0 1.3555z"/>
 <path d="m29.383 10.43c0 5.0898-4.1445 9.2266-9.2266 9.2266-5.0898 0-9.2344-4.1328-9.2344-9.2266 0-5.0898 4.1445-9.2344 9.2344-9.2344 5.0859 0 9.2266 4.1445 9.2266 9.2344z"/>
 <path d="m65.52 82.992c0.375-0.375 0.375-0.98047 0-1.3516-0.375-0.375-0.98047-0.375-1.3516 0-4.3789 4.3789-4.3789 11.5 0 15.879 0.375 0.375 0.98047 0.375 1.3516 0 0.375-0.375 0.375-0.98047 0-1.3516-3.6289-3.6367-3.6289-9.5469 0-13.176z"/>
 <path d="m69.348 83.156c-0.375-0.375-0.98047-0.375-1.3516 0-3.543 3.5391-3.543 9.3047 0 12.844 0.375 0.375 0.98047 0.375 1.3516 0 0.375-0.375 0.375-0.98047 0-1.3516-2.793-2.7969-2.793-7.3438 0-10.137 0.375-0.37891 0.375-0.98438 0-1.3555z"/>
 <path d="m94.164 81.637c-0.375 0.375-0.375 0.98047 0 1.3516 3.6289 3.6328 3.6289 9.5391 0 13.172-0.375 0.375-0.375 0.98047 0 1.3516 0.375 0.375 0.98047 0.375 1.3516 0 4.375-4.3789 4.375-11.5 0-15.879-0.37109-0.36719-0.97656-0.36719-1.3516 0.003907z"/>
 <path d="m91.691 83.156c-0.375-0.375-0.98047-0.375-1.3516 0-0.375 0.375-0.375 0.98047 0 1.3516 2.793 2.7969 2.793 7.3438 0 10.137-0.375 0.375-0.375 0.98047 0 1.3516 0.375 0.375 0.98047 0.375 1.3516 0 3.5391-3.5391 3.5391-9.3008 0-12.84z"/>
 <path d="m89.066 89.578c0 5.0898-4.1328 9.2227-9.2266 9.2227-5.0898 0-9.2266-4.1328-9.2266-9.2227s4.1328-9.2344 9.2266-9.2344 9.2266 4.1406 9.2266 9.2344z"/>
 <path d="m49.996 20.496c-16.355 0-29.5 13.328-29.5 29.5 0 9.0508 4.0469 17.551 11.32 23.223h0.007813c5.2266 4.1133 11.512 6.2773 18.172 6.2773 16.352 0 29.512-13.273 29.512-29.5 0-16.266-13.246-29.5-29.512-29.5zm3.6562 37.902c0.62109 5.043 1.8945 6.6406 2.8242 7.8086 0.67969 0.87109 1.0625 1.3398 0.9375 3.2617-0.19922 3.5039-1.7891 5.4336-3.8945 7.8828-1.1758 0.15234-2.3555 0.23047-3.5234 0.23047-5.8086 0-11.301-1.7891-15.988-5.1484 1.8086-1.4336 3.4922-3.043 4.9961-4.8125 4.9648-5.875 1.8008-9.4648-1.2734-12.93-0.77344-0.89062-1.5898-1.8086-2.2969-2.7852-1.2266-1.6953-2.4102-4.2969-2.125-6.0391 0.25781-1.5391 1.5391-1.6172 2.9375-1.7031 3.2539-0.21875 6.4609-0.87109 9.5195-1.9531 6.3242-2.2383 7.6562-7.8945 5.4531-10.668-2.3555-2.9766-8.6211-3.4922-14.562-1.207-1.082 0.42187-2.0078 0.91797-2.9961 1.4531-1.6367 0.89063-3.4648 1.875-6.3906 2.6016 5.1016-7.4453 13.617-11.992 22.727-11.992 15.215 0 27.598 12.383 27.598 27.586 0 4.5742-1.1289 9.0312-3.2617 13.004-12.23-15.871-21.438-10.715-20.68-4.5898z"/>
 <path d="m70.34 43.242c-0.84375 1.0039-2.0938 1.3203-3.418 0.85937-2.4609-0.85937-3.1562 0.019532-4.1133 1.2461-1.4844 1.875-2.8906 2.7188-5.6641 1.2812-2.0938-1.082-2.9961-3.1367-2.4961-5.6562 0.79297-3.9336 4.7266-8.0469 7.9414-8.3164 3.168-0.25 3.9922 1.0547 4.5742 2.4219 0.21875 0.50781 0.35547 0.80469 0.66016 0.97656 0.76562 0.42187 2.6016 1.5195 3.1562 2.4961 0.62109 1.1016 0.48828 3.332-0.64062 4.6914z"/>
<text x="0.0" y="117.5" font-size="5.0" font-weight="bold" font-family="Arbeit Regular, Helvetica, Arial-Unicode, Arial, Sans-serif" fill="#000000">Created by Icons Field</text><text x="0.0" y="122.5" font-size="5.0" font-weight="bold" font-family="Arbeit Regular, Helvetica, Arial-Unicode, Arial, Sans-serif" fill="#000000">from Noun Project</text></svg>