<svg xmlns="http://www.w3.org/2000/svg" version="1.1" viewBox="-5.0 -10.0 110.0 135.0">
 <path d="m22.078 59.129-8.4648 19.719c-0.16797 0.39453-0.62891 0.57812-1.0234 0.40625-0.39453-0.16797-0.57812-0.62891-0.41016-1.0234l8.5117-19.824c-1.3398-0.97266-2.2109-2.5547-2.2109-4.332 0-2.9531 2.3984-5.3516 5.3516-5.3516s5.3477 2.3984 5.3477 5.3516c0 1.4531-0.58203 2.7734-1.5234 3.7383l2.7773 3.7812c0.70703-0.39844 1.5195-0.625 2.3867-0.625 1.5664 0 2.9609 0.73828 3.8555 1.8867l7.4492-6.7617c-0.43359-0.73047-0.67969-1.5781-0.67969-2.4844 0-2.6992 2.1875-4.8867 4.8828-4.8867s4.8867 2.1875 4.8867 4.8867c0 0.78516-0.1875 1.5312-0.51953 2.1875l9.7891 6.5547c0.89062-0.95312 2.1641-1.5547 3.5742-1.5547 0.74609 0 1.457 0.17188 2.0938 0.47266l1.0273-1.4922c0.24609-0.35547 0.73047-0.44531 1.0859-0.19922 0.35156 0.24219 0.44141 0.73047 0.19922 1.082l-1.0312 1.4961c0.92969 0.89062 1.5078 2.1406 1.5078 3.5273 0 2.6953-2.1875 4.8867-4.8828 4.8867-2.6992 0-4.8867-2.1914-4.8867-4.8867 0-0.72656 0.16016-1.4141 0.44531-2.0352l-9.8359-6.5859c-0.88281 0.88281-2.1055 1.4297-3.4531 1.4297-1.2266 0-2.3477-0.45313-3.2031-1.1992l-7.6836 6.9727c0.17188 0.49609 0.26562 1.0312 0.26562 1.5898 0 2.6953-2.1914 4.8828-4.8867 4.8828-2.6953 0-4.8828-2.1875-4.8828-4.8828 0-1.2656 0.48047-2.4219 1.2734-3.2891l-2.7969-3.8086c-0.76562 0.42578-1.6484 0.66406-2.582 0.66406-0.61719 0-1.207-0.10156-1.7539-0.29297zm4.0664-2.0547c0.89844-0.69141 1.4766-1.7812 1.4766-3 0-2.0938-1.6992-3.793-3.7891-3.793-2.0938 0-3.793 1.6992-3.793 3.793 0 1.4414 0.80859 2.6992 2 3.3398 0.53516 0.28906 1.1445 0.44922 1.793 0.44922 0.85938 0 1.6523-0.28516 2.2891-0.76953 0.007812-0.007812 0.015625-0.011719 0.023437-0.019531zm9.6602 7.3164c-0.53906-1.1016-1.6758-1.8594-2.9844-1.8594-0.78516 0-1.5039 0.26953-2.0742 0.72656-0.007813 0.003907-0.011719 0.011719-0.019532 0.015626-0.75 0.60937-1.2305 1.5391-1.2305 2.582 0 1.8359 1.4883 3.3242 3.3242 3.3242 1.8359 0 3.3281-1.4883 3.3281-3.3242 0-0.51953-0.12109-1.0117-0.33203-1.4492-0.003906-0.003906-0.007812-0.011719-0.011718-0.015625zm15.215-8.8281c0.39844-0.55078 0.63672-1.2266 0.63672-1.9531 0-1.8359-1.4922-3.3281-3.3281-3.3281s-3.3242 1.4922-3.3242 3.3281c0 0.79297 0.28125 1.5234 0.74609 2.0977 0.003906 0.003907 0.011719 0.011719 0.015625 0.019531 0.60938 0.73828 1.5312 1.207 2.5625 1.207 1.0977 0 2.0742-0.53125 2.6797-1.3555 0.003907-0.003906 0.007813-0.011719 0.011719-0.015625zm16.922 7.3828c-0.53516-0.37109-1.1836-0.58594-1.8828-0.58594-1.1523 0-2.168 0.58594-2.7656 1.4727v0.003907c-0.35547 0.52734-0.5625 1.1641-0.5625 1.8477 0 1.8359 1.4922 3.3242 3.3281 3.3242 1.8359 0 3.3242-1.4883 3.3242-3.3242 0-1.1367-0.57031-2.1367-1.4375-2.7383h-0.003906zm-7.6523-20.945c0.003907-1.5977 0.007813-3.7695 0.011719-5.5859 0-2.168 1.043-4.207 2.7969-5.4805 2.2109-1.5938 3.3555-3.7188 3.5352-5.7109 0.125-1.418-0.23828-2.7617-1.0742-3.7461-0.82812-0.98437-2.1211-1.5938-3.8008-1.5938-2.168 0-3.9492 0.6875-5.1211 1.9258-1.1602 1.2266-1.707 2.9766-1.4844 5.0547v0.003907c0.10547 1.0469-0.46094 2.043-1.4141 2.4805-0.95312 0.44141-2.082 0.22656-2.8047-0.53516-5.4805-5.7422-1.418-17.703 10.824-17.703 4.0391 0 7.0625 1.2969 9.1797 3.2461 3.1875 2.9375 4.3242 7.3867 3.707 11.309-0.44922 2.8438-1.8164 5.4023-3.9531 6.9375-3.9453 2.8438-4.4609 6.7734-4.332 9.207 0.050781 0.83594-0.25 1.6562-0.82812 2.2656-0.57422 0.60938-1.375 0.95312-2.2148 0.95312-0.80469 0-1.5742-0.31641-2.1406-0.88672-0.56641-0.56641-0.88672-1.3398-0.88672-2.1406zm1.5625 0c0 0.39062 0.15234 0.76562 0.42578 1.0391 0.27734 0.27734 0.64844 0.42969 1.0391 0.42969 0.41016 0 0.80078-0.16797 1.082-0.46484s0.42969-0.69922 0.40625-1.1094c-0.15234-2.793 0.44922-7.2969 4.9766-10.559 1.8125-1.3047 2.9414-3.5 3.3242-5.9141 0.53906-3.4375-0.43359-7.3477-3.2266-9.918-1.8711-1.7227-4.5547-2.832-8.1211-2.832-10.57 0-14.426 10.105-9.6953 15.066 0.26172 0.27734 0.67578 0.35547 1.0234 0.19531 0.34766-0.16016 0.55469-0.52344 0.51562-0.90625-0.27734-2.5938 0.45703-4.7617 1.9023-6.293 1.4375-1.5156 3.5977-2.4141 6.2539-2.4102 3.7031 0 5.9258 2.3281 6.375 5.2539 0.42969 2.8086-0.8125 6.2305-4.1211 8.6172-1.3516 0.98047-2.1523 2.5508-2.1523 4.2188v0.003907c-0.003906 1.8164-0.007813 3.9883-0.007813 5.582zm1.6484 4.4805c2.1797 0 3.9531 1.7695 3.9531 3.9531s-1.7734 3.9531-3.9531 3.9531c-2.1836 0-3.957-1.7695-3.957-3.9531s1.7734-3.9531 3.957-3.9531zm0 1.5586c-1.3242 0-2.3984 1.0703-2.3984 2.3945 0 1.3203 1.0742 2.3945 2.3984 2.3945 1.3203 0 2.3945-1.0742 2.3945-2.3945 0-1.3242-1.0742-2.3945-2.3945-2.3945zm-63.012 43.062v-82.348c0-0.42969 0.34766-0.78125 0.77734-0.78125h7.6758c0.43359 0 0.78125 0.35156 0.78125 0.78125v73.891h89.012c0.42969 0 0.77734 0.34766 0.77734 0.77734v7.6797c0 0.42969-0.34766 0.77734-0.77734 0.77734h-97.469c-0.42969 0-0.77734-0.34766-0.77734-0.77734zm1.5586-0.78125h95.906v-6.1172h-89.012c-0.42969 0-0.77734-0.34766-0.77734-0.78125v-73.887h-6.1172zm70.332-32.438c-0.24609 0.35547-0.73047 0.44141-1.0859 0.19922-0.35156-0.24609-0.44141-0.73047-0.19922-1.0859l2.8711-4.168c0.24609-0.35547 0.73047-0.44141 1.0859-0.19922 0.35547 0.24609 0.44531 0.73047 0.19922 1.0859zm4.7852-6.9492c-0.24219 0.35547-0.73047 0.44531-1.082 0.19922-0.35547-0.24219-0.44531-0.73047-0.19922-1.082l2.8711-4.168c0.24219-0.35547 0.73047-0.44531 1.082-0.20312 0.35547 0.24609 0.44531 0.73047 0.19922 1.0859zm4.7891-6.9453c-0.24609 0.35156-0.73047 0.44141-1.0859 0.19922-0.35547-0.24609-0.44531-0.73047-0.19922-1.0859l2.8711-4.168c0.24609-0.35547 0.73047-0.44531 1.0859-0.19922 0.35156 0.24219 0.44141 0.73047 0.19922 1.082zm4.7852-6.9492c-0.24609 0.35547-0.73047 0.44531-1.0859 0.19922-0.35156-0.24219-0.44141-0.73047-0.19922-1.082l2.8711-4.1719c0.24609-0.35156 0.73047-0.44141 1.0859-0.19922 0.35547 0.24609 0.44531 0.73047 0.19922 1.0859zm4.7852-6.9492c-0.24219 0.35547-0.73047 0.44531-1.082 0.20312-0.35547-0.24609-0.44531-0.73047-0.20312-1.0859l2.875-4.168c0.24219-0.35547 0.73047-0.44531 1.082-0.19922 0.35547 0.24219 0.44531 0.73047 0.19922 1.082zm4.7891-6.9453c-0.24609 0.35547-0.73047 0.44531-1.0859 0.19922-0.35547-0.24219-0.44531-0.73047-0.19922-1.0859l1.4336-2.082c0.24609-0.35547 0.73047-0.44531 1.0859-0.19922 0.35547 0.24219 0.44531 0.73047 0.19922 1.082z" fill-rule="evenodd"/>
<text x="0.0" y="117.5" font-size="5.0" font-weight="bold" font-family="Arbeit Regular, Helvetica, Arial-Unicode, Arial, Sans-serif" fill="#000000">Created by Jagat Kreasi</text><text x="0.0" y="122.5" font-size="5.0" font-weight="bold" font-family="Arbeit Regular, Helvetica, Arial-Unicode, Arial, Sans-serif" fill="#000000">from Noun Project</text></svg>