<svg xmlns="http://www.w3.org/2000/svg" version="1.1" viewBox="-5.0 -10.0 110.0 135.0">
 <path d="m64.242 67.367c-0.80078 0-1.6016-0.30469-2.2109-0.91406-1.2188-1.2188-1.2188-3.1992 0-4.418 6.6328-6.6328 6.6328-17.43 0-24.066-1.2188-1.2188-1.2188-3.1992 0-4.418s3.1992-1.2188 4.418 0c9.0703 9.0703 9.0703 23.832 0 32.906-0.60938 0.60938-1.4102 0.91406-2.2109 0.91406z"/>
 <path d="m72.672 75.797c-0.80078 0-1.6016-0.30469-2.2109-0.91406-1.2188-1.2188-1.2188-3.1992 0-4.418 11.281-11.281 11.281-29.641 0-40.922-1.2188-1.2188-1.2188-3.1992 0-4.418s3.1992-1.2188 4.418 0c13.719 13.719 13.719 36.043 0 49.762-0.60938 0.60938-1.4102 0.91406-2.2109 0.91406z"/>
 <path d="m50 60.824c-5.9688 0-10.824-4.8555-10.824-10.824s4.8555-10.824 10.824-10.824 10.824 4.8555 10.824 10.824-4.8555 10.824-10.824 10.824zm0-15.398c-2.5234 0-4.5742 2.0508-4.5742 4.5742s2.0508 4.5742 4.5742 4.5742 4.5742-2.0508 4.5742-4.5742-2.0508-4.5742-4.5742-4.5742z"/>
 <path d="m80.938 84.062c-0.80078 0-1.6016-0.30469-2.2109-0.91406-1.2188-1.2188-1.2188-3.1992 0-4.418 7.6719-7.6719 11.898-17.875 11.898-28.727 0-10.852-4.2266-21.055-11.898-28.727-1.2188-1.2188-1.2188-3.1992 0-4.418s3.1992-1.2188 4.418 0c8.8555 8.8516 13.73 20.625 13.73 33.145 0 12.523-4.875 24.293-13.73 33.145-0.60938 0.60937-1.4102 0.91406-2.2109 0.91406z"/>
 <path d="m35.758 67.367c-0.80078 0-1.6016-0.30469-2.2109-0.91406-9.0703-9.0703-9.0703-23.832 0-32.906 1.2188-1.2188 3.1992-1.2188 4.418 0s1.2188 3.1992 0 4.418c-6.6328 6.6328-6.6328 17.43 0 24.066 1.2188 1.2188 1.2188 3.1992 0 4.418-0.60938 0.60938-1.4102 0.91406-2.2109 0.91406z"/>
 <path d="m27.328 75.797c-0.80078 0-1.6016-0.30469-2.2109-0.91406-13.719-13.719-13.719-36.043 0-49.762 1.2188-1.2188 3.1992-1.2188 4.418 0s1.2188 3.1992 0 4.418c-11.281 11.281-11.281 29.641 0 40.922 1.2188 1.2188 1.2188 3.1992 0 4.418-0.60938 0.60938-1.4102 0.91406-2.2109 0.91406z"/>
 <path d="m19.062 84.062c-0.80078 0-1.5977-0.30469-2.2109-0.91406-8.8555-8.8516-13.73-20.625-13.73-33.145 0-12.523 4.875-24.293 13.73-33.145 1.2188-1.2188 3.1992-1.2188 4.418 0s1.2188 3.1992 0 4.418c-7.6719 7.6719-11.898 17.875-11.898 28.727 0 10.852 4.2266 21.055 11.898 28.727 1.2188 1.2188 1.2188 3.1992 0 4.418-0.60938 0.60937-1.4102 0.91406-2.2109 0.91406z"/>
<text x="0.0" y="117.5" font-size="5.0" font-weight="bold" font-family="Arbeit Regular, Helvetica, Arial-Unicode, Arial, Sans-serif" fill="#000000">Created by pictranoosa</text><text x="0.0" y="122.5" font-size="5.0" font-weight="bold" font-family="Arbeit Regular, Helvetica, Arial-Unicode, Arial, Sans-serif" fill="#000000">from Noun Project</text></svg>