<svg xmlns="http://www.w3.org/2000/svg" version="1.1" viewBox="-5.0 -10.0 110.0 135.0">
 <path d="m86.828 41.066c1.2383-1.2539 1.668-3.0703 1.125-4.7422-0.54297-1.6758-1.9609-2.8906-3.6992-3.1758l-19.605-3.2227c-0.58203-0.09375-1.0898-0.46484-1.3594-0.98828l-9.125-17.648c-0.80859-1.5625-2.4023-2.5352-4.1641-2.5352s-3.3555 0.97266-4.1641 2.5352l-9.125 17.648c-0.26953 0.52344-0.78125 0.89453-1.3594 0.98828l-19.605 3.2227c-1.7383 0.28516-3.1523 1.5039-3.6953 3.1758-0.54297 1.6758-0.11328 3.4922 1.125 4.7422l13.965 14.133c0.41406 0.42188 0.60938 1.0195 0.51953 1.6016l-2.9922 19.641c-0.26562 1.7383 0.45312 3.4648 1.8789 4.5 0.82031 0.59375 1.7812 0.89844 2.7539 0.89844 0.71875 0 1.4375-0.16406 2.1055-0.50391l17.758-8.9141c0.52734-0.26562 1.1562-0.26562 1.6836 0l17.758 8.9141c1.5742 0.78906 3.4375 0.63672 4.8594-0.39453 1.4258-1.0352 2.1445-2.7578 1.8789-4.4961l-2.9922-19.645c-0.089843-0.58203 0.10547-1.1797 0.51953-1.5977l13.965-14.133zm-18.191 16.297 2.9922 19.645c0.078125 0.50781-0.23438 0.79688-0.375 0.89844-0.13672 0.10156-0.50781 0.3125-0.97266 0.078125l-17.758-8.9141c-1.5781-0.79687-3.4688-0.79687-5.0469 0l-17.758 8.9141c-0.46484 0.23047-0.83594 0.019531-0.97266-0.078125-0.14062-0.10156-0.45312-0.39062-0.375-0.89844l2.9922-19.641c0.26562-1.75-0.31641-3.543-1.5586-4.8008l-13.965-14.133c-0.36328-0.36719-0.27734-0.78516-0.22656-0.94922 0.054688-0.16406 0.23047-0.55078 0.73828-0.63672l19.605-3.2227c1.7461-0.28516 3.2734-1.3945 4.0859-2.9648l9.125-17.652c0.23828-0.45703 0.66016-0.50781 0.83203-0.50781s0.59766 0.050781 0.83203 0.50781l9.125 17.648c0.8125 1.5703 2.3398 2.6797 4.0859 2.9648l19.605 3.2227c0.50781 0.082031 0.6875 0.47266 0.73828 0.63672 0.054687 0.16406 0.13672 0.58203-0.22656 0.94922l-13.965 14.133c-1.2422 1.2578-1.8242 3.0508-1.5586 4.8008z"/>
 <path d="m50 91.25c-1.0352 0-1.875-0.83984-1.875-1.875v-3.75c0-1.0352 0.83984-1.875 1.875-1.875s1.875 0.83984 1.875 1.875v3.75c0 1.0352-0.83984 1.875-1.875 1.875z"/>
 <path d="m83.438 59.461c0.32031-0.98438 1.3789-1.5234 2.3633-1.2031l3.5664 1.1602c0.98437 0.32031 1.5234 1.3789 1.2031 2.3633-0.32031 0.98438-1.3789 1.5234-2.3633 1.2031l-3.5664-1.1602c-0.98438-0.32031-1.5234-1.3789-1.2031-2.3633z"/>
 <path d="m16.562 59.461c-0.32031-0.98438-1.3789-1.5234-2.3633-1.2031l-3.5664 1.1602c-0.98437 0.32031-1.5234 1.3789-1.2031 2.3633 0.32031 0.98438 1.3789 1.5234 2.3633 1.2031l3.5664-1.1602c0.98438-0.32031 1.5234-1.3789 1.2031-2.3633z"/>
 <path d="m75.074 14.086c-0.83984-0.60938-2.0117-0.42188-2.6172 0.41406l-2.2031 3.0352c-0.60938 0.83984-0.42188 2.0117 0.41406 2.6172 0.83984 0.60938 2.0117 0.42188 2.6172-0.41406l2.2031-3.0352c0.60938-0.83984 0.42188-2.0117-0.41406-2.6172z"/>
 <path d="m24.926 14.086c0.83984-0.60938 2.0117-0.42188 2.6172 0.41406l2.2031 3.0352c0.60938 0.83984 0.42188 2.0117-0.41406 2.6172-0.83984 0.60938-2.0117 0.42188-2.6172-0.41406l-2.2031-3.0352c-0.60938-0.83984-0.42188-2.0117 0.41406-2.6172z"/>
<text x="0.0" y="117.5" font-size="5.0" font-weight="bold" font-family="Arbeit Regular, Helvetica, Arial-Unicode, Arial, Sans-serif" fill="#000000">Created by Hilmy Abiyyu Asad</text><text x="0.0" y="122.5" font-size="5.0" font-weight="bold" font-family="Arbeit Regular, Helvetica, Arial-Unicode, Arial, Sans-serif" fill="#000000">from Noun Project</text></svg>