<svg xmlns="http://www.w3.org/2000/svg" version="1.1" viewBox="-5.0 -10.0 110.0 135.0">
 <path d="m81.926 47.965h-0.46875c0.007813-0.1875 0.011719-0.37109 0.011719-0.55859 0-8.0195-6.5234-14.543-14.547-14.543-1.3516 0-2.6797 0.17969-3.9609 0.54297-4.1875-7.1328-11.793-11.516-20.145-11.516-12.398 0-22.578 9.6953-23.344 21.973-4.3242 0.16016-8.375 1.9258-11.461 5.0117-3.2305 3.2305-5.0117 7.5312-5.0117 12.105 0 9.4453 7.6836 17.133 17.133 17.133h61.797c4.0195 0 7.8086-1.5703 10.664-4.4258 2.8398-2.8477 4.4062-6.6289 4.4062-10.648 0-8.3125-6.7617-15.074-15.074-15.074zm8.543 23.598c-2.2891 2.2891-5.3203 3.5469-8.5391 3.5469h-61.797c-7.793 0-14.133-6.3359-14.133-14.129 0-3.7734 1.4688-7.3203 4.1328-9.9844 2.6758-2.6719 6.2266-4.1484 10-4.1484h0.80078c0.82812 0 1.5-0.75781 1.5-1.5859 0-11.234 9.1484-20.375 20.391-20.375 7.6562 0 14.59 4.2227 18.098 11.02 0.35156 0.67969 1.1562 0.98438 1.8672 0.71094 1.3164-0.50391 2.707-0.75781 4.1367-0.75781 6.3672 0 11.547 5.1797 11.547 11.543 0 0.61328-0.050781 1.2227-0.14844 1.8047-0.074219 0.4375 0.046875 0.88281 0.33203 1.2188 0.28516 0.33594 0.70312 0.53125 1.1484 0.53125h2.1289c6.6523 0.007813 12.066 5.4219 12.066 12.082 0 3.2188-1.2539 6.2461-3.5312 8.5234z"/>
<text x="0.0" y="117.5" font-size="5.0" font-weight="bold" font-family="Arbeit Regular, Helvetica, Arial-Unicode, Arial, Sans-serif" fill="#000000">Created by Afrison</text><text x="0.0" y="122.5" font-size="5.0" font-weight="bold" font-family="Arbeit Regular, Helvetica, Arial-Unicode, Arial, Sans-serif" fill="#000000">from Noun Project</text></svg>