<svg xmlns="http://www.w3.org/2000/svg" version="1.1" viewBox="-5.0 -10.0 110.0 135.0">
 <path d="m50 16c-14.023 0-28.047 5.3359-38.719 16.008-1.7539 1.7578-1.7539 4.6016 0 6.3555 0.84375 0.84375 1.9844 1.3203 3.1797 1.3203 1.1914 0 2.3359-0.47656 3.1758-1.3203 17.91-17.91 46.812-17.91 64.727 0 1.7539 1.7578 4.6016 1.7578 6.3555 0 1.7539-1.7539 1.7539-4.5977 0-6.3555-10.672-10.672-24.695-16.008-38.719-16.008zm0 17.852c-9.9102 0-19.816 3.7656-27.352 11.301-1.7578 1.7539-1.7578 4.5977 0 6.3555 0.84375 0.84375 1.9844 1.3164 3.1758 1.3164 1.1953 0 2.3359-0.47266 3.1797-1.3164 11.633-11.633 30.359-11.633 41.992 0 1.7539 1.7539 4.6016 1.7539 6.3555 0 1.7578-1.7578 1.7578-4.6016 0-6.3555-7.5312-7.5352-17.441-11.301-27.352-11.301zm0 17.457c-5.6797 0-11.363 2.1523-15.672 6.4648v-0.003907c-0.84375 0.83984-1.3164 1.9844-1.3164 3.1758 0 1.1914 0.47266 2.3359 1.3164 3.1797s1.9883 1.3164 3.1797 1.3164c1.1914 0 2.3359-0.47266 3.1797-1.3164 5.1836-5.1836 13.445-5.1836 18.629 0 1.7539 1.7539 4.6016 1.7539 6.3555 0 0.84375-0.84375 1.3164-1.9883 1.3164-3.1797 0-1.1914-0.47266-2.3359-1.3164-3.1758-4.3086-4.3086-9.9883-6.4648-15.672-6.4648zm0 17.438v-0.003906c-4.2109 0-7.625 3.418-7.625 7.6289 0 4.2148 3.4141 7.6289 7.625 7.6289 2.0234 0 3.9648-0.80469 5.3945-2.2344 1.4297-1.4297 2.2344-3.3711 2.2344-5.3945 0-2.0234-0.80469-3.9609-2.2344-5.3945-1.4297-1.4297-3.3711-2.2344-5.3945-2.2344z"/>
<text x="0.0" y="117.5" font-size="5.0" font-weight="bold" font-family="Arbeit Regular, Helvetica, Arial-Unicode, Arial, Sans-serif" fill="#000000">Created by Salman Azzumardi</text><text x="0.0" y="122.5" font-size="5.0" font-weight="bold" font-family="Arbeit Regular, Helvetica, Arial-Unicode, Arial, Sans-serif" fill="#000000">from Noun Project</text></svg>