<svg xmlns="http://www.w3.org/2000/svg" xmlns:xlink="http://www.w3.org/1999/xlink" version="1.1" x="0px" y="0px" viewBox="0 0 100 125" style="enable-background:new 0 0 100 100;" xml:space="preserve"><path d="M33.4853783,67.294693h33.5815544V33.7131386H33.4853783V67.294693z M35.9425621,36.1703262h28.6671791v28.6671753  H35.9425621V36.1703262z M42.2903976,60.981205c0,1.1308594-0.916748,2.0476532-2.047657,2.0476532  s-2.047657-0.9167938-2.047657-2.0476532c0-1.1309128,0.916748-2.047657,2.047657-2.047657  S42.2903976,59.8502922,42.2903976,60.981205z M59.1323624,46.3404655H41.4201431v-5.6310539h17.7122192V46.3404655z   M55.8561134,50.2822037H41.4201431V48.185955h14.4359703V50.2822037z M59.1553612,49.1559906  c0,0.5513077-0.4469261,0.9982338-0.9982338,0.9982338s-0.99823-0.4469261-0.99823-0.9982338s0.4469223-0.99823,0.99823-0.99823  S59.1553612,48.6046829,59.1553612,49.1559906z M59.1553612,54.223938h-17.735218v-2.0962448h17.735218V54.223938z   M90.762146,62.371521c-1.5995789,0-2.9505539,1.0302238-3.4593658,2.4571838h-2.9659576l-2.5939636-3.0034943H73.345871v-5.2555161  h5.0580063c0.508812,1.42696,1.859787,2.4571877,3.4593658,2.4571877c2.0324554,0,3.6857758-1.6533203,3.6857758-3.6857796  s-1.6533203-3.6857796-3.6857758-3.6857796c-1.5995789,0-2.9505539,1.0302238-3.4593658,2.4571838H73.345871v-5.9381981h10.4230499  l3.0720825,1.0843163c-0.0019455,0.0489426-0.014595,0.094883-0.014595,0.1442757  c0,2.0324593,1.6533203,3.6857796,3.6857758,3.6857796c2.0324631,0,3.6857834-1.6533203,3.6857834-3.6857796  s-1.6533203-3.6857796-3.6857834-3.6857796c-1.0996094,0-2.077095,0.4937668-2.7529373,1.2598877l-3.5695953-1.2598877H73.345871  v-4.70961h8.5813599l2.9399567-1.7439575c0.5589066,0.3417435,1.2086945,0.5493584,1.9104309,0.5493584  c2.0324554,0,3.6857758-1.6533203,3.6857758-3.6857796s-1.6533203-3.6857796-3.6857758-3.6857796  c-2.0324631,0-3.6857834,1.6533203-3.6857834,3.6857796c0,0.423481,0.0864334,0.8239632,0.2184601,1.2029991l-2.0573502,1.2201958  h-7.907074v-5.4970779l-6.5748901-6.574894h-3.526207v-6.5365009l3.0030975-2.5935631V13.257329  c1.4269562-0.5088148,2.4571838-1.859787,2.4571838-3.4593687c0-2.0324578-1.6533203-3.68578-3.6857834-3.68578  c-2.0324554,0-3.6857796,1.6533222-3.6857796,3.68578c0,1.5995817,1.0302277,2.9505539,2.4571877,3.4593687v2.9663515  l-3.0030937,2.5935631v7.6611118h-5.2555161v-4.3217239c1.42696-0.5088139,2.4571877-1.859787,2.4571877-3.4593678  c0-2.0324574-1.6533241-3.6857796-3.6857834-3.6857796c-2.0324554,0-3.6857796,1.6533222-3.6857796,3.6857796  c0,1.5995808,1.0302277,2.9505539,2.4571877,3.4593678v4.3217239h-5.9382019V16.791584l1.0843201-3.0720825  c0.0489388,0.0019493,0.094883,0.0145969,0.1442757,0.0145969c2.0324554,0,3.6857796-1.6533213,3.6857796-3.6857796  s-1.6533241-3.6857805-3.6857796-3.6857805c-2.0324593,0-3.6857834,1.6533222-3.6857834,3.6857805  c0,1.0996151,0.4937706,2.0771008,1.2598915,2.7529364l-1.2598915,3.5696001v10.1075001h-4.7096062v-7.84548l-1.7440071-2.9395065  c0.3417435-0.5589056,0.549408-1.2087469,0.549408-1.9104786c0-2.0324583-1.6533203-3.6857796-3.6857796-3.6857796  s-3.6857815,1.6533213-3.6857815,3.6857796s1.6533222,3.6857796,3.6857815,3.6857796  c0.423378,0,0.8238106-0.0863838,1.2027969-0.2183628l1.2203941,2.0568542v7.1711941h-4.28368l-6.574894,6.574894v2.9123116  h-7.272377l-2.5935631-3.0030975h-4.0909624c-0.5088139-1.4269581-1.859787-2.4571857-3.4593678-2.4571857  c-2.0324583,0-3.6857805,1.6533222-3.6857805,3.6857815s1.6533222,3.6857796,3.6857805,3.6857796  c1.5995808,0,2.9505539-1.0302277,3.4593678-2.4571877h2.9663515l2.5935631,3.0030975h8.3969879v5.2559128h-5.0575981  c-0.5088158-1.42696-1.859787-2.4571838-3.4593697-2.4571838c-2.0324574,0-3.6857796,1.6533203-3.6857796,3.6857796  s1.6533222,3.6857796,3.6857796,3.6857796c1.5995827,0,2.9505539-1.0302277,3.4593697-2.4571877h5.0575981v5.9382019H16.2314777  l-3.0720825-1.0843163c0.0019493-0.0489426,0.0145979-0.0948868,0.0145979-0.1442757  c0-2.0324593-1.6533222-3.6857796-3.6857805-3.6857796s-3.68578,1.6533203-3.68578,3.6857796  c0,2.0324554,1.6533217,3.6857796,3.68578,3.6857796c1.0996151,0,2.0771008-0.4937668,2.7529373-1.2598877l3.5695992,1.2598877  h10.8433762v4.7096062h-8.581356l-2.9392557,1.7437096c-0.5590057-0.3418427-1.2088966-0.549511-1.9107285-0.549511  c-2.0324583,0-3.6857805,1.6533241-3.6857805,3.6857834c0,2.0324554,1.6533222,3.6857758,3.6857805,3.6857758  s3.6857805-1.6533203,3.6857805-3.6857758c0-0.4233818-0.0863857-0.823761-0.2183647-1.2027473l2.0568542-1.220047h7.9070702  v5.5290718l5.9430008,5.9430008h4.5004425v6.8880386l-3.0034943,2.5935669v4.0909576  c-1.42696,0.5088196-2.4571857,1.859787-2.4571857,3.4593735c0,2.0324554,1.6533222,3.6857758,3.6857815,3.6857758  c2.0324554,0,3.6857796-1.6533203,3.6857796-3.6857758c0-1.5995865-1.0302277-2.9505539-2.4571877-3.4593735v-2.9663467  l3.0034943-2.5935669V73.170105h5.2555161v4.6732635c-1.42696,0.508812-2.4571877,1.859787-2.4571877,3.4593658  c0,2.0324631,1.6533241,3.6857834,3.6857834,3.6857834c2.0324554,0,3.6857796-1.6533203,3.6857796-3.6857834  c0-1.5995789-1.0302277-2.9505539-2.4571877-3.4593658V73.170105h5.9382019v10.0383072l-1.0843201,3.0720901  c-0.0489388-0.0019531-0.094883-0.0146027-0.1442757-0.0146027c-2.0324554,0-3.6857796,1.6533203-3.6857796,3.6857834  c0,2.0324554,1.6533241,3.6857758,3.6857796,3.6857758c2.0324593,0,3.6857834-1.6533203,3.6857834-3.6857758  c0-1.099617-0.4937668-2.0771027-1.2598915-2.7529373l1.2598915-3.569603V73.170105h4.7096062v8.1970215l1.7439575,2.9396057  c-0.3416939,0.5589066-0.5493584,1.2086487-0.5493584,1.9103775c0,2.0324554,1.6533203,3.6857834,3.6857834,3.6857834  c2.0324554,0,3.6857758-1.6533279,3.6857758-3.6857834s-1.6533203-3.6857834-3.6857758-3.6857834  c-0.4235306,0-0.8240662,0.086441-1.2031021,0.2184677l-1.2200928-2.0569534V73.170105h4.5732269l5.9430008-5.9430008v-2.9447098  h7.272377l2.5939636,3.0035019h4.0905685c0.508812,1.4269562,1.859787,2.4571838,3.4593658,2.4571838  c2.0324554,0,3.6857758-1.6533203,3.6857758-3.6857834C94.4479218,64.0248413,92.7946014,62.371521,90.762146,62.371521z   M81.8632431,54.1125069c0.6774826,0,1.2285919,0.5511093,1.2285919,1.2285957s-0.5511093,1.2285919-1.2285919,1.2285919  c-0.6774902,0-1.2285919-0.5511055-1.2285919-1.2285919S81.1857529,54.1125069,81.8632431,54.1125069z M90.5121841,48.1743088  c0.6774902,0,1.2285995,0.5511055,1.2285995,1.2285919s-0.5511093,1.2285919-1.2285995,1.2285919  c-0.6774826,0-1.2285919-0.5511055-1.2285919-1.2285919S89.8347015,48.1743088,90.5121841,48.1743088z M86.7776184,34.8985405  c0.6774826,0,1.2285919,0.5511055,1.2285919,1.2285919s-0.5511093,1.2285957-1.2285919,1.2285957  c-0.6774902,0-1.2285995-0.5511093-1.2285995-1.2285957S86.1001282,34.8985405,86.7776184,34.8985405z M65.0192719,8.5693674  c0.6774902,0,1.2285995,0.5511074,1.2285995,1.2285929c0,0.6774864-0.5511093,1.2285938-1.2285995,1.2285938  c-0.6774826,0-1.2285919-0.5511074-1.2285919-1.2285938C63.7906799,9.1204748,64.3417892,8.5693674,65.0192719,8.5693674z   M48.3652763,8.819725c0.6774864,0,1.2285919,0.5511074,1.2285919,1.2285938c0,0.6774855-0.5511055,1.2285929-1.2285919,1.2285929  s-1.2285957-0.5511074-1.2285957-1.2285929C47.1366806,9.3708324,47.6877899,8.819725,48.3652763,8.819725z M35.0895081,15.0114841  c-0.6774864,0-1.2285957-0.5511074-1.2285957-1.2285938c0-0.6774855,0.5511093-1.2285929,1.2285957-1.2285929  S36.3181,13.1054049,36.3181,13.7828903C36.3181,14.4603767,35.7669945,15.0114841,35.0895081,15.0114841z M9.237855,35.419651  c-0.6774864,0-1.2285938-0.5511055-1.2285938-1.2285919s0.5511074-1.2285957,1.2285938-1.2285957  c0.6774855,0,1.2285929,0.5511093,1.2285929,1.2285957S9.9153404,35.419651,9.237855,35.419651z M18.1371574,46.135849  c-0.6774845,0-1.2285919-0.5511055-1.2285919-1.2285919s0.5511074-1.2285957,1.2285919-1.2285957  c0.6774864,0,1.2285938,0.5511093,1.2285938,1.2285957S18.8146439,46.135849,18.1371574,46.135849z M9.4882126,52.0740509  c-0.6774864,0-1.2285929-0.5511055-1.2285929-1.2285919s0.5511065-1.2285957,1.2285929-1.2285957  s1.2285938,0.5511093,1.2285938,1.2285957S10.165699,52.0740509,9.4882126,52.0740509z M13.222785,65.3494186  c-0.6774864,0-1.2285938-0.5511093-1.2285938-1.2285919c0-0.6774864,0.5511074-1.2285957,1.2285938-1.2285957  c0.6774855,0,1.2285929,0.5511093,1.2285929,1.2285957C14.4513779,64.7983093,13.9002705,65.3494186,13.222785,65.3494186z   M35.32267,91.4306335c-0.6774864,0-1.2285957-0.5511093-1.2285957-1.2285919c0-0.6774902,0.5511093-1.2285919,1.2285957-1.2285919  c0.6774826,0,1.2285919,0.5511017,1.2285919,1.2285919C36.5512619,90.8795242,36.0001526,91.4306335,35.32267,91.4306335z   M51.977066,91.180275c-0.6774864,0-1.2285919-0.5511093-1.2285919-1.2285919c0-0.6774902,0.5511055-1.2285919,1.2285919-1.2285919  s1.2285957,0.5511017,1.2285957,1.2285919C53.2056618,90.6291656,52.6545525,91.180275,51.977066,91.180275z M65.2528381,84.9885178  c0.6774826,0,1.2285919,0.5511093,1.2285919,1.2285919s-0.5511093,1.2285919-1.2285919,1.2285919  c-0.6774902,0-1.2285995-0.5511093-1.2285995-1.2285919S64.5753479,84.9885178,65.2528381,84.9885178z M54.3034744,17.4686699  c0.6774864,0,1.2285957,0.5511074,1.2285957,1.2285938s-0.5511093,1.2285938-1.2285957,1.2285938  c-0.6774826,0-1.2285919-0.5511074-1.2285919-1.2285938S53.6259918,17.4686699,54.3034744,17.4686699z M46.038868,82.5313263  c-0.6774864,0-1.2285957-0.5511017-1.2285957-1.2285919c0-0.6774826,0.5511093-1.2285919,1.2285957-1.2285919  c0.6774826,0,1.2285919,0.5511093,1.2285919,1.2285919C47.2674599,81.9802246,46.7163506,82.5313263,46.038868,82.5313263z   M70.8886871,66.209671l-4.5032425,4.5032425H33.6145554l-4.5032425-4.5032425V34.0706787l5.1351357-5.1351357h31.5070992  l5.1351395,5.1351357V66.209671z M90.762146,67.2858963c-0.6774902,0-1.2285919-0.5511093-1.2285919-1.2285995  c0-0.6774826,0.5511017-1.2285919,1.2285919-1.2285919c0.6774826,0,1.2285919,0.5511093,1.2285919,1.2285919  C91.9907379,66.734787,91.4396286,67.2858963,90.762146,67.2858963z M60.070507,56.0499344h2.4571877v6.9960213h-6.6716805  V60.588768h4.2144928V56.0499344z"/><text x="0" y="115" fill="#000000" font-size="5px" font-weight="bold" font-family="'Helvetica Neue', Helvetica, Arial-Unicode, Arial, Sans-serif">Created by Fath Yusuf Iskhaqy</text><text x="0" y="120" fill="#000000" font-size="5px" font-weight="bold" font-family="'Helvetica Neue', Helvetica, Arial-Unicode, Arial, Sans-serif">from the Noun Project</text></svg>