<svg xmlns="http://www.w3.org/2000/svg" xmlns:xlink="http://www.w3.org/1999/xlink" version="1.1" x="0px" y="0px" viewBox="0 0 5000 6250" style="enable-background:new 0 0 5000 5000;" xml:space="preserve"><path d="M4036,1851.1c-41.8-98.8-93.5-194.1-153.7-283.2c-59.6-88.3-128.1-171.3-203.5-246.7c-75.4-75.4-158.4-143.9-246.7-203.5  c-89.1-60.2-184.4-111.9-283.2-153.7C2943.3,877.1,2725,833,2500,833s-443.3,44.1-648.9,131c-98.8,41.8-194.1,93.5-283.2,153.7  c-88.3,59.6-171.3,128.1-246.7,203.5c-75.4,75.4-143.9,158.4-203.5,246.7c-60.2,89.1-111.9,184.4-153.7,283.2  c-85.7,202.6-129.7,417.6-131,639.2c0,0.4,0,0.8,0,1.2c0,0.3,0,0.6,0,0.9c0,2.5,0,5,0,7.6c0,225,44.1,443.3,131,648.9  c41.8,98.8,93.5,194.1,153.7,283.2c59.6,88.3,128.1,171.3,203.5,246.7s158.4,143.9,246.7,203.5c89.1,60.2,184.4,111.9,283.2,153.7  c205.5,86.9,423.9,131,648.9,131c225,0,443.3-44.1,648.9-131c98.8-41.8,194.1-93.5,283.2-153.7c88.3-59.6,171.3-128.1,246.7-203.5  s143.9-158.4,203.5-246.7c60.2-89.1,111.9-184.4,153.7-283.2c86.9-205.5,131-423.9,131-648.9C4167,2275,4122.9,2056.7,4036,1851.1z   M4022.7,3017.7H3660c-8.6,0-16.8,3.8-22.4,10.3l-190.7,223.2h-187.1c-13.8-72.9-78-128.2-154.9-128.2  c-86.9,0-157.7,70.7-157.7,157.7c0,86.9,70.7,157.7,157.7,157.7c76.9,0,141.1-55.3,154.9-128.2h200.6c8.6,0,16.8-3.8,22.4-10.3  l190.7-223.2h327.7C3769,3679.3,3183.6,4108.1,2500,4108.1c-714.7,0-1321.9-468.6-1530.7-1114.7h546l487.6,350.6  c-10.4,21.1-16.3,44.7-16.3,69.8c0,86.9,70.7,157.7,157.7,157.7s157.7-70.7,157.7-157.7c0-86.9-70.7-157.7-157.7-157.7  c-40.7,0-77.8,15.5-105.8,40.9L1542,2940c-5-3.6-11-5.5-17.2-5.5H951.5c-37.1-131.9-57.7-270.5-59.5-413.6h819.9  c13.8,72.9,78,128.2,154.9,128.2c86.9,0,157.7-70.7,157.7-157.7c0-86.9-70.7-157.7-157.7-157.7c-76.9,0-141.1,55.3-154.9,128.2  H892.3c3.3-143.3,25.5-282,64.1-413.7h574.8c5.9,0,11.7-1.8,16.5-5.1l456.4-309.9h444.5c13.8,72.9,78,128.2,154.9,128.2  c86.9,0,157.7-70.7,157.7-157.7c0-86.9-70.7-157.7-157.7-157.7c-76.9,0-141.1,55.3-154.9,128.2h-453.5c-5.9,0-11.7,1.8-16.5,5.1  l-456.4,309.9H974.9c213.9-637,816.7-1097.3,1525.1-1097.3c661,0,1230.2,400.9,1477.1,972.3h-739.7c-7.2,0-14.1,2.6-19.5,7.4  l-250.2,222c-27.4-23-62.8-36.9-101.3-36.9c-86.9,0-157.7,70.7-157.7,157.7s70.7,157.7,157.7,157.7c86.9,0,157.7-70.7,157.7-157.7  c0-27.2-6.9-52.8-19.1-75.1l243.6-216.1h752.6c55.9,145.1,91.4,300.2,102.9,461.9H3529c-7.6,0-14.9,2.9-20.3,8.2l-455.4,435.1  h-441.7c-13.8-72.9-78-128.2-154.9-128.2c-86.9,0-157.7,70.7-157.7,157.7s70.7,157.7,157.7,157.7c76.9,0,141.1-55.3,154.9-128.2  H3065c7.6,0,14.9-2.9,20.3-8.2l455.4-435.1h566.4c0.6,18.6,1,37.4,1,56.2C4108.1,2681,4078.1,2855.2,4022.7,3017.7z M3203.8,3280.6  c0,54.5-44.3,98.8-98.8,98.8s-98.8-44.3-98.8-98.8s44.3-98.8,98.8-98.8S3203.8,3226.1,3203.8,3280.6z M2144.3,3315.1  c54.5,0,98.8,44.3,98.8,98.8s-44.3,98.8-98.8,98.8s-98.8-44.3-98.8-98.8C2045.5,3359.4,2089.8,3315.1,2144.3,3315.1z M1768,2491.5  c0-54.5,44.3-98.8,98.8-98.8s98.8,44.3,98.8,98.8s-44.3,98.8-98.8,98.8S1768,2546,1768,2491.5z M2504.7,1703.9  c0-54.5,44.3-98.8,98.8-98.8s98.8,44.3,98.8,98.8s-44.3,98.8-98.8,98.8S2504.7,1758.4,2504.7,1703.9z M2965.1,2214.3  c0,54.5-44.3,98.8-98.8,98.8s-98.8-44.3-98.8-98.8s44.3-98.8,98.8-98.8S2965.1,2159.9,2965.1,2214.3z M2555.4,2857.7  c0,54.5-44.3,98.8-98.8,98.8s-98.8-44.3-98.8-98.8s44.3-98.8,98.8-98.8C2511.1,2758.9,2555.4,2803.2,2555.4,2857.7z"/><text x="0" y="5015" fill="#000000" font-size="5px" font-weight="bold" font-family="'Helvetica Neue', Helvetica, Arial-Unicode, Arial, Sans-serif">Created by bsd studio</text><text x="0" y="5020" fill="#000000" font-size="5px" font-weight="bold" font-family="'Helvetica Neue', Helvetica, Arial-Unicode, Arial, Sans-serif">from the Noun Project</text></svg>