<svg xmlns="http://www.w3.org/2000/svg" version="1.1" viewBox="-5.0 -10.0 110.0 135.0">
 <path d="m21.012 22.41c-0.39062-0.39062-0.39062-1.0195 0-1.4102 15.988-15.988 41.988-15.988 57.977 0 0.39062 0.39062 0.39062 1.0195 0 1.4102-0.19922 0.19922-0.44922 0.28906-0.71094 0.28906-0.26172 0-0.51172-0.10156-0.71094-0.28906-15.211-15.211-39.949-15.211-55.148 0-0.38672 0.39062-1.0195 0.39062-1.4062 0zm9.8984 8.4883c-0.39062 0.39062-0.39062 1.0195 0 1.4102s1.0195 0.39062 1.4102 0c4.7188-4.7188 11-7.3203 17.68-7.3203s12.961 2.6016 17.68 7.3203c0.19922 0.19922 0.44922 0.28906 0.71094 0.28906s0.51172-0.10156 0.71094-0.28906c0.39063-0.39062 0.39063-1.0195 0-1.4102-5.1016-5.1016-11.879-7.9102-19.09-7.9102-7.2109 0-14 2.8125-19.102 7.9102zm56.09 53.09c0 3.3086-2.6914 6-6 6-2.9688 0-5.4297-2.1719-5.9102-5h-8.9883c-1.7109 0-3.1016-1.3906-3.1016-3.1016v-14.898h-12v12.09c2.8281 0.48047 5 2.9414 5 5.9102 0 3.3086-2.6914 6-6 6s-6-2.6914-6-6c0-2.9688 2.1719-5.4297 5-5.9102v-12.09h-12v14.898c0 1.7109-1.3906 3.1016-3.1016 3.1016h-8.9883c-0.48047 2.8281-2.9414 5-5.9102 5-3.3086 0-6-2.6914-6-6 0-3.3086 2.6914-6 6-6 2.9688 0 5.4297 2.1719 5.9102 5h8.9883c0.60937 0 1.1016-0.48828 1.1016-1.1016v-14.898h-9c-0.55078 0-1-0.44922-1-1v-8.0898c0-3.8086 3.1016-6.9102 6.9102-6.9102h7.0898v-3c0-6.0703 4.9297-11 11-11s11 4.9297 11 11v3h7.0898c3.8086 0 6.9102 3.1016 6.9102 6.9102v8.0898c0 0.55078-0.44922 1-1 1h-9v14.898c0 0.60938 0.48828 1.1016 1.1016 1.1016h8.9883c0.48047-2.8281 2.9414-5 5.9102-5 3.3086 0 6 2.6914 6 6zm-64 0c0-2.2109-1.7891-4-4-4s-4 1.7891-4 4c0 2.2109 1.7891 4 4 4s4-1.7891 4-4zm27-3c-2.2109 0-4 1.7891-4 4 0 2.2109 1.7891 4 4 4s4-1.7891 4-4c0-2.207-1.7891-4-4-4zm-9-30h18v-3c0-4.9609-4.0391-9-9-9s-9 4.0391-9 9zm-14 14h46v-7.0898c0-2.7109-2.1992-4.9102-4.9102-4.9102h-36.18c-2.7109 0-4.9102 2.1992-4.9102 4.9102zm58 19c0-2.2109-1.7891-4-4-4s-4 1.7891-4 4c0 2.2109 1.7891 4 4 4s4-1.7891 4-4z"/>
<text x="0.0" y="117.5" font-size="5.0" font-weight="bold" font-family="Arbeit Regular, Helvetica, Arial-Unicode, Arial, Sans-serif" fill="#000000">Created by IconPai</text><text x="0.0" y="122.5" font-size="5.0" font-weight="bold" font-family="Arbeit Regular, Helvetica, Arial-Unicode, Arial, Sans-serif" fill="#000000">from Noun Project</text></svg>