<svg xmlns="http://www.w3.org/2000/svg" viewBox="0 0 100 125" x="0px" y="0px"><title>Artboard 13</title><g data-name="Cell, gsm, level, mobile, network, signal"><path d="M14,53a2,2,0,0,0-2,2V76.8a2,2,0,0,0,4,0V55A2,2,0,0,0,14,53Z"/><path d="M32,45.49a2,2,0,0,0-2,2V76.8a2,2,0,0,0,4,0V47.49A2,2,0,0,0,32,45.49Z"/><path d="M50,38.79a2,2,0,0,0-2,2v36a2,2,0,0,0,4,0v-36A2,2,0,0,0,50,38.79Z"/><path d="M68,29.58a2,2,0,0,0-2,2V76.8a2,2,0,1,0,4,0V31.58A2,2,0,0,0,68,29.58Z"/><path d="M86,21.2a2,2,0,0,0-2,2V76.8a2,2,0,1,0,4,0V23.2A2,2,0,0,0,86,21.2Z"/></g><text x="0" y="115" fill="#000000" font-size="5px" font-weight="bold" font-family="'Helvetica Neue', Helvetica, Arial-Unicode, Arial, Sans-serif">Created by Manglayang studio</text><text x="0" y="120" fill="#000000" font-size="5px" font-weight="bold" font-family="'Helvetica Neue', Helvetica, Arial-Unicode, Arial, Sans-serif">from the Noun Project</text></svg>