<svg xmlns="http://www.w3.org/2000/svg" xmlns:xlink="http://www.w3.org/1999/xlink" version="1.1" x="0px" y="0px" viewBox="0 0 60 75" enable-background="new 0 0 60 60" xml:space="preserve"><path d="M13.57,46.33c0.55,0,1-0.45,1-1V34.38c0-0.55-0.45-1-1-1H7c-0.55,0-1,0.45-1,1v10.95c0,0.55,0.45,1,1,1H13.57z M8,35.38  h4.57v8.95H8V35.38z"/><path d="M26.71,46.33c0.55,0,1-0.45,1-1V26.71c0-0.55-0.45-1-1-1h-6.57c-0.55,0-1,0.45-1,1v18.62c0,0.55,0.45,1,1,1H26.71z   M21.14,27.71h4.57v16.62h-4.57V27.71z"/><path d="M39.86,46.33c0.55,0,1-0.45,1-1V20.14c0-0.55-0.45-1-1-1h-6.57c-0.55,0-1,0.45-1,1v25.19c0,0.55,0.45,1,1,1H39.86z   M34.29,21.14h4.57v23.19h-4.57V21.14z"/><path d="M53,13.67h-6.57c-0.55,0-1,0.45-1,1v30.67c0,0.55,0.45,1,1,1H53c0.55,0,1-0.45,1-1V14.67C54,14.11,53.55,13.67,53,13.67z   M52,44.33h-4.57V15.67H52V44.33z"/><text x="0" y="75" fill="#000000" font-size="5px" font-weight="bold" font-family="'Helvetica Neue', Helvetica, Arial-Unicode, Arial, Sans-serif">Created by Vectorstall</text><text x="0" y="80" fill="#000000" font-size="5px" font-weight="bold" font-family="'Helvetica Neue', Helvetica, Arial-Unicode, Arial, Sans-serif">from the Noun Project</text></svg>