<svg xmlns="http://www.w3.org/2000/svg" version="1.1" viewBox="-5.0 -10.0 110.0 135.0">
 <g>
  <path d="m84.766 51.562h5.3359c0.65234 1.9297 2.4805 3.3203 4.625 3.3203 2.6914 0 4.8828-2.1914 4.8828-4.8828s-2.1914-4.8828-4.8828-4.8828c-2.1445 0-3.9727 1.3906-4.625 3.3203h-5.3359v-11.719h3.3828c0.65234 1.9297 2.4805 3.3203 4.625 3.3203 2.6914 0 4.8828-2.1914 4.8828-4.8828s-2.1914-4.8828-4.8828-4.8828c-2.1445 0-3.9727 1.3906-4.625 3.3203h-3.3828v-8.9844c0-5.168-4.207-9.375-9.375-9.375h-8.9844v-3.3828c1.9297-0.65234 3.3203-2.4805 3.3203-4.625 0-2.6914-2.1914-4.8828-4.8828-4.8828s-4.8828 2.1914-4.8828 4.8828c0 2.1445 1.3906 3.9727 3.3203 4.625v3.3828h-11.719v-5.3359c1.9297-0.65234 3.3203-2.4805 3.3203-4.625 0-2.6914-2.1914-4.8828-4.8828-4.8828s-4.8828 2.1914-4.8828 4.8828c0 2.1445 1.3906 3.9727 3.3203 4.625v5.3359h-11.719v-3.3828c1.9297-0.65234 3.3203-2.4805 3.3203-4.625 0-2.6914-2.1914-4.8828-4.8828-4.8828s-4.8828 2.1914-4.8828 4.8828c0 2.1445 1.3906 3.9727 3.3203 4.625v3.3828h-8.9844c-5.168 0-9.375 4.207-9.375 9.375v8.9844h-3.3828c-0.65234-1.9297-2.4805-3.3203-4.625-3.3203-2.6914 0-4.8828 2.1914-4.8828 4.8828s2.1914 4.8828 4.8828 4.8828c2.1445 0 3.9727-1.3906 4.625-3.3203h3.3828v11.719h-5.3359c-0.65234-1.9297-2.4805-3.3203-4.625-3.3203-2.6914 0-4.8828 2.1914-4.8828 4.8828s2.1914 4.8828 4.8828 4.8828c2.1445 0 3.9727-1.3906 4.625-3.3203h5.3359v11.719h-3.3828c-0.65234-1.9297-2.4805-3.3203-4.625-3.3203-2.6914 0-4.8828 2.1914-4.8828 4.8828s2.1914 4.8828 4.8828 4.8828c2.1445 0 3.9727-1.3906 4.625-3.3203h3.3828v8.9844c0 5.168 4.207 9.375 9.375 9.375h8.9844v3.3828c-1.9297 0.65234-3.3203 2.4805-3.3203 4.625 0 2.6914 2.1914 4.8828 4.8828 4.8828s4.8828-2.1914 4.8828-4.8828c0-2.1445-1.3906-3.9727-3.3203-4.625v-3.3828h11.719v5.3359c-1.9297 0.65234-3.3203 2.4805-3.3203 4.625 0 2.6914 2.1914 4.8828 4.8828 4.8828s4.8828-2.1914 4.8828-4.8828c0-2.1445-1.3906-3.9727-3.3203-4.625v-5.3359h11.719v3.3828c-1.9297 0.65234-3.3203 2.4805-3.3203 4.625 0 2.6914 2.1914 4.8828 4.8828 4.8828s4.8828-2.1914 4.8828-4.8828c0-2.1445-1.3906-3.9727-3.3203-4.625v-3.3828h8.9844c5.168 0 9.375-4.207 9.375-9.375v-8.9844h3.3828c0.65234 1.9297 2.4805 3.3203 4.625 3.3203 2.6914 0 4.8828-2.1914 4.8828-4.8828s-2.1914-4.8828-4.8828-4.8828c-2.1445 0-3.9727 1.3906-4.625 3.3203h-3.3828zm9.9609-3.3203c0.96875 0 1.7578 0.78906 1.7578 1.7578s-0.78906 1.7578-1.7578 1.7578-1.7578-0.78906-1.7578-1.7578 0.78906-1.7578 1.7578-1.7578zm-1.9531-14.844c0.96875 0 1.7578 0.78906 1.7578 1.7578s-0.78906 1.7578-1.7578 1.7578-1.7578-0.78906-1.7578-1.7578 0.78906-1.7578 1.7578-1.7578zm-27.93-27.93c0.96875 0 1.7578 0.78906 1.7578 1.7578s-0.78906 1.7578-1.7578 1.7578-1.7578-0.78906-1.7578-1.7578 0.78906-1.7578 1.7578-1.7578zm-14.844-1.9531c0.96875 0 1.7578 0.78906 1.7578 1.7578s-0.78906 1.7578-1.7578 1.7578-1.7578-0.78906-1.7578-1.7578 0.78906-1.7578 1.7578-1.7578zm-14.844 1.9531c0.96875 0 1.7578 0.78906 1.7578 1.7578s-0.78906 1.7578-1.7578 1.7578-1.7578-0.78906-1.7578-1.7578 0.78906-1.7578 1.7578-1.7578zm-27.93 31.445c-0.96875 0-1.7578-0.78906-1.7578-1.7578s0.78906-1.7578 1.7578-1.7578 1.7578 0.78906 1.7578 1.7578-0.78906 1.7578-1.7578 1.7578zm-1.9531 14.844c-0.96875 0-1.7578-0.78906-1.7578-1.7578s0.78906-1.7578 1.7578-1.7578 1.7578 0.78906 1.7578 1.7578-0.78906 1.7578-1.7578 1.7578zm1.9531 14.844c-0.96875 0-1.7578-0.78906-1.7578-1.7578s0.78906-1.7578 1.7578-1.7578 1.7578 0.78906 1.7578 1.7578-0.78906 1.7578-1.7578 1.7578zm27.93 27.93c-0.96875 0-1.7578-0.78906-1.7578-1.7578s0.78906-1.7578 1.7578-1.7578 1.7578 0.78906 1.7578 1.7578-0.78906 1.7578-1.7578 1.7578zm14.844 1.9531c-0.96875 0-1.7578-0.78906-1.7578-1.7578s0.78906-1.7578 1.7578-1.7578 1.7578 0.78906 1.7578 1.7578-0.78906 1.7578-1.7578 1.7578zm14.844-1.9531c-0.96875 0-1.7578-0.78906-1.7578-1.7578s0.78906-1.7578 1.7578-1.7578 1.7578 0.78906 1.7578 1.7578-0.78906 1.7578-1.7578 1.7578zm16.797-19.141c0 3.4453-2.8047 6.25-6.25 6.25h-50.781c-3.4453 0-6.25-2.8047-6.25-6.25v-50.781c0-3.4453 2.8047-6.25 6.25-6.25h50.781c3.4453 0 6.25 2.8047 6.25 6.25zm11.133-12.305c0.96875 0 1.7578 0.78906 1.7578 1.7578s-0.78906 1.7578-1.7578 1.7578-1.7578-0.78906-1.7578-1.7578 0.78906-1.7578 1.7578-1.7578z"/>
  <path d="m50 42.578c-4.0938 0-7.4219 3.3281-7.4219 7.4219s3.3281 7.4219 7.4219 7.4219 7.4219-3.3281 7.4219-7.4219-3.3281-7.4219-7.4219-7.4219zm0 11.719c-2.3711 0-4.2969-1.9258-4.2969-4.2969s1.9258-4.2969 4.2969-4.2969 4.2969 1.9258 4.2969 4.2969-1.9258 4.2969-4.2969 4.2969z"/>
  <path d="m76.371 38.645-3.3516-5.8047c-0.77344-1.3438-2.3867-1.9102-3.832-1.3516l-4.7383 1.8281c-2.1211-1.8359-4.5898-3.2617-7.2305-4.1797l-0.78516-5.0117c-0.23828-1.5312-1.5391-2.6406-3.0859-2.6406h-6.6992c-1.5508 0-2.8477 1.1094-3.0859 2.6406l-0.78516 5.0117c-2.6406 0.91406-5.1094 2.3438-7.2305 4.1797l-4.7383-1.8281c-1.4453-0.55859-3.0586 0.011719-3.832 1.3516l-3.3516 5.8047c-0.77344 1.3438-0.46094 3.0234 0.74609 3.9961l3.9531 3.1875c-0.26172 1.3711-0.39453 2.7734-0.39453 4.1758s0.13281 2.8008 0.39453 4.1758l-3.9531 3.1875c-1.207 0.97266-1.5195 2.6523-0.74609 3.9961l3.3516 5.8047c0.77344 1.3438 2.3867 1.9102 3.832 1.3516l4.7383-1.8281c2.1211 1.8359 4.5898 3.2617 7.2305 4.1797l0.78516 5.0117c0.23828 1.5312 1.5391 2.6406 3.0859 2.6406h6.6992c1.5508 0 2.8477-1.1094 3.0859-2.6406l0.78516-5.0156c2.6406-0.91406 5.1094-2.3438 7.2305-4.1797l4.7383 1.8281c1.4453 0.55859 3.0586-0.011719 3.832-1.3516l3.3516-5.8047c0.77344-1.3438 0.46094-3.0234-0.74609-3.9961l-3.9531-3.1875c0.26172-1.3711 0.39453-2.7734 0.39453-4.1758s-0.13281-2.8008-0.39453-4.1758l3.9531-3.1875c1.207-0.97266 1.5195-2.6523 0.74609-3.9961zm-7.4062 5.3516c-0.46875 0.37891-0.67969 0.99219-0.53906 1.5781 0.34375 1.4453 0.51953 2.9336 0.51953 4.4258s-0.17578 2.9805-0.51953 4.4258c-0.14062 0.58594 0.070313 1.2031 0.53906 1.5781l4.6992 3.7891-3.3516 5.8047-5.6367-2.1758c-0.5625-0.21875-1.1992-0.089844-1.6406 0.32422-2.1641 2.0547-4.8125 3.582-7.6562 4.4258-0.57812 0.17188-1.0078 0.66016-1.1016 1.2578l-0.93359 5.9648h-6.6992l-0.93359-5.9648c-0.09375-0.59766-0.52344-1.0859-1.1016-1.2578-2.8438-0.83984-5.4922-2.3711-7.6562-4.4258-0.29688-0.28125-0.68359-0.42969-1.0742-0.42969-0.1875 0-0.37891 0.035156-0.5625 0.10547l-5.6367 2.1758-3.3516-5.8047 4.6992-3.7891c0.46875-0.37891 0.67969-0.99219 0.53906-1.5781-0.34375-1.4453-0.51953-2.9336-0.51953-4.4258s0.17578-2.9805 0.51953-4.4258c0.14062-0.58594-0.070312-1.2031-0.53906-1.5781l-4.6992-3.7891 3.3516-5.8047 5.6367 2.1758c0.5625 0.21875 1.1992 0.089844 1.6367-0.32422 2.1641-2.0547 4.8125-3.582 7.6562-4.4258 0.57812-0.17188 1.0078-0.66016 1.1016-1.2578l0.93359-5.9648h6.6992l0.93359 5.9648c0.09375 0.59766 0.52344 1.0859 1.1016 1.2578 2.8438 0.83984 5.4922 2.3711 7.6562 4.4258 0.4375 0.41406 1.0742 0.54297 1.6406 0.32422l5.6367-2.1758 3.3516 5.8047z"/>
  <path d="m50 34.766c-8.3984 0-15.234 6.8359-15.234 15.234s6.8359 15.234 15.234 15.234 15.234-6.8359 15.234-15.234-6.8359-15.234-15.234-15.234zm0 27.344c-6.6758 0-12.109-5.4336-12.109-12.109s5.4336-12.109 12.109-12.109 12.109 5.4336 12.109 12.109-5.4336 12.109-12.109 12.109z"/>
 </g>
<text x="0.0" y="117.5" font-size="5.0" font-weight="bold" font-family="Arbeit Regular, Helvetica, Arial-Unicode, Arial, Sans-serif" fill="#000000">Created by Ghariza Mahavira</text><text x="0.0" y="122.5" font-size="5.0" font-weight="bold" font-family="Arbeit Regular, Helvetica, Arial-Unicode, Arial, Sans-serif" fill="#000000">from Noun Project</text></svg>