<svg xmlns="http://www.w3.org/2000/svg" version="1.1" viewBox="-5.0 -10.0 110.0 135.0">
 <path d="m79.059 44.941c0.58984 0.58984 0.58984 1.5391 0 2.1211-0.28906 0.28906-0.67969 0.44141-1.0586 0.44141s-0.76953-0.14844-1.0586-0.44141c-14.852-14.852-39.02-14.852-53.879 0-0.58984 0.58984-1.5391 0.58984-2.1211 0-0.58984-0.58984-0.58984-1.5391 0-2.1211 16.02-16.02 42.098-16.02 58.117 0zm-29.059 4.9297c-6.4414 0-12.5 2.5117-17.059 7.0703-0.58984 0.58984-0.58984 1.5391 0 2.1211 0.58984 0.58984 1.5391 0.58984 2.1211 0 8.2383-8.2383 21.641-8.2383 29.879 0 0.28906 0.28906 0.67969 0.44141 1.0586 0.44141s0.76953-0.14844 1.0586-0.44141c0.58984-0.58984 0.58984-1.5391 0-2.1211-4.5586-4.5625-10.617-7.0703-17.059-7.0703zm9.5 24.129c0 5.2383-4.2617 9.5-9.5 9.5s-9.5-4.2617-9.5-9.5 4.2617-9.5 9.5-9.5 9.5 4.2617 9.5 9.5zm-3 0c0-3.5781-2.9219-6.5-6.5-6.5s-6.5 2.9219-6.5 6.5 2.9219 6.5 6.5 6.5 6.5-2.9219 6.5-6.5zm34.559-41.059c-0.66797-0.67188-16.738-16.441-41.059-16.441s-40.391 15.77-41.059 16.441c-0.58984 0.58984-0.58984 1.5391 0 2.1211 0.28906 0.28906 0.67969 0.4375 1.0586 0.4375s0.76953-0.14844 1.0586-0.44141c0.16016-0.14844 15.852-15.559 38.941-15.559 23.039 0 38.781 15.41 38.941 15.559 0.58984 0.57812 1.5391 0.57812 2.1211 0 0.58594-0.58984 0.58594-1.5391-0.003906-2.1172z"/>
<text x="0.0" y="117.5" font-size="5.0" font-weight="bold" font-family="Arbeit Regular, Helvetica, Arial-Unicode, Arial, Sans-serif" fill="#000000">Created by Anamika singh</text><text x="0.0" y="122.5" font-size="5.0" font-weight="bold" font-family="Arbeit Regular, Helvetica, Arial-Unicode, Arial, Sans-serif" fill="#000000">from Noun Project</text></svg>