<svg xmlns="http://www.w3.org/2000/svg" version="1.1" viewBox="-5.0 -10.0 110.0 135.0">
 <path d="m20.562 46.031c0.15234-0.26562 0.40625-0.45703 0.70312-0.53516 0.29688-0.074219 0.61328-0.03125 0.875 0.12891s0.44922 0.41797 0.51953 0.71484c0.070313 0.29688 0.015625 0.61328-0.14844 0.87109-4.5117 7.4648-5.793 16.445-3.5508 24.875 2.2422 8.4336 7.8164 15.59 15.441 19.828 7.625 4.2344 16.645 5.1914 24.988 2.6406 8.3438-2.5469 15.293-8.3789 19.25-16.152 3.957-7.7734 4.582-16.824 1.7344-25.07-2.8516-8.2461-8.9336-14.977-16.844-18.648-1.9883 1.7969-4.2539 3.2578-6.7148 4.3164v1.3516c3.8398 1.457 7.1719 3.9961 9.5898 7.3125 2.4219 3.3164 3.8281 7.2617 4.0508 11.359h0.42188-0.003906c0.57031 0 1.1133 0.22656 1.5156 0.625 0.027344 0.03125 0.058594 0.0625 0.082031 0.097656h-0.003906c0.35156 0.38672 0.54688 0.89062 0.54688 1.4141v4.5664c0 0.56641-0.23047 1.1094-0.63281 1.5039v0.007812c-0.40234 0.40234-0.94531 0.625-1.5117 0.625h-1.1172c0.019532 0.11719 0.023438 0.23828 0.023438 0.35938v2.9766c0.003906 0.60938-0.1875 1.2031-0.54297 1.6953-0.35938 0.49219-0.86719 0.85547-1.4492 1.043l-0.37109 0.125c-0.64453 0.19141-1.1523 0.69141-1.3516 1.3359-0.12891 0.36719-0.26562 0.73828-0.41016 1.0859-0.14453 0.35156-0.30469 0.69922-0.48438 1.0508h0.003906c-0.15234 0.30078-0.23047 0.625-0.23438 0.96094 0.007812 0.32812 0.09375 0.65234 0.25 0.94531l0.17969 0.34766-0.003907 0.003907c0.57031 1.1133 0.35547 2.4648-0.53125 3.3477l-2.1055 2.0977c-0.88281 0.88672-2.2344 1.1016-3.3477 0.53516l-0.34375-0.17969c-0.59375-0.32422-1.3086-0.33203-1.9062-0.015625-0.35547 0.17969-0.70703 0.33984-1.0508 0.48438-0.34766 0.14453-0.72266 0.28516-1.0859 0.41016h-0.003907c-0.31641 0.097656-0.60547 0.27344-0.84375 0.50391-0.22656 0.23828-0.39844 0.52734-0.5 0.84375l-0.11719 0.37109c-0.37891 1.1914-1.4844 2-2.7383 2h-2.9766c-1.25 0-2.3594-0.80859-2.7383-2l-0.125-0.37109h0.003906c-0.19141-0.64844-0.69141-1.1523-1.3359-1.3516-0.36719-0.125-0.73828-0.26562-1.0859-0.41016-0.35156-0.14453-0.70703-0.30469-1.0508-0.48438h-0.003907c-0.59766-0.3125-1.3125-0.30859-1.9062 0.015625l-0.34766 0.17969c-1.1133 0.57031-2.4688 0.35156-3.3477-0.53516l-2.1055-2.0977c-0.42969-0.42969-0.71484-0.98828-0.80859-1.5898-0.097657-0.60156 0-1.2188 0.28125-1.7578l0.17969-0.34766-0.003906-0.003906c0.15234-0.29297 0.23828-0.61719 0.25-0.94531-0.003907-0.33594-0.085938-0.66406-0.23828-0.95703-0.17188-0.34766-0.33203-0.70703-0.48047-1.0508-0.14453-0.34766-0.28516-0.72266-0.41016-1.0859l0.003907-0.003907c-0.19922-0.64453-0.70703-1.1445-1.3516-1.3359l-0.37109-0.125c-1.1953-0.37891-2.0039-1.4844-2-2.7344v-2.9766c0-0.11719 0.011719-0.24219 0.023438-0.35938h-1.1289c-0.5625 0-1.1055-0.22656-1.5-0.625v-0.007812c-0.40234-0.39844-0.63281-0.9375-0.63281-1.5039v-4.5703c0.003907-0.5625 0.23047-1.1055 0.63281-1.5039v-0.007813c0.39844-0.39844 0.9375-0.625 1.5-0.625h0.42969c0.22266-4.0781 1.6172-8.0078 4.0195-11.312 2.4023-3.3047 5.707-5.8477 9.5195-7.3164-0.058594-0.015625-0.11719-0.027344-0.17188-0.039063-8.082-1.9062-14.641-7.7891-17.414-15.613-0.17578-0.45312-0.046875-0.96484 0.31641-1.2812 2.9453-2.8203 6.5469-4.8633 10.48-5.9375 0.64453-0.17969 1.3008-0.32812 1.9648-0.45312 0.042969-0.011718 0.085937-0.019531 0.12891-0.023437 5.7695-1.0391 11.719 0.027343 16.77 3-0.046874-0.80469-0.042968-1.6133 0.011719-2.418 0.43359-6.5625 4.1602-12.457 9.9062-15.656 0.21094-0.14453 0.46094-0.21094 0.71484-0.19141 0.23828 0.015625 0.46484 0.10938 0.65234 0.25781 2.5898 1.9453 4.6602 4.5 6.0195 7.4375 1.8516 4 2.2852 8.5078 1.2305 12.781-1.0547 4.2773-3.5352 8.0664-7.0312 10.746 8.3359 4.1211 14.645 11.438 17.5 20.285 2.8516 8.8477 2.0039 18.477-2.3516 26.688-4.3555 8.2109-11.848 14.312-20.773 16.918-8.9219 2.6016-18.52 1.4805-26.609-3.1055-8.0859-4.5859-13.973-12.25-16.32-21.242-2.3477-8.9961-0.95703-18.559 3.8555-26.512zm35.715-9.2734c0.98047-0.44531 1.9258-0.96484 2.832-1.5469 0.60156-0.38672 1.1836-0.80078 1.75-1.2422l-0.0625-0.054688-12.277-2.8984-8.7383 6.4648c0.66016 0.23047 1.3398 0.42969 2.0352 0.60156 0.21094-1.5469 1.5312-2.6992 3.0938-2.7031h8.7891c1.0391-0.003906 2.0117 0.51562 2.582 1.3789zm-14.488 6.043c-3.1406 1.3672-5.8516 3.5547-7.8516 6.3359-2.0859 2.8945-3.3008 6.3242-3.5039 9.8867h11.355zm2.2773 16.223h10.48v-20.527c-0.007813-0.46094-0.38281-0.83203-0.84375-0.83984h-8.7891c-0.46484 0-0.84375 0.375-0.84375 0.83984zm12.758 0h11.348c-0.20312-3.5625-1.4219-6.9922-3.5078-9.8867-1.9961-2.7812-4.707-4.9688-7.8477-6.3359zm12.527 2.2773h-41.492v4.2852h42.879v-4.2852zm-1.9531 6.5625h-8.2422c0.011719 0.046875 0.015625 0.089844 0.027344 0.14062 0.50391 2.9102-0.30859 5.8984-2.2109 8.1562-1.9062 2.2617-4.7109 3.5664-7.668 3.5664-2.957 0-5.7617-1.3047-7.6641-3.5664-1.9062-2.2578-2.7148-5.2461-2.2148-8.1562 0.011719-0.050781 0.015625-0.089844 0.027344-0.14062h-8.2461c-0.011719 0.015625-0.023437 0.035157-0.035156 0.050781-0.046875 0.097657-0.070313 0.20313-0.070313 0.30859v2.9766c-0.003906 0.12891 0.03125 0.25391 0.10547 0.35938 0.078125 0.10156 0.18359 0.17969 0.30859 0.21484l0.37109 0.125c0.65234 0.20703 1.2461 0.5625 1.7383 1.043 0.48438 0.48047 0.85156 1.0742 1.0625 1.7227 0.10547 0.31641 0.22656 0.63281 0.35547 0.94922 0.12891 0.31641 0.27344 0.625 0.42188 0.92188 0.625 1.2422 0.61719 2.707-0.023438 3.9453l-0.17578 0.34766c-0.13672 0.23047-0.089844 0.52344 0.11328 0.69922l2.1055 2.1055c0.17969 0.19531 0.46875 0.24219 0.69922 0.11328l0.34766-0.17578h0.003906c0.60547-0.31641 1.2812-0.48437 1.9688-0.48437 0.6875-0.003907 1.3633 0.15625 1.9766 0.46094 0.28906 0.14453 0.60156 0.28516 0.92188 0.41406 0.31641 0.12891 0.625 0.25391 0.94922 0.35937h-0.003906c1.3203 0.43359 2.3516 1.4805 2.7656 2.8047l0.125 0.37109c0.074219 0.25781 0.3125 0.42969 0.57422 0.41797h2.9766c0.12891 0.003907 0.25391-0.035156 0.35938-0.10547 0.10156-0.082032 0.17187-0.1875 0.21094-0.30859l0.11719-0.37109c0.21094-0.65234 0.56641-1.2461 1.0469-1.7383 0.48437-0.49219 1.0781-0.85938 1.7305-1.0742 0.31641-0.11328 0.63281-0.23047 0.94922-0.35938 0.31641-0.12891 0.625-0.26953 0.92188-0.41406 0.60938-0.30859 1.2852-0.46484 1.9688-0.46484 0.6875 0 1.3633 0.16797 1.9766 0.48438l0.34375 0.17578c0.23047 0.12891 0.52344 0.085938 0.70313-0.10938l2.1055-2.1055c0.09375-0.085938 0.15625-0.20313 0.17969-0.32813 0.019531-0.12891-0.003906-0.26172-0.066406-0.375l-0.17969-0.34375c-0.64453-1.2344-0.65234-2.7031-0.019531-3.9453 0.14453-0.29688 0.28516-0.60156 0.41406-0.92188 0.12891-0.31641 0.24609-0.63281 0.35547-0.94922v0.003906c0.21875-0.64844 0.58203-1.2344 1.0703-1.7148 0.48828-0.48047 1.082-0.83984 1.7344-1.0469l0.37109-0.125v0.003906c0.12109-0.039062 0.23047-0.11328 0.30469-0.21875 0.078125-0.10156 0.11719-0.23047 0.11328-0.35938v-2.9805c0.003906-0.10938-0.023438-0.21484-0.074219-0.30859-0.011719-0.015624-0.019531-0.039062-0.03125-0.054687zm-10.566 0h-15.051c-0.042969 0.17188-0.078125 0.34375-0.10547 0.52734l-0.003906-0.003906c-0.57812 3.3281 1.0664 6.6484 4.0625 8.207 3 1.5547 6.6602 0.98828 9.0469-1.4023 1.457-1.4492 2.2734-3.418 2.2734-5.4727-0.003907-0.44531-0.039063-0.89062-0.11328-1.332-0.03125-0.17969-0.070312-0.35156-0.10547-0.52734zm12.844-44.75-5.8516 4.3164-0.24609 3.543c0.046875 0.11719 0.10547 0.23047 0.15234 0.34375 2.7578-2.0742 4.8242-4.9336 5.9375-8.2031zm-5.6523 1.3398 6.4258-4.7383c0.039062-0.31641 0.070312-0.64062 0.089843-0.96484v0.003906c0.125-1.8516-0.050781-3.7109-0.51953-5.5078l-5.5273 4.0742zm-7.2539-10.609 5.3281 5.1523 0.92969-13.918c-1.7266 1.2695-3.207 2.8477-4.3594 4.6562-0.8125 1.2812-1.4492 2.6641-1.8945 4.1094zm5.125 8.125-5.7148-5.5273c-0.0625 0.44141-0.11328 0.88672-0.14063 1.3398-0.050781 0.73047-0.054687 1.4648-0.011718 2.1953 0.035156 0.58203 0.10156 1.1641 0.19531 1.7383 0.48828 0.375 0.96484 0.76953 1.4258 1.1836 1.4688 1.3242 2.7734 2.8164 3.8867 4.4492zm2.7891-7.6172 4.5625-3.3594c-0.082032-0.19531-0.16797-0.38281-0.25391-0.57031h0.003906c-0.90234-1.9453-2.1562-3.707-3.6992-5.1953zm-3.4375 17.332 0.019531-0.28125h0.003906c-1.2617-2.582-3.0039-4.8945-5.1406-6.8164-1.5547-1.3945-3.2969-2.5625-5.1797-3.4648l4.6836 9.2188v0.015625zm-8.5859-2.1641-4.8867-9.625c-0.44141-0.13281-0.88672-0.25391-1.3398-0.35938-2.4805-0.58984-5.043-0.75-7.5781-0.46875l4.2266 8.332 8.793 2.0742c0.25781 0.015625 0.52734 0.03125 0.78516 0.054688zm-7.0391 0.80859-18.578-4.3906c1.2695 2.707 3.0703 5.1367 5.2969 7.1367 1.5039 1.3516 3.1836 2.4883 5 3.3789zm-5.4375-3.6289-3.6836-7.25c-0.33984 0.082031-0.67969 0.16016-1.0117 0.25391-2.8828 0.79688-5.5781 2.1602-7.9258 4.0156z"/>
<text x="0.0" y="117.5" font-size="5.0" font-weight="bold" font-family="Arbeit Regular, Helvetica, Arial-Unicode, Arial, Sans-serif" fill="#000000">Created by Adinda Diah Pramesti</text><text x="0.0" y="122.5" font-size="5.0" font-weight="bold" font-family="Arbeit Regular, Helvetica, Arial-Unicode, Arial, Sans-serif" fill="#000000">from Noun Project</text></svg>