<svg xmlns="http://www.w3.org/2000/svg" xmlns:xlink="http://www.w3.org/1999/xlink" version="1.1" x="0px" y="0px" viewBox="0 0 100 125" style="enable-background:new 0 0 100 100;" xml:space="preserve"><path d="M15.63,88.13h20.83c0.57,0,1.06-0.22,1.48-0.54C45.59,89.17,53.46,90,61.42,90c3.61,0,7.24-0.16,10.86-0.49  c4.7,0,8.72-3.36,9.57-8l5-27.66c0.02-0.14,0.04-0.28,0.04-0.42c0.02-2.83-0.65-5.3-2.02-7.35C79.7,38.52,66.78,40,59.83,40.79  c-0.02,0-0.05,0.01-0.07,0.01V19.45c0-4.15-2.28-7.67-5.81-8.96c-3.13-1.15-6.47-0.21-8.74,2.46c-0.2,0.23-0.35,0.5-0.45,0.78  L34.47,42.51H15.63c-1.39,0-2.51,1.13-2.51,2.51v40.59C13.11,87,14.24,88.13,15.63,88.13z M49.33,15.9c0.85-0.83,1.86-1.07,2.89-0.7  c1.16,0.43,2.51,1.79,2.51,4.24v24.24c0,0.74,0.33,1.44,0.89,1.92c0.57,0.48,1.31,0.69,2.04,0.56c0.87-0.14,1.79-0.27,2.76-0.38  c5.47-0.63,16.85-1.92,20.28,3.1c0.28,0.43,1.14,1.7,1.16,4.29L76.9,80.61c-0.41,2.24-2.35,3.87-4.84,3.88  c-11.34,1.01-22.46,0.39-33.09-1.81V45.02c0-0.04-0.02-0.07-0.02-0.1L49.33,15.9z M18.14,47.53h15.8V83.1h-15.8V47.53z"/><text x="0" y="115" fill="#000000" font-size="5px" font-weight="bold" font-family="'Helvetica Neue', Helvetica, Arial-Unicode, Arial, Sans-serif">Created by ainul muttaqin</text><text x="0" y="120" fill="#000000" font-size="5px" font-weight="bold" font-family="'Helvetica Neue', Helvetica, Arial-Unicode, Arial, Sans-serif">from the Noun Project</text></svg>