<svg xmlns="http://www.w3.org/2000/svg" xmlns:xlink="http://www.w3.org/1999/xlink" version="1.1" x="0px" y="0px" viewBox="0 0 128 160" enable-background="new 0 0 128 128" xml:space="preserve"><g><path d="M99.021,96.221c-6.639,0-12.039,5.401-12.039,12.039c0,6.639,5.4,12.041,12.039,12.041s12.039-5.401,12.039-12.041   C111.061,101.622,105.66,96.221,99.021,96.221z M99.021,116.3c-4.433,0-8.039-3.607-8.039-8.041c0-4.433,3.606-8.039,8.039-8.039   s8.039,3.606,8.039,8.039C107.061,112.693,103.454,116.3,99.021,116.3z"/><path d="M99.021,31.778c6.639,0,12.039-5.401,12.039-12.041c0-6.638-5.4-12.038-12.039-12.038s-12.039,5.4-12.039,12.038   C86.982,26.376,92.383,31.778,99.021,31.778z M99.021,11.7c4.433,0,8.039,3.605,8.039,8.038c0,4.434-3.606,8.041-8.039,8.041   s-8.039-3.607-8.039-8.041C90.982,15.305,94.589,11.7,99.021,11.7z"/><path d="M99.021,53.374c-6.639,0-12.039,5.401-12.039,12.039c0,6.639,5.4,12.041,12.039,12.041s12.039-5.401,12.039-12.041   C111.061,58.775,105.66,53.374,99.021,53.374z M99.021,73.454c-4.433,0-8.039-3.607-8.039-8.041c0-4.433,3.606-8.039,8.039-8.039   s8.039,3.606,8.039,8.039C107.061,69.847,103.454,73.454,99.021,73.454z"/><path d="M45.239,49.425l-7.485,5.896c-2.212-2.147-5.223-3.477-8.541-3.477c-6.768,0-12.273,5.505-12.273,12.271   c0,6.768,5.506,12.274,12.273,12.274c3.078,0,5.888-1.147,8.045-3.026l7.069,5.479c0.365,0.282,0.796,0.419,1.225,0.419   c0.597,0,1.188-0.266,1.582-0.775c0.677-0.873,0.518-2.129-0.355-2.806l-6.969-5.4c1.06-1.814,1.677-3.916,1.677-6.164   c0-2.009-0.494-3.901-1.354-5.577l7.582-5.972c0.868-0.684,1.018-1.941,0.334-2.809C47.364,48.89,46.106,48.743,45.239,49.425z    M29.213,72.391c-4.562,0-8.273-3.712-8.273-8.274c0-4.561,3.712-8.271,8.273-8.271s8.273,3.71,8.273,8.271   C37.486,68.679,33.774,72.391,29.213,72.391z"/><path d="M80.589,72.016l-8.356,6.582c-2.19-2.266-5.254-3.683-8.646-3.683c-6.64,0-12.041,5.401-12.041,12.039   c0,6.64,5.401,12.041,12.041,12.041c3.292,0,6.277-1.331,8.453-3.48l7.638,5.919c0.365,0.282,0.796,0.419,1.225,0.419   c0.597,0,1.188-0.266,1.582-0.775c0.677-0.873,0.518-2.129-0.355-2.806l-7.754-6.009c0.792-1.604,1.249-3.401,1.249-5.308   c0-1.805-0.41-3.511-1.125-5.049l8.565-6.747c0.868-0.684,1.018-1.941,0.334-2.809C82.715,71.481,81.456,71.333,80.589,72.016z    M63.586,94.995c-4.434,0-8.041-3.607-8.041-8.041c0-4.433,3.607-8.039,8.041-8.039c4.432,0,8.037,3.606,8.037,8.039   C71.623,91.388,68.018,94.995,63.586,94.995z"/><path d="M80.589,26.576l-8.232,6.484c-2.197-2.344-5.312-3.819-8.771-3.819c-6.64,0-12.041,5.4-12.041,12.037   c0,6.64,5.401,12.041,12.041,12.041c3.225,0,6.149-1.281,8.313-3.353l7.778,6.028c0.365,0.282,0.796,0.419,1.225,0.419   c0.597,0,1.188-0.266,1.582-0.775c0.677-0.873,0.518-2.129-0.355-2.806l-7.803-6.047c-0.012-0.009-0.024-0.014-0.036-0.022   c0.847-1.647,1.334-3.508,1.334-5.484c0-1.737-0.377-3.385-1.043-4.878l8.483-6.682c0.868-0.684,1.018-1.941,0.334-2.809   C82.715,26.042,81.456,25.894,80.589,26.576z M63.586,49.319c-4.434,0-8.041-3.607-8.041-8.041c0-4.432,3.607-8.037,8.041-8.037   c4.432,0,8.037,3.605,8.037,8.037C71.623,45.712,68.018,49.319,63.586,49.319z"/></g><text x="0" y="143" fill="#000000" font-size="5px" font-weight="bold" font-family="'Helvetica Neue', Helvetica, Arial-Unicode, Arial, Sans-serif">Created by Safira</text><text x="0" y="148" fill="#000000" font-size="5px" font-weight="bold" font-family="'Helvetica Neue', Helvetica, Arial-Unicode, Arial, Sans-serif">from the Noun Project</text></svg>