<svg xmlns="http://www.w3.org/2000/svg" version="1.1" viewBox="-5.0 -10.0 110.0 135.0">
 <path d="m56.609 33.816c0.67969-0.28906 1.4688 0.015625 1.7773 0.6875 0.3125 0.67188 0.03125 1.4688-0.63281 1.7969-3.3906 1.3711-6.9688 2.2266-10.613 2.5312-0.36328 0.046875-0.73438-0.050781-1.0234-0.27734-0.28906-0.22656-0.47656-0.55859-0.51953-0.92578-0.039062-0.36719 0.066406-0.73438 0.30078-1.0195 0.23047-0.28516 0.57031-0.46484 0.9375-0.49609 3.3516-0.27344 6.6484-1.0469 9.7734-2.2969zm-14.434 2.6641c-1.207 0.054687-2.4414 0.082031-3.6758 0.082031v-0.003906c-0.36719-0.007813-0.72656 0.13281-0.98828 0.38672-0.26562 0.25781-0.41406 0.61328-0.41406 0.98047 0 0.37109 0.14844 0.72266 0.41406 0.98047 0.26172 0.25781 0.62109 0.39844 0.98828 0.39062 1.2734 0 2.5508-0.027344 3.8008-0.085937 0.75391-0.035157 1.3398-0.67188 1.3047-1.4258-0.035157-0.75781-0.67188-1.3398-1.4258-1.3047zm4.8086 18.734c0.054687 0 0.10547-0.003906 0.15625-0.011719 3.6445-0.30469 7.2227-1.1562 10.613-2.5312 0.68359-0.31641 0.98438-1.125 0.66797-1.8125s-1.125-0.98438-1.8125-0.67188c-3.125 1.25-6.418 2.0273-9.7734 2.3008-0.71875 0.082031-1.25 0.71094-1.2109 1.4336 0.039062 0.72656 0.63672 1.293 1.3594 1.293zm-8.4844 0.46094c1.207 0 2.4492-0.027343 3.8008-0.089843v-0.003907c0.75391-0.035156 1.3398-0.67188 1.3047-1.4258-0.03125-0.75391-0.67188-1.3398-1.4258-1.3047-1.3086 0.058594-2.5117 0.085938-3.6758 0.085938-0.37109-0.011719-0.72656 0.12891-0.99219 0.38672-0.26562 0.25781-0.41406 0.60938-0.41406 0.98047 0 0.36719 0.14844 0.72266 0.41406 0.98047 0.26562 0.25781 0.62109 0.39844 0.99219 0.38672zm3.6758 13.555c-1.2109 0.054687-2.4453 0.082031-3.6758 0.082031v-0.003906c-0.75391 0-1.3672 0.61328-1.3672 1.3672 0 0.75391 0.61328 1.3672 1.3672 1.3672 1.2695 0 2.5508-0.027344 3.8008-0.085938v0.003907c0.75391-0.035157 1.3398-0.67578 1.3047-1.4297-0.03125-0.75391-0.67188-1.3398-1.4258-1.3047zm14.434-2.6602v-0.003906c-3.125 1.25-6.418 2.0234-9.7734 2.3008-0.36719 0.03125-0.70703 0.21094-0.9375 0.49609-0.23438 0.28516-0.33984 0.65234-0.30078 1.0195 0.042969 0.36328 0.23047 0.69922 0.51953 0.92578 0.28906 0.22656 0.66016 0.32422 1.0234 0.27734 3.6445-0.30859 7.2227-1.1602 10.613-2.5352 0.68359-0.31641 0.98438-1.1289 0.66797-1.8164-0.31641-0.68359-1.125-0.98438-1.8125-0.66797zm27.984-38.512v-3.6992l-11.781-0.003906-7.0898 7.1016c-0.023437 0.023438-0.050781 0.046875-0.074218 0.070313l-0.003907 13.84h18.949v-3.6992c-0.003906-0.36328 0.14062-0.71094 0.39844-0.96875 0.25781-0.25391 0.60547-0.39844 0.96875-0.39844h12.672c0.36328 0 0.71094 0.14453 0.96875 0.40234 0.25391 0.25391 0.39844 0.60547 0.39844 0.96875v10.129c0 0.36328-0.14453 0.71094-0.39844 0.96484-0.25781 0.25781-0.60547 0.40234-0.96875 0.40234h-12.672c-0.36328 0-0.71094-0.14453-0.96875-0.39844-0.25781-0.25781-0.40234-0.60547-0.39844-0.96875v-3.6992h-18.949v13.855c0.027344 0.019531 0.054688 0.042969 0.078125 0.066407l7.0898 7.1016h11.781v-3.6992c0-0.36328 0.14062-0.71094 0.39844-0.96875 0.25781-0.25391 0.60547-0.39844 0.96875-0.39844h12.672c0.75 0 1.3633 0.60547 1.3672 1.3555v10.141c0 0.75391-0.61328 1.3672-1.3672 1.3672h-12.672c-0.36328 0-0.71094-0.14453-0.96875-0.40234-0.25781-0.25391-0.39844-0.60156-0.39844-0.96484v-3.6992h-12.348c-0.36328 0-0.71094-0.14453-0.96875-0.40234l-5.6328-5.6367v5.2344c0 6-13.656 9.1367-27.145 9.1367-2.1797 0-4.3086-0.078125-6.3555-0.23047-0.92969 1.1562-1.9961 2.1992-3.1797 3.0977-0.44531 0.33984-1.0508 0.375-1.5312 0.085937l-2.1992-1.3203v0.003907c-0.93359 0.50781-1.9141 0.91406-2.9297 1.2148l-0.62891 2.4922c-0.13672 0.54297-0.58984 0.94531-1.1445 1.0195-1.6406 0.22266-3.2969 0.22266-4.9375 0-0.55469-0.070312-1.0078-0.47656-1.1445-1.0195l-0.62891-2.4922c-1.0156-0.30078-2-0.70703-2.9297-1.2148l-2.1992 1.3203v-0.003906c-0.48047 0.28906-1.082 0.25391-1.5273-0.082031-1.3242-1-2.5-2.1758-3.5-3.5-0.33984-0.44141-0.37109-1.0469-0.085937-1.5273l1.3164-2.1992c-0.51172-0.93359-0.91797-1.9219-1.2188-2.9414l-2.4883-0.62891c-0.53906-0.13672-0.94141-0.58594-1.0195-1.1328-0.11328-0.82031-0.16797-1.6484-0.16797-2.4727-0.0039062-0.82812 0.054688-1.6562 0.16797-2.4766 0.078125-0.55078 0.48047-1 1.0195-1.1367l2.4883-0.62891c0.29688-1.0195 0.70703-2.0039 1.2148-2.9336l-1.3164-2.1992c-0.28516-0.48047-0.25-1.0859 0.085937-1.5273 1-1.3203 2.1758-2.5 3.4961-3.5 0.44531-0.33984 1.0508-0.375 1.5312-0.085937l2.1992 1.3203c0.15625-0.085937 0.3125-0.16406 0.47266-0.24219v-32.652-0.070312-0.10156c0-2.7656 2.9492-5.1133 8.5352-6.8008 6.0625-1.6406 12.32-2.4297 18.602-2.3359 6.2812-0.09375 12.543 0.69141 18.605 2.3359 5.5859 1.6836 8.5391 4.0352 8.5391 6.8008 0 0.10938-0.007813 0.21875-0.015625 0.32812v0.003906c0.007812 0.0625 0.015625 0.13281 0.015625 0.19922v4.7109l5.6328-5.6367v-0.003906c0.25391-0.25781 0.60547-0.39844 0.96484-0.39844h12.355v-3.6992c0-0.75781 0.60938-1.3711 1.3672-1.3711h12.672c0.75391 0 1.3633 0.60937 1.3672 1.3633v10.137c0 0.75781-0.61328 1.3672-1.3672 1.3711h-12.672c-0.75781 0-1.3672-0.61328-1.3672-1.3711zm2.7344 46.129h9.9375v-7.3984l-9.9375-0.003906zm0-23.75h9.9375v-7.3984l-9.9375-0.003906zm-54.781 8.8398-0.89844 1.5c2.2148 0.1875 4.5117 0.28516 6.8516 0.28516 14.898 0 24.41-3.793 24.41-6.3984l-0.003906-12.188c-1.9883 1.2539-4.1602 2.1914-6.4375 2.7734-5.8672 1.5039-11.91 2.2266-17.969 2.1484-6.0586 0.078124-12.102-0.64063-17.969-2.1445-2.2773-0.58203-4.4453-1.5195-6.4297-2.7773v10.699l0.35156-1.3945c0.13672-0.54297 0.58984-0.94531 1.1445-1.0195 1.6367-0.22266 3.2969-0.22266 4.9336 0 0.55469 0.074219 1.0078 0.48047 1.1445 1.0195l0.62891 2.4922c1.0195 0.30078 2 0.70703 2.9297 1.2188l2.1992-1.3203h0.003906c0.47656-0.28516 1.082-0.25391 1.5273 0.085937 1.3203 1 2.5 2.1758 3.5 3.5 0.33203 0.44141 0.36328 1.043 0.078125 1.5156zm30.363-32.637c-1.7891 1.1484-3.7461 2.0156-5.8008 2.5781-6.0625 1.6445-12.328 2.4297-18.609 2.3359-6.2773 0.09375-12.539-0.69141-18.602-2.3359-2.0508-0.5625-4.0078-1.4297-5.7969-2.5781v11.758c0.011719 0.03125 0.019532 0.066406 0.027344 0.10156 0.60156 2.5156 9.625 6.1562 24.375 6.1562 14.754 0 23.781-3.6406 24.375-6.1562 0.011719-0.039062 0.023438-0.082031 0.035156-0.12109zm-48.809-4.2188c0 2.6094 9.5078 6.3984 24.398 6.3984 14.895 0 24.41-3.7891 24.41-6.3984s-9.5078-6.3984-24.41-6.3984c-14.902-0.003907-24.398 3.7852-24.398 6.3984zm15.605 56.191-1.2422-2.082c-0.26562-0.4375-0.26172-0.98828 0.011718-1.4258 0.70313-1.125 1.2148-2.3594 1.5156-3.6523 0.11719-0.5 0.50391-0.89453 1-1.0195l2.3477-0.58984c0.03125-0.39844 0.046875-0.79297 0.046875-1.1875s-0.015625-0.79297-0.046875-1.1953l-2.3477-0.58984c-0.49609-0.125-0.88281-0.51953-1-1.0195-0.30078-1.2969-0.8125-2.5312-1.5156-3.6602-0.26953-0.4375-0.27734-0.98828-0.011718-1.4258l1.2422-2.0742c-0.51562-0.60938-1.082-1.1719-1.6875-1.6914l-2.0781 1.2422c-0.4375 0.26172-0.98828 0.25781-1.4219-0.011719-1.1289-0.69922-2.3672-1.2148-3.6602-1.5156-0.5-0.12109-0.89062-0.50391-1.0156-1l-0.58984-2.3477c-0.79297-0.0625-1.5938-0.0625-2.3867 0l-0.58984 2.3477h-0.003906c-0.12109 0.49609-0.51563 0.87891-1.0117 1-1.2969 0.30469-2.5312 0.81641-3.6602 1.5195-0.4375 0.26953-0.98437 0.27344-1.4219 0.011719l-2.0781-1.2461c-0.60547 0.51953-1.1719 1.0859-1.6875 1.6914l1.2422 2.0859h-0.003906c0.26172 0.44141 0.25781 0.98828-0.015625 1.4219-0.69922 1.125-1.2109 2.3633-1.5078 3.6562-0.11719 0.5-0.50391 0.89062-1 1.0156l-2.3516 0.59375c-0.027344 0.38672-0.042969 0.78125-0.042969 1.1914s0.015625 0.80078 0.046875 1.1875l2.3477 0.59375c0.49609 0.125 0.88281 0.51562 1 1.0156 0.29688 1.2969 0.80859 2.5352 1.5117 3.6602 0.26953 0.4375 0.27344 0.98438 0.011719 1.4219l-1.2422 2.0781v0.003907c0.51953 0.60156 1.0859 1.1641 1.6914 1.6836l2.0781-1.2422v-0.003906c0.4375-0.26172 0.98828-0.25781 1.4219 0.011718 1.1289 0.70312 2.3672 1.2148 3.6602 1.5195 0.5 0.11719 0.89062 0.50391 1.0156 1l0.58984 2.3477c0.79687 0.0625 1.5938 0.0625 2.3906 0l0.58984-2.3477c0.125-0.49609 0.51562-0.88281 1.0117-1 1.2969-0.30078 2.5312-0.81641 3.6602-1.5156 0.43359-0.26953 0.98438-0.27344 1.4219-0.011718l2.0781 1.2422c0.60547-0.51953 1.168-1.082 1.6875-1.6875zm33.199-7.5625v-12.152c-4.6562 3.2305-14.574 4.8984-24.41 4.8984-2.1562 0-4.2812-0.078125-6.3398-0.23438 0.10156 0.28125 0.19922 0.56641 0.28125 0.85547l2.4883 0.62891 0.003907 0.003906c0.53906 0.13672 0.94531 0.58984 1.0195 1.1445 0.22266 1.6328 0.22266 3.293 0 4.9258-0.074219 0.55469-0.48047 1.0117-1.0195 1.1484l-2.4883 0.62891-0.003906-0.003907c-0.29688 1.0195-0.70703 2.0039-1.2148 2.9336l0.82422 1.3828c2.0664 0.16406 4.2344 0.24609 6.4492 0.24609 14.902-0.003906 24.414-3.7969 24.414-6.4023zm24.422-44.363h9.9375v-7.3984h-9.9375zm-59.34 41.969c-0.003906 4.0117-2.4219 7.6328-6.1328 9.168-3.7109 1.5352-7.9805 0.68359-10.816-2.1562-2.8398-2.8398-3.6875-7.1094-2.1484-10.816 1.5352-3.7109 5.1562-6.1289 9.168-6.1289 5.4844 0.007813 9.9258 4.4492 9.9297 9.9336zm-2.7344 0c0-2.9102-1.7539-5.5312-4.4414-6.6445s-5.7812-0.5-7.8398 1.5586c-2.0547 2.0547-2.6719 5.1484-1.5586 7.8359 1.1133 2.6875 3.7383 4.4414 6.6445 4.4414 3.9727-0.003906 7.1875-3.2227 7.1953-7.1914z"/>
<text x="0.0" y="117.5" font-size="5.0" font-weight="bold" font-family="Arbeit Regular, Helvetica, Arial-Unicode, Arial, Sans-serif" fill="#000000">Created by Awicon</text><text x="0.0" y="122.5" font-size="5.0" font-weight="bold" font-family="Arbeit Regular, Helvetica, Arial-Unicode, Arial, Sans-serif" fill="#000000">from Noun Project</text></svg>