<svg xmlns="http://www.w3.org/2000/svg" version="1.1" viewBox="-5.0 -10.0 110.0 135.0">
 <path d="m84.48 49.605c-0.17578-0.57812-0.78516-0.90625-1.3633-0.73438l-0.23047 0.070312-0.69531-2.3125c6.0469-3.1172 9.2188-10.207 7.1914-16.953-1.1094-3.6875-3.5859-6.7188-6.9727-8.543-3.3906-1.8242-7.2852-2.2188-10.973-1.1094-3.6875 1.1055-6.7227 3.582-8.543 6.9727-1.8242 3.3906-2.2188 7.2891-1.1094 10.973 0.51562 1.7148 1.3242 3.2578 2.3516 4.6016l-5.457 4.8672c-0.53125-0.31641-1.1562-0.49609-1.8203-0.49609-1.2148 0-2.2891 0.60938-2.9414 1.5352l-7.4648-2.3086c-0.019531-1.9648-1.6172-3.5547-3.582-3.5547-1.9766 0-3.5898 1.6094-3.5898 3.5898 0 1.4883 0.91016 2.7695 2.207 3.3125l-0.77344 9.1875c-0.51562 0.11719-0.98828 0.34766-1.3945 0.66406l-6.0938-4.1836c0.097657-0.32422 0.15234-0.67188 0.15234-1.0312 0-1.9766-1.6094-3.5898-3.5898-3.5898-1.9805 0-3.5898 1.6094-3.5898 3.5898 0 0.85938 0.30469 1.6484 0.80859 2.2656l-8.1328 12.516c-0.30078-0.082032-0.61719-0.12891-0.94531-0.12891-1.9766 0-3.582 1.6094-3.582 3.5898 0 1.9766 1.6055 3.5898 3.582 3.5898 1.9766 0 3.5898-1.6094 3.5898-3.5898 0-0.85938-0.30469-1.6484-0.80859-2.2656l8.1328-12.516c0.30078 0.082031 0.61719 0.12891 0.94531 0.12891 0.82813 0 1.5898-0.28125 2.1953-0.75391l6.0938 4.1836c-0.097656 0.32422-0.15234 0.67188-0.15234 1.0312 0 1.9766 1.6094 3.5898 3.5898 3.5898s3.5898-1.6094 3.5898-3.5898c0-1.4922-0.91406-2.7734-2.2109-3.3125l0.77344-9.1836c0.87891-0.19922 1.6328-0.72656 2.1328-1.4414l7.4688 2.3086c0.019531 1.9609 1.6211 3.5508 3.5859 3.5508 1.9766 0 3.582-1.6094 3.582-3.5898 0-0.51953-0.10938-1.0117-0.30859-1.457l5.4609-4.8711c2.6602 2.5508 6.2422 4.0352 9.9961 4.0352 0.51172 0 1.0234-0.027344 1.5352-0.082032l0.69531 2.3086-0.22656 0.066406c-0.27734 0.082032-0.51172 0.27344-0.64844 0.52734-0.13672 0.25781-0.16797 0.55469-0.085937 0.83203l2.9805 9.9258c0.51562 1.7148 2.1016 2.8281 3.8164 2.8281 0.375 0 0.75781-0.054688 1.1367-0.16406 1.0117-0.30469 1.8477-0.98828 2.3516-1.9258s0.61719-2.0117 0.3125-3.0234l-2.9805-9.9258zm-66.539 24.184c-0.76953 0-1.3945-0.62891-1.3945-1.3984 0-0.77344 0.625-1.3984 1.3945-1.3984 0.76953 0 1.3984 0.62891 1.3984 1.3984 0 0.77344-0.62891 1.3984-1.3984 1.3984zm13.023-18.871c-0.003906 0.007812-0.007813 0.011719-0.011719 0.015625s-0.003906 0.007812-0.007813 0.011718c-0.25391 0.36328-0.67187 0.59766-1.1445 0.59766-0.77344 0-1.3984-0.62891-1.3984-1.3984 0-0.77344 0.62891-1.3984 1.3984-1.3984 0.77344 0 1.3984 0.62891 1.3984 1.3984 0 0.28516-0.085938 0.55078-0.23438 0.77344zm11.961 7.2734c0 0.77344-0.62891 1.3984-1.3984 1.3984-0.77344 0-1.3984-0.62891-1.3984-1.3984 0-0.28516 0.085938-0.55078 0.23438-0.77344 0.003907-0.003907 0.007813-0.011719 0.011719-0.015625s0.003906-0.007813 0.007812-0.011719c0.25391-0.35938 0.67188-0.59766 1.1445-0.59766 0.77344 0 1.3984 0.62891 1.3984 1.3984zm-0.046875-14.594c-0.77344 0-1.3984-0.62891-1.3984-1.3984 0-0.77344 0.62891-1.3984 1.3984-1.3984 0.77344 0 1.3945 0.62891 1.3945 1.3984 0 0.77344-0.625 1.3984-1.3945 1.3984zm13.988 4.3281c-0.77344 0-1.3984-0.62891-1.3984-1.3984 0-0.77344 0.62891-1.3984 1.3984-1.3984 0.77344 0 1.3945 0.62891 1.3945 1.3984 0 0.77344-0.625 1.3984-1.3945 1.3984zm10.27-15.566c-0.67969-2.2578-0.4375-4.6445 0.67969-6.7227 1.1172-2.0742 2.9766-3.5938 5.2344-4.2695 0.84375-0.25391 1.6953-0.375 2.5352-0.375 3.793 0 7.3086 2.4688 8.4531 6.2852 0.67969 2.2578 0.4375 4.6445-0.67969 6.7227-1.1172 2.0742-2.9766 3.5938-5.2344 4.2734-2.2578 0.67969-4.6406 0.4375-6.7188-0.67969-0.58984-0.31641-1.1328-0.69531-1.625-1.125l3.9883-3.5586c0.53516 0.31641 1.1562 0.49609 1.8203 0.49609 1.9766 0 3.5898-1.6094 3.5898-3.5898 0-1.9766-1.6094-3.5898-3.5898-3.5898-1.9805 0-3.5898 1.6094-3.5898 3.5898 0 0.51953 0.11328 1.0117 0.3125 1.457l-3.9883 3.5586c-0.51562-0.75-0.91797-1.582-1.1875-2.4766zm7.0508-2.5352c0-0.77344 0.62891-1.3984 1.3984-1.3984 0.77344 0 1.3984 0.62891 1.3984 1.3984 0 0.77344-0.62891 1.3984-1.3984 1.3984-0.77344 0-1.3984-0.62891-1.3984-1.3984zm-6.9492 8.9141 0.89844-0.80078c0.66797 0.60938 1.4141 1.1445 2.2344 1.5859 1.6289 0.875 3.4062 1.3203 5.2031 1.3203 1.0625 0 2.1367-0.15625 3.1836-0.47266 2.8164-0.84766 5.1367-2.7383 6.5312-5.332 1.3945-2.5898 1.6953-5.5703 0.84766-8.3906-1.75-5.8164-7.9023-9.125-13.715-7.3789-2.8203 0.84375-5.1406 2.7344-6.5312 5.3281-1.3945 2.5898-1.6953 5.5703-0.84766 8.3906 0.36328 1.207 0.91797 2.3242 1.6406 3.3164l-0.90234 0.80469c-0.82422-1.1094-1.4727-2.3711-1.8945-3.7695-0.94141-3.125-0.60547-6.4336 0.94141-9.3086s4.1211-4.9766 7.2461-5.9141c1.1641-0.35156 2.3516-0.52344 3.5312-0.52344 1.9922 0 3.9688 0.49219 5.7734 1.4648 2.875 1.5469 4.9766 4.1211 5.9141 7.2461 1.9414 6.4531-1.7344 13.281-8.1875 15.223-4.3125 1.2969-8.7891 0.082031-11.867-2.7891zm13.555 6.832-0.87109 0.26172-0.625-2.0859c0.14453-0.039063 0.29297-0.078125 0.4375-0.12109s0.28906-0.089844 0.43359-0.13672l0.625 2.0859zm4.4336 11.949c-0.22656 0.42188-0.60156 0.73047-1.0547 0.86719-0.94531 0.28125-1.9453-0.25781-2.2266-1.1953l-2.6641-8.8789 0.20312-0.0625c0.007813-0.003906 0.015625-0.003906 0.027344-0.007812 0.011719-0.003907 0.023437-0.007813 0.035156-0.011719l2.9023-0.87109c0.011719-0.003906 0.019531-0.003906 0.03125-0.007813 0.015625-0.003906 0.027343-0.011718 0.042969-0.015624l0.1875-0.054688 2.668 8.8789c0.13672 0.45312 0.085938 0.93359-0.14062 1.3555zm-8.4727 16.887h-3.4453v-21.688c0-0.60547-0.48828-1.0938-1.0938-1.0938h-5.2695c-0.60547 0-1.0938 0.48828-1.0938 1.0938v21.688h-1.9258v-16.637c0-0.60547-0.48828-1.0938-1.0938-1.0938h-5.2695c-0.60547 0-1.0938 0.48828-1.0938 1.0938v16.637h-1.9258v-11.586c0-0.60547-0.48828-1.0938-1.0938-1.0938h-5.2695c-0.60547 0-1.0938 0.48828-1.0938 1.0938v11.586h-1.9258v-4.5352c0-0.60547-0.48828-1.0938-1.0938-1.0938-0.60547 0-1.0938 0.48828-1.0938 1.0938v4.5352h-1.9219v-2.4492c0-0.60547-0.48828-1.0938-1.0938-1.0938s-1.0938 0.48828-1.0938 1.0938v2.4492h-1.9258v-4.5352c0-0.60547-0.48828-1.0938-1.0938-1.0938s-1.0938 0.48828-1.0938 1.0938v4.5352h-1.9219v-2.4492c0-0.60547-0.48828-1.0938-1.0938-1.0938s-1.0938 0.48828-1.0938 1.0938v2.4492h-1.9258v-4.5352c0-0.60547-0.48828-1.0938-1.0938-1.0938-0.60547 0-1.0938 0.48828-1.0938 1.0938v4.5352h-1.9258v-2.4492c0-0.60547-0.48828-1.0938-1.0938-1.0938-0.60547 0-1.0938 0.48828-1.0938 1.0938v2.4492h-10.211l-0.015625-53.18c0-0.60547-0.48828-1.0938-1.0938-1.0938s-1.0938 0.48828-1.0938 1.0938v54.273c0 0.60547 0.48828 1.0938 1.0938 1.0938h65.66c0.60547 0 1.0938-0.48828 1.0938-1.0938s-0.48828-1.0938-1.0938-1.0938zm-24.406 0h-3.082v-10.492h3.082zm9.3867 0h-3.082v-15.543h3.082zm9.3867 0h-3.082v-20.594h3.082z"/>
<text x="0.0" y="117.5" font-size="5.0" font-weight="bold" font-family="Arbeit Regular, Helvetica, Arial-Unicode, Arial, Sans-serif" fill="#000000">Created by Awicon</text><text x="0.0" y="122.5" font-size="5.0" font-weight="bold" font-family="Arbeit Regular, Helvetica, Arial-Unicode, Arial, Sans-serif" fill="#000000">from Noun Project</text></svg>