<svg xmlns="http://www.w3.org/2000/svg" version="1.1" viewBox="-5.0 -10.0 110.0 135.0">
 <path d="m65.152 28.59h-30.684c-0.046875 0-0.085938 0.015625-0.11719 0.046875l-5.9961 5.9961c-0.03125 0.03125-0.046875 0.070313-0.046875 0.11719v30.684c0 0.046875 0.015625 0.085937 0.046875 0.11719l5.9961 5.9961c0.03125 0.03125 0.070313 0.046875 0.11719 0.046875h30.684c0.046875 0 0.085937-0.015625 0.11719-0.046875l5.9961-5.9961c0.03125-0.03125 0.046875-0.070312 0.046875-0.11719v-30.68c0-0.046875-0.015625-0.085937-0.046875-0.11719l-5.9961-5.9961c-0.03125-0.03125-0.070312-0.050781-0.11719-0.050781zm-26.414-2.625v-4.2422c0-0.67969-0.55078-1.2305-1.2305-1.2305h-4.168c-0.089844 0-0.16406-0.074219-0.16406-0.16406v-4.3594c0-0.67969-0.55078-1.2305-1.2305-1.2305-0.67969 0-1.2305 0.55078-1.2305 1.2305v5.7539c0 0.67969 0.55078 1.2305 1.2305 1.2305h4.168c0.089844 0 0.16406 0.074219 0.16406 0.16406v2.8477c0 0.089844 0.074218 0.16406 0.16406 0.16406h2.1367c0.085937 0 0.16016-0.074218 0.16016-0.16406zm6.8906 0c0 0.089844-0.074218 0.16406-0.16406 0.16406h-2.1367c-0.089844 0-0.16406-0.074218-0.16406-0.16406v-8.2266c0-0.089843-0.074218-0.16406-0.16406-0.16406h-4.168c-0.67969 0-1.2305-0.55078-1.2305-1.2305v-5.7539c0-0.67969 0.55078-1.2305 1.2305-1.2305 0.67969 0 1.2305 0.55078 1.2305 1.2305v4.3594c0 0.089843 0.074219 0.16406 0.16406 0.16406h4.168c0.67969 0 1.2305 0.55078 1.2305 1.2305zm11.207 0v-8.2266c0-0.089843 0.074218-0.16406 0.16406-0.16406h4.168c0.67969 0 1.2305-0.55078 1.2305-1.2305v-5.7539c0-0.67969-0.55078-1.2305-1.2305-1.2305-0.67969 0-1.2305 0.55078-1.2305 1.2305v4.3594c0 0.089843-0.074219 0.16406-0.16406 0.16406h-4.168c-0.67969 0-1.2305 0.55078-1.2305 1.2305v9.6211c0 0.089844 0.074219 0.16406 0.16406 0.16406h2.1367c0.085938 0 0.16016-0.074218 0.16016-0.16406zm6.8906 0c0 0.089844-0.074218 0.16406-0.16406 0.16406h-2.1367c-0.089843 0-0.16406-0.074218-0.16406-0.16406v-4.2422c0-0.67969 0.55078-1.2305 1.2305-1.2305h4.168c0.089844 0 0.16406-0.074219 0.16406-0.16406v-4.3594c0-0.67969 0.55078-1.2305 1.2305-1.2305 0.67969 0 1.2305 0.55078 1.2305 1.2305v5.7539c0 0.67969-0.55078 1.2305-1.2305 1.2305h-4.168c-0.089844 0-0.16406 0.074219-0.16406 0.16406zm10.215 12.773h4.3398c0.67969 0 1.2305-0.55078 1.2305-1.2305v-4.168c0-0.089844 0.074219-0.16406 0.16406-0.16406h4.3594c0.67969 0 1.2305-0.55078 1.2305-1.2305 0-0.67969-0.55078-1.2305-1.2305-1.2305h-5.7539c-0.67969 0-1.2305 0.55078-1.2305 1.2305v4.168c0 0.089844-0.074219 0.16406-0.16406 0.16406h-2.9414c-0.089843 0-0.16406 0.074218-0.16406 0.16406v2.1367c-0.003906 0.085937 0.070312 0.16016 0.16016 0.16016zm0 6.8906c-0.089844 0-0.16406-0.074218-0.16406-0.16406v-2.1367c0-0.089844 0.074218-0.16406 0.16406-0.16406h8.3203c0.089843 0 0.16406-0.074218 0.16406-0.16406v-4.168c0-0.67969 0.55078-1.2305 1.2305-1.2305h5.7539c0.67969 0 1.2305 0.55078 1.2305 1.2305 0 0.67969-0.55078 1.2305-1.2305 1.2305h-4.3594c-0.089843 0-0.16406 0.074219-0.16406 0.16406v4.168c0 0.67969-0.55078 1.2305-1.2305 1.2305zm0 11.207h8.3203c0.089843 0 0.16406 0.074218 0.16406 0.16406v4.168c0 0.67969 0.55078 1.2305 1.2305 1.2305h5.7539c0.67969 0 1.2305-0.55078 1.2305-1.2305 0-0.67969-0.55078-1.2305-1.2305-1.2305h-4.3594c-0.089843 0-0.16406-0.074219-0.16406-0.16406v-4.168c0-0.67969-0.55078-1.2305-1.2305-1.2305h-9.7148c-0.089844 0-0.16406 0.074219-0.16406 0.16406v2.1367c0 0.085938 0.074218 0.16016 0.16406 0.16016zm0 6.8906c-0.089844 0-0.16406-0.074218-0.16406-0.16406v-2.1367c0-0.089843 0.074218-0.16406 0.16406-0.16406h4.3398c0.67969 0 1.2305 0.55078 1.2305 1.2305v4.168c0 0.089844 0.074219 0.16406 0.16406 0.16406h4.3594c0.67969 0 1.2305 0.55078 1.2305 1.2305 0 0.67969-0.55078 1.2305-1.2305 1.2305h-5.7539c-0.67969 0-1.2305-0.55078-1.2305-1.2305v-4.168c0-0.089844-0.074219-0.16406-0.16406-0.16406zm-12.68 10.5v4.0547c0 0.67969 0.55078 1.2305 1.2305 1.2305h4.168c0.089844 0 0.16406 0.074219 0.16406 0.16406v4.3594c0 0.67969 0.55078 1.2305 1.2305 1.2305 0.67969 0 1.2305-0.55078 1.2305-1.2305v-5.7539c0-0.67969-0.55078-1.2305-1.2305-1.2305h-4.168c-0.089844 0-0.16406-0.074219-0.16406-0.16406v-2.6602c0-0.089843-0.074218-0.16406-0.16406-0.16406h-2.1367c-0.085937 0-0.16016 0.070312-0.16016 0.16406zm-6.8906 0c0-0.089843 0.074218-0.16406 0.16406-0.16406h2.1367c0.089844 0 0.16406 0.074219 0.16406 0.16406v8.0352c0 0.089843 0.074218 0.16406 0.16406 0.16406h4.168c0.67969 0 1.2305 0.55078 1.2305 1.2305v5.7539c0 0.67969-0.55078 1.2305-1.2305 1.2305-0.67969 0-1.2305-0.55078-1.2305-1.2305v-4.3594c0-0.089843-0.074219-0.16406-0.16406-0.16406h-4.168c-0.67969 0-1.2305-0.55078-1.2305-1.2305zm-15.633 4.0547v-4.0547c0-0.089843-0.074219-0.16406-0.16406-0.16406h-2.1367c-0.089844 0-0.16406 0.074219-0.16406 0.16406v2.6602c0 0.089843-0.074219 0.16406-0.16406 0.16406h-4.168c-0.67969 0-1.2305 0.55078-1.2305 1.2305v5.7539c0 0.67969 0.55078 1.2305 1.2305 1.2305 0.67969 0 1.2305-0.55078 1.2305-1.2305v-4.3594c0-0.089843 0.074219-0.16406 0.16406-0.16406h4.168c0.68359 0 1.2344-0.55078 1.2344-1.2305zm4.4258-4.0547c0-0.089843 0.074219-0.16406 0.16406-0.16406h2.1367c0.089844 0 0.16406 0.074219 0.16406 0.16406v9.4297c0 0.67969-0.55078 1.2305-1.2305 1.2305h-4.168c-0.089844 0-0.16406 0.074219-0.16406 0.16406v4.3594c0 0.67969-0.55078 1.2305-1.2305 1.2305-0.67969 0-1.2305-0.55078-1.2305-1.2305v-5.7539c0-0.67969 0.55078-1.2305 1.2305-1.2305h4.168c0.089844 0 0.16406-0.074219 0.16406-0.16406zm-17.484-12.965h-3.9609c-0.67969 0-1.2305 0.55078-1.2305 1.2305v4.168c0 0.089844-0.074219 0.16406-0.16406 0.16406h-4.3594c-0.67969 0-1.2305 0.55078-1.2305 1.2305 0 0.67969 0.55078 1.2305 1.2305 1.2305h5.7539c0.67969 0 1.2305-0.55078 1.2305-1.2305v-4.168c0-0.089844 0.074219-0.16406 0.16406-0.16406h2.5664c0.089843 0 0.16406-0.074218 0.16406-0.16406v-2.1367c0-0.085937-0.074219-0.16016-0.16406-0.16016zm0-6.8906c0.089843 0 0.16406 0.074218 0.16406 0.16406v2.1367c0 0.089844-0.074219 0.16406-0.16406 0.16406h-7.9414c-0.089843 0-0.16406 0.074218-0.16406 0.16406v4.168c0 0.67969-0.55078 1.2305-1.2305 1.2305h-5.7539c-0.67969 0-1.2305-0.55078-1.2305-1.2305 0-0.67969 0.55078-1.2305 1.2305-1.2305h4.3594c0.089843 0 0.16406-0.074219 0.16406-0.16406v-4.168c0-0.67969 0.55078-1.2305 1.2305-1.2305zm0-11.207h-7.9414c-0.089843 0-0.16406-0.074218-0.16406-0.16406v-4.168c0-0.67969-0.55078-1.2305-1.2305-1.2305h-5.7539c-0.67969 0-1.2305 0.55078-1.2305 1.2305 0 0.67969 0.55078 1.2305 1.2305 1.2305h4.3594c0.089843 0 0.16406 0.074219 0.16406 0.16406v4.168c0 0.67969 0.55078 1.2305 1.2305 1.2305h9.3359c0.089843 0 0.16406-0.074219 0.16406-0.16406v-2.1367c0-0.085938-0.074219-0.16016-0.16406-0.16016zm0.16406-4.5898c0 0.089843-0.074219 0.16406-0.16406 0.16406h-3.9609c-0.67969 0-1.2305-0.55078-1.2305-1.2305v-4.168c0-0.089844-0.074219-0.16406-0.16406-0.16406h-4.3594c-0.67969 0-1.2305-0.55078-1.2305-1.2305 0-0.67969 0.55078-1.2305 1.2305-1.2305h5.7539c0.67969 0 1.2305 0.55078 1.2305 1.2305v4.168c0 0.089844 0.074219 0.16406 0.16406 0.16406h2.5664c0.089843 0 0.16406 0.074218 0.16406 0.16406zm12.09-1.6758c0 1.2344-1 2.2383-2.2383 2.2383-1.2344 0-2.2383-1-2.2383-2.2383 0-1.2344 1-2.2383 2.2383-2.2383 1.2383 0 2.2383 1.0039 2.2383 2.2383z" fill-rule="evenodd"/>
<text x="0.0" y="117.5" font-size="5.0" font-weight="bold" font-family="Arbeit Regular, Helvetica, Arial-Unicode, Arial, Sans-serif" fill="#000000">Created by gravisio</text><text x="0.0" y="122.5" font-size="5.0" font-weight="bold" font-family="Arbeit Regular, Helvetica, Arial-Unicode, Arial, Sans-serif" fill="#000000">from Noun Project</text></svg>