<svg xmlns="http://www.w3.org/2000/svg" viewBox="0 0 40 50" x="0px" y="0px"><path d="M27.91,36.77c-1.08-4.34-4.58-6.94-8.46-8a8,8,0,1,0-9,0c-3.88,1.1-7.37,3.7-8.46,8A1,1,0,0,0,4,37.25c1.24-4.94,6.42-7.16,11-7.16s9.77,2.22,11,7.16A1,1,0,0,0,27.91,36.77ZM15,28.09a6,6,0,1,1,6-6A6,6,0,0,1,15,28.09Z"/><path d="M34.91,27.64a5.41,5.41,0,1,0-5.41,5.41c2.73,0,5.8,1.3,6.53,4.2A1,1,0,0,0,38,36.77a7.35,7.35,0,0,0-4.88-5.09A5.4,5.4,0,0,0,34.91,27.64Zm-8.82,0a3.41,3.41,0,1,1,3.41,3.41A3.41,3.41,0,0,1,26.09,27.64Z"/><path d="M37,14A11,11,0,0,1,26,3a1,1,0,1,0-2,0A13,13,0,0,0,37,16a1,1,0,1,0,0-2Z"/><path d="M37,10a7,7,0,0,1-7-7,1,1,0,1,0-2,0,9,9,0,0,0,9,9,1,1,0,0,0,0-2Z"/><path d="M37,6a3,3,0,0,1-3-3,1,1,0,1,0-2,0,5,5,0,0,0,5,5,1,1,0,0,0,0-2Z"/><text x="0" y="55" fill="#000000" font-size="5px" font-weight="bold" font-family="'Helvetica Neue', Helvetica, Arial-Unicode, Arial, Sans-serif">Created by Eva Ratkus</text><text x="0" y="60" fill="#000000" font-size="5px" font-weight="bold" font-family="'Helvetica Neue', Helvetica, Arial-Unicode, Arial, Sans-serif">from the Noun Project</text></svg>