<svg xmlns="http://www.w3.org/2000/svg" xmlns:xlink="http://www.w3.org/1999/xlink" version="1.1" x="0px" y="0px" viewBox="0 0 24 30" style="enable-background:new 0 0 24 24;" xml:space="preserve"><g><path d="M15.409,1.773H8.591c-1.566,0-2.841,1.275-2.841,2.841v14.773c0,1.566,1.275,2.841,2.841,2.841h6.818   c1.566,0,2.841-1.275,2.841-2.841V4.614C18.25,3.047,16.975,1.773,15.409,1.773z M17.114,19.386c0,0.94-0.765,1.705-1.705,1.705   H8.591c-0.94,0-1.705-0.765-1.705-1.705V4.614c0-0.94,0.765-1.705,1.705-1.705h6.818c0.94,0,1.705,0.765,1.705,1.705V19.386z"/><circle cx="12" cy="19.386" r="1.136"/><path d="M13.136,3.477h-2.273c-0.314,0-0.568,0.254-0.568,0.568s0.254,0.568,0.568,0.568h2.273c0.314,0,0.568-0.254,0.568-0.568   S13.45,3.477,13.136,3.477z"/></g><text x="0" y="39" fill="#000000" font-size="5px" font-weight="bold" font-family="'Helvetica Neue', Helvetica, Arial-Unicode, Arial, Sans-serif">Created by Storm Icons</text><text x="0" y="44" fill="#000000" font-size="5px" font-weight="bold" font-family="'Helvetica Neue', Helvetica, Arial-Unicode, Arial, Sans-serif">from the Noun Project</text></svg>