<svg xmlns="http://www.w3.org/2000/svg" data-name="Layer 1" viewBox="0 0 100 125" x="0px" y="0px"><title>Mini mobile</title><path d="M66.24,2.5H33.79A13.79,13.79,0,0,0,20,16.27V83.73A13.79,13.79,0,0,0,33.79,97.5H66.24A13.76,13.76,0,0,0,80,83.73V16.27A13.76,13.76,0,0,0,66.24,2.5ZM50,92a5,5,0,1,1,5-5A5,5,0,0,1,50,92ZM75,76H25V19H75Z"/><text x="0" y="115" fill="#000000" font-size="5px" font-weight="bold" font-family="'Helvetica Neue', Helvetica, Arial-Unicode, Arial, Sans-serif">Created by Rainbow Designs</text><text x="0" y="120" fill="#000000" font-size="5px" font-weight="bold" font-family="'Helvetica Neue', Helvetica, Arial-Unicode, Arial, Sans-serif">from the Noun Project</text></svg>