<svg xmlns="http://www.w3.org/2000/svg" xmlns:xlink="http://www.w3.org/1999/xlink" version="1.1" x="0px" y="0px" viewBox="0 0 98 122.5" style="enable-background:new 0 0 98 98;" xml:space="preserve"><path d="M86.7134933,44.4018097c-3.4493866-4.1539688-11.1323242-3.7157402-19.2664948-3.251194  c-0.838089,0.0478821-1.6885452,0.0963974-2.534874,0.1392059c2.5389938-6.3124504,4.1748962-16.2426567,1.5388718-21.6992607  c-1.1697693-2.4207191-3.0926476-3.8863411-5.5615654-4.2383184c-4.9568596-0.705224-6.9647179,4.0556688-8.8967896,8.6630888  c-2.6131935,6.2315884-5.5748825,13.2936554-15.3820534,13.6411934h-4.7872143v-0.1011543  c0-1.0759087-0.8723335-1.9482422-1.9482441-1.9482422H11.5957594c-1.0759096,0-1.9482431,0.8723335-1.9482431,1.9482422v43.2139702  c0,1.0759125,0.8723335,1.9482422,1.9482431,1.9482422h18.2793694c1.0759106,0,1.9482441-0.8723297,1.9482441-1.9482422v-1.2994614  h4.1636829c1.6710205,1.6801758,3.8432922,2.5935364,6.2199745,2.5935364c0.0355148,0,0.0713463,0,0.1068611-0.0006332  l31.0818443-0.350708c2.7153015-0.0304413,8.3653336-0.0941772,9.4428253-5.1674118l5.0795822-23.9284554  C88.7714462,49.1554108,88.3661957,46.3915939,86.7134933,44.4018097z M27.9268856,78.8210983H13.5440035V39.5036125h14.3828821  V78.8210983z M84.120903,51.7454605l-5.0938416,23.9899673c-0.3167801,1.4925766-1.802063,2.0370331-5.675087,2.0807877  l-31.0821571,0.3507156c-1.5924644,0.0050735-2.8849487-0.6123199-3.907589-1.8727798  c-0.0205307-0.0253296-0.0458984-0.0438385-0.067421-0.0678558c-0.0459404-0.0512085-0.0936241-0.0995331-0.1446762-0.1456299  c-0.0459404-0.0414963-0.0926704-0.0804214-0.1416626-0.11689c-0.0511703-0.0381317-0.1039696-0.0728912-0.1588249-0.1059494  c-0.0540657-0.0325012-0.1083679-0.0626221-0.1648521-0.0894623c-0.0566025-0.0270309-0.1143532-0.0502548-0.1738091-0.0718613  c-0.0602875-0.021759-0.1204948-0.040863-0.1823692-0.0566025c-0.0588226-0.0149765-0.1181183-0.0267487-0.1789627-0.0362244  c-0.0686111-0.0107422-0.1369057-0.0174026-0.2062721-0.020813c-0.031826-0.0015411-0.0618324-0.0094681-0.094017-0.0094681  h-5.0259876V41.5530128h4.8211422c0.0218811,0,0.044075-0.0003166,0.0659561-0.0012703  c12.3290443-0.417614,16.112648-9.4409256,18.8751945-16.0295677c1.9231949-4.5868073,2.956295-6.5724678,4.7536011-6.3127651  c0.7378845,0.1052761,1.8103065,0.4350567,2.6033669,2.0763512c2.3655396,4.895977-0.0380516,16.2654858-2.859581,21.09202  c-0.3560982,0.6094589-0.3548317,1.3635178,0.00317,1.9717102c0.3576851,0.607872,1.013443,0.9623871,1.7224731,0.9592171  c1.9105072-0.0428085,3.9183693-0.15728,5.8602638-0.2682648c6.4928818-0.370369,13.8533325-0.7905235,16.0470123,1.8505783  C84.5464478,47.8911438,84.6834335,49.4588737,84.120903,51.7454605z M22.6836891,73.0077591v0.3868561  c0,1.0759125-0.8723335,1.9482498-1.9482441,1.9482498s-1.9482441-0.8723373-1.9482441-1.9482498v-0.3868561  c0-1.0759048,0.8723335-1.9482422,1.9482441-1.9482422S22.6836891,71.9318542,22.6836891,73.0077591z"/><text x="0" y="113" fill="#000000" font-size="5px" font-weight="bold" font-family="'Helvetica Neue', Helvetica, Arial-Unicode, Arial, Sans-serif">Created by Happy Girl</text><text x="0" y="118" fill="#000000" font-size="5px" font-weight="bold" font-family="'Helvetica Neue', Helvetica, Arial-Unicode, Arial, Sans-serif">from the Noun Project</text></svg>