<svg xmlns="http://www.w3.org/2000/svg" xmlns:xlink="http://www.w3.org/1999/xlink" version="1.1" x="0px" y="0px" viewBox="0 0 5000 6250" style="enable-background:new 0 0 5000 5000;" xml:space="preserve"><g><path d="M3614.5,2811.6v-623.1c0-38-30.9-68.9-68.9-68.9H1454.4c-38,0-68.9,30.9-68.9,68.9v623.1c0,38,30.9,68.9,68.9,68.9h2091.1   C3583.6,2880.5,3614.5,2849.6,3614.5,2811.6z M1447.5,2811.6v-623.1c0-3.8,3.1-6.9,7-6.9h2091.1c3.8,0,6.9,3.1,6.9,6.9v623.1   c0,3.8-3.1,6.9-6.9,6.9H1454.4C1450.6,2818.5,1447.5,2815.4,1447.5,2811.6z"/><path d="M4082.6,3466.7c-82.4,0-151.2,59.4-165.8,137.7h-300.9v-410h149.7c89.7,0,162.7-73,162.7-162.7V1968.4   c0-89.7-73-162.7-162.7-162.7h-149.7v-410h300.9c14.6,78.3,83.4,137.7,165.8,137.7c93,0,168.7-75.7,168.7-168.7   s-75.7-168.7-168.7-168.7c-82.4,0-151.2,59.4-165.8,137.7h-331.9c-17.1,0-31,13.9-31,31v441h-480.4v-862h259   c14.6,78.3,83.4,137.7,165.8,137.7c93,0,168.7-75.7,168.7-168.7S3591.2,744,3498.2,744c-82.4,0-151.2,59.4-165.8,137.7h-290   c-17.1,0-31,13.9-31,31v893H2531v-471.9c78.3-14.6,137.7-83.4,137.7-165.8c0-93-75.7-168.7-168.7-168.7s-168.7,75.7-168.7,168.7   c0,82.4,59.4,151.2,137.7,165.8v471.9h-480.4v-893c0-17.1-13.9-31-31-31h-290C1653,803.4,1584.2,744,1501.8,744   c-93,0-168.7,75.7-168.7,168.7s75.7,168.7,168.7,168.7c82.4,0,151.2-59.4,165.8-137.7h259v862h-480.4v-441c0-17.1-13.9-31-31-31   h-331.9c-14.6-78.3-83.4-137.7-165.8-137.7c-93,0-168.7,75.7-168.7,168.7s75.7,168.7,168.7,168.7c82.4,0,151.2-59.4,165.8-137.7   h300.9v410h-149.7c-89.7,0-162.7,73-162.7,162.7v1063.2c0,89.7,73,162.7,162.7,162.7h149.7v410h-300.9   c-14.6-78.3-83.4-137.7-165.8-137.7c-93,0-168.7,75.7-168.7,168.7S824.4,3804,917.4,3804c82.4,0,151.2-59.4,165.8-137.7h331.9   c17.1,0,31-13.9,31-31v-441h480.4v862h-259c-14.6-78.3-83.4-137.7-165.8-137.7c-93,0-168.7,75.7-168.7,168.7   c0,93,75.7,168.7,168.7,168.7c82.4,0,151.2-59.4,165.8-137.7h290c17.1,0,31-13.9,31-31v-893H2469v471.9   c-78.3,14.6-137.7,83.4-137.7,165.8c0,93,75.7,168.7,168.7,168.7s168.7-75.7,168.7-168.7c0-82.4-59.4-151.2-137.7-165.8v-471.9   h480.4v893c0,17.1,13.9,31,31,31h290c14.6,78.3,83.4,137.7,165.8,137.7c93,0,168.7-75.7,168.7-168.7s-75.7-168.7-168.7-168.7   c-82.4,0-151.2,59.4-165.8,137.7h-259v-862h480.4v441c0,17.1,13.9,31,31,31h331.9c14.6,78.3,83.4,137.7,165.8,137.7   c93,0,168.7-75.7,168.7-168.7S4175.6,3466.7,4082.6,3466.7z M4082.6,1257.9c58.8,0,106.7,47.9,106.7,106.7s-47.9,106.7-106.7,106.7   s-106.7-47.9-106.7-106.7S4023.7,1257.9,4082.6,1257.9z M3498.2,806c58.8,0,106.7,47.9,106.7,106.7s-47.9,106.7-106.7,106.7   s-106.7-47.9-106.7-106.7C3391.5,853.8,3439.4,806,3498.2,806z M2393.3,1168c0-58.8,47.9-106.7,106.7-106.7s106.7,47.9,106.7,106.7   s-47.9,106.7-106.7,106.7S2393.3,1226.8,2393.3,1168z M1501.8,1019.4c-58.8,0-106.7-47.9-106.7-106.7S1442.9,806,1501.8,806   s106.7,47.9,106.7,106.7S1560.6,1019.4,1501.8,1019.4z M917.4,1471.3c-58.8,0-106.7-47.9-106.7-106.7s47.9-106.7,106.7-106.7   s106.7,47.9,106.7,106.7S976.3,1471.3,917.4,1471.3z M917.4,3742.1c-58.8,0-106.7-47.9-106.7-106.7s47.9-106.7,106.7-106.7   s106.7,47.9,106.7,106.7S976.3,3742.1,917.4,3742.1z M1501.8,4194c-58.8,0-106.7-47.9-106.7-106.7s47.9-106.7,106.7-106.7   s106.7,47.9,106.7,106.7C1608.5,4146.2,1560.6,4194,1501.8,4194z M2606.7,3832c0,58.8-47.9,106.7-106.7,106.7   s-106.7-47.9-106.7-106.7s47.9-106.7,106.7-106.7S2606.7,3773.2,2606.7,3832z M3498.2,3980.6c58.8,0,106.7,47.9,106.7,106.7   S3557,4194,3498.2,4194s-106.7-47.9-106.7-106.7S3439.4,3980.6,3498.2,3980.6z M1133.6,3031.6V1968.4   c0-55.6,45.2-100.8,100.8-100.8h2531.2c55.6,0,100.8,45.2,100.8,100.8v1063.2c0,55.6-45.2,100.8-100.8,100.8H1234.4   C1178.8,3132.4,1133.6,3087.2,1133.6,3031.6z M4082.6,3742.1c-58.8,0-106.7-47.9-106.7-106.7s47.9-106.7,106.7-106.7   c58.8,0,106.7,47.9,106.7,106.7S4141.4,3742.1,4082.6,3742.1z"/></g><text x="0" y="5015" fill="#000000" font-size="5px" font-weight="bold" font-family="'Helvetica Neue', Helvetica, Arial-Unicode, Arial, Sans-serif">Created by bsd studio</text><text x="0" y="5020" fill="#000000" font-size="5px" font-weight="bold" font-family="'Helvetica Neue', Helvetica, Arial-Unicode, Arial, Sans-serif">from the Noun Project</text></svg>