<svg xmlns="http://www.w3.org/2000/svg" version="1.1" viewBox="-5.0 -10.0 110.0 135.0">
 <path d="m50 11.645c-8.2344 0-15.695 1.4961-21.215 4-2.7578 1.25-5.0391 2.7539-6.6797 4.5117s-2.6445 3.8242-2.6445 6.0391v31.738l0.003906-0.003906v0.003906 0.023437 15.844 0.003907c0 2.2148 1.0078 4.2852 2.6445 6.043 1.6406 1.7578 3.918 3.2578 6.6758 4.5078 5.5156 2.5039 12.98 4 21.215 4s15.695-1.4961 21.215-4c2.7578-1.25 5.0391-2.75 6.6797-4.5078 1.6367-1.7539 2.6367-3.8164 2.6406-6.0234 0.003906-0.007813 0.003906-0.011719 0.003906-0.019531v-47.613c0-2.2148-1.0078-4.2812-2.6445-6.0391-1.6406-1.7578-3.918-3.2617-6.6758-4.5117-5.5156-2.5039-12.98-4-21.215-4zm0 2.5742c7.918 0 15.082 1.4727 20.152 3.7695 2.5352 1.1484 4.5391 2.5078 5.8594 3.9219 1.3203 1.4141 1.9531 2.8359 1.9531 4.2852 0 1.4492-0.63281 2.8711-1.9531 4.2852-1.3203 1.4141-3.3242 2.7734-5.8594 3.9219-5.0703 2.2969-12.234 3.7695-20.152 3.7695s-15.082-1.4727-20.152-3.7695c-2.5352-1.1484-4.5391-2.5078-5.8594-3.9219-1.3203-1.4141-1.9531-2.8398-1.9531-4.2852 0-1.4492 0.63281-2.8672 1.9531-4.2852 1.3203-1.4141 3.3242-2.7734 5.8594-3.9219 5.0703-2.2969 12.23-3.7695 20.152-3.7695zm27.965 17.934v9.9141c0 1.4492-0.63281 2.8711-1.9531 4.2852-1.3203 1.4141-3.3242 2.7734-5.8594 3.9219-5.0703 2.2969-12.234 3.7695-20.152 3.7695s-15.082-1.4727-20.152-3.7695c-2.5352-1.1484-4.5391-2.5078-5.8594-3.9219-1.3203-1.4141-1.9531-2.8398-1.9531-4.2852v-9.9102c0.023438 0.027344 0.046875 0.054688 0.070313 0.082031 1.6406 1.7578 3.9219 3.2578 6.6797 4.5117 5.5156 2.5039 12.977 4 21.215 4 8.2344 0 15.699-1.4961 21.215-4 2.7578-1.25 5.0352-2.7539 6.6758-4.5117 0.027344-0.027343 0.046875-0.054687 0.074219-0.085937zm0 15.871v9.9102-0.003906 0.003906c0 1.4492-0.63281 2.8711-1.9531 4.2852-1.3203 1.4141-3.3242 2.7734-5.8594 3.9219-5.0703 2.2969-12.23 3.7695-20.152 3.7695-7.918 0-15.086-1.4727-20.152-3.7695-2.5352-1.1484-4.5391-2.5078-5.8594-3.9219-1.3125-1.4062-1.9453-2.8203-1.9531-4.2617v-9.9375c0.023438 0.027344 0.046875 0.054688 0.070313 0.082031 1.6406 1.7578 3.9219 3.2578 6.6797 4.5117 5.5156 2.5039 12.977 4 21.215 4 8.2344 0 15.699-1.5 21.215-4 2.7578-1.25 5.0352-2.7539 6.6758-4.5117 0.027344-0.027343 0.046875-0.054687 0.074219-0.085937zm-55.93 15.871c0.023438 0.027344 0.046875 0.054688 0.070313 0.082031 1.6406 1.7578 3.918 3.2578 6.6758 4.5117 5.5156 2.5039 12.98 4 21.215 4s15.695-1.5 21.215-4c2.7578-1.25 5.0391-2.7539 6.6797-4.5117 0.023437-0.027343 0.046875-0.054687 0.070313-0.082031v9.9062h0.007812c-0.003906 0-0.003906 0.003907-0.003906 0.003907 0 1.4492-0.63281 2.8711-1.9531 4.2852-1.3203 1.4141-3.3242 2.7734-5.8594 3.9219-5.0703 2.2969-12.23 3.7695-20.152 3.7695-7.918 0-15.086-1.4688-20.152-3.7695-2.5352-1.1484-4.5391-2.5078-5.8594-3.9219-1.3203-1.4141-1.9492-2.832-1.9531-4.2773 0-0.003906 0-0.003906 0.003906-0.007812z"/>
<text x="0.0" y="117.5" font-size="5.0" font-weight="bold" font-family="Arbeit Regular, Helvetica, Arial-Unicode, Arial, Sans-serif" fill="#000000">Created by Lucas Rathgeb</text><text x="0.0" y="122.5" font-size="5.0" font-weight="bold" font-family="Arbeit Regular, Helvetica, Arial-Unicode, Arial, Sans-serif" fill="#000000">from Noun Project</text></svg>