<svg xmlns="http://www.w3.org/2000/svg" version="1.1" viewBox="-5.0 -10.0 110.0 135.0">
 <path d="m52.559 58.809h-5.1172c-0.52734 0-0.95703-0.42969-0.95703-0.95703 0-0.52734 0.42969-0.95703 0.95703-0.95703h5.1172c0.52734 0 0.95703 0.42969 0.95703 0.95703 0 0.52734-0.42969 0.95703-0.95703 0.95703z"/>
 <path d="m80.254 79.785c-2.5 0-4.9219-0.74219-6.9922-2.1094-2.0703-1.4062-3.6914-3.3398-4.6484-5.6445l-4.8242-11.504c-0.019531-0.019532-0.019531-0.039063-0.019531-0.078125-0.33203-0.97656-1.2695-1.6602-2.3242-1.6602h-0.97656c-0.52734 0-0.95703-0.42969-0.95703-0.95703 0-0.52734 0.42969-0.95703 0.95703-0.95703h0.97656c1.875 0 3.5156 1.1719 4.1211 2.9297l4.8047 11.484c0.82031 1.9336 2.1875 3.6133 3.9453 4.7852 1.7578 1.1719 3.8086 1.7969 5.9375 1.7969 2.8906 0 5.6055-1.2695 7.5-3.457 1.875-2.207 2.6758-5.0977 2.2266-7.9492l-5.2148-30.195c-0.99609-5.7031-5.8984-9.8438-11.699-9.8438h-46.094c-5.7812 0-10.703 4.1406-11.699 9.8438l-5.2344 30.234c-0.078124 0.50781-0.11719 1.0156-0.11719 1.582 0 5.4102 4.4141 9.8242 9.8242 9.8242 4.3359 0 8.2227-2.5781 9.8828-6.5625l4.8047-11.484c0.60547-1.7383 2.2461-2.9297 4.1211-2.9297h0.97656c0.52734 0 0.95703 0.42969 0.95703 0.95703s-0.42969 0.95703-0.95703 0.95703h-0.97656c-1.0742 0-1.9922 0.66406-2.3242 1.6406-0.019531 0.019531-0.019531 0.039063-0.019531 0.078125l-4.8242 11.504c-1.9727 4.707-6.543 7.7539-11.641 7.7539-6.4648 0-11.738-5.2539-11.738-11.719 0-0.66406 0.039063-1.2695 0.15625-1.8945l5.2344-30.254c1.1523-6.6211 6.8555-11.426 13.574-11.426h46.094c6.7188 0 12.422 4.8047 13.574 11.426l5.2148 30.215c0.54688 3.418-0.41016 6.875-2.6562 9.4922-2.2266 2.6172-5.4883 4.1211-8.9453 4.1211z"/>
 <path d="m56.523 62.754c-2.6953 0-4.9023-2.207-4.9023-4.9023 0-2.6953 2.207-4.9023 4.9023-4.9023 2.6953 0 4.9023 2.207 4.9023 4.9023 0 2.7148-2.1875 4.9023-4.9023 4.9023zm0-7.8906c-1.6406 0-2.9883 1.3477-2.9883 2.9883 0 1.6406 1.3477 2.9883 2.9883 2.9883 1.6406 0 2.9883-1.3477 2.9883-2.9883 0-1.6406-1.3281-2.9883-2.9883-2.9883z"/>
 <path d="m43.496 62.754c-2.6953 0-4.9023-2.207-4.9023-4.9023 0-2.6953 2.207-4.9023 4.9023-4.9023 2.6953 0 4.9023 2.207 4.9023 4.9023 0 2.7148-2.1875 4.9023-4.9023 4.9023zm0-7.8906c-1.6406 0-2.9883 1.3477-2.9883 2.9883 0 1.6406 1.3477 2.9883 2.9883 2.9883s2.9883-1.3477 2.9883-2.9883c0-1.6406-1.3281-2.9883-2.9883-2.9883z"/>
 <path d="m58.301 31.895h-16.738c-1.0742 0-1.9922-0.74219-2.2266-1.7969l-0.91797-4.3945c-0.11719-0.50781 0.21484-1.0352 0.74219-1.1133 0.50781-0.11719 1.0352 0.21484 1.1133 0.74219l0.91797 4.3945c0.039063 0.17578 0.17578 0.29297 0.35156 0.29297h16.738c0.17578 0 0.3125-0.11719 0.35156-0.25391l1.0938-4.4531c0.11719-0.50781 0.64453-0.83984 1.1523-0.68359 0.50781 0.11719 0.82031 0.64453 0.68359 1.1523l-1.0742 4.4141c-0.21484 0.9375-1.1523 1.6992-2.1875 1.6992z"/>
 <path d="m54.316 44.082h-1.8359c-0.52734 0-0.95703-0.42969-0.95703-0.95703s0.42969-0.95703 0.95703-0.95703h1.8359c0.52734 0 0.95703 0.42969 0.95703 0.95703s-0.42969 0.95703-0.95703 0.95703z"/>
 <path d="m47.539 44.082h-1.8359c-0.52734 0-0.95703-0.42969-0.95703-0.95703s0.42969-0.95703 0.95703-0.95703h1.8359c0.52734 0 0.95703 0.42969 0.95703 0.95703s-0.42969 0.95703-0.95703 0.95703z"/>
 <path d="m28.652 40.156c-1.9922 0-3.6133-1.6211-3.6133-3.6133 0-1.9922 1.6211-3.6133 3.6133-3.6133 1.9922 0 3.6133 1.6211 3.6133 3.6133 0 1.9922-1.6211 3.6133-3.6133 3.6133zm0-5.293c-0.9375 0-1.6992 0.76172-1.6992 1.6992s0.76172 1.6992 1.6992 1.6992 1.6992-0.76172 1.6992-1.6992-0.76172-1.6992-1.6992-1.6992z"/>
 <path d="m28.652 53.281c-1.9922 0-3.6133-1.6211-3.6133-3.6133 0-1.9922 1.6211-3.6133 3.6133-3.6133 1.9922 0 3.6133 1.6211 3.6133 3.6133-0.019531 1.9922-1.6211 3.6133-3.6133 3.6133zm0-5.3125c-0.9375 0-1.6992 0.76172-1.6992 1.6992s0.76172 1.6992 1.6992 1.6992 1.6992-0.76172 1.6992-1.6992-0.76172-1.6992-1.6992-1.6992z"/>
 <path d="m22.09 46.738c-1.9922 0-3.6133-1.6211-3.6133-3.6133s1.6211-3.6133 3.6133-3.6133c1.9922 0 3.6133 1.6211 3.6133 3.6133s-1.6211 3.6133-3.6133 3.6133zm0-5.3125c-0.9375 0-1.6992 0.76172-1.6992 1.6992s0.76172 1.6992 1.6992 1.6992 1.6992-0.76172 1.6992-1.6992-0.76172-1.6992-1.6992-1.6992z"/>
 <path d="m35.195 46.738c-1.9922 0-3.6133-1.6211-3.6133-3.6133s1.6211-3.6133 3.6133-3.6133c1.9922 0 3.6133 1.6211 3.6133 3.6133s-1.6211 3.6133-3.6133 3.6133zm0-5.3125c-0.9375 0-1.6992 0.76172-1.6992 1.6992s0.76172 1.6992 1.6992 1.6992 1.6992-0.76172 1.6992-1.6992-0.76172-1.6992-1.6992-1.6992z"/>
 <path d="m73.398 53.242h-4.043c-0.89844 0-1.6211-0.74219-1.6211-1.6211v-4.8633h-4.8633c-0.89844 0-1.6211-0.74219-1.6211-1.6211v-4.043c-0.019531-0.41016 0.13672-0.83984 0.42969-1.1328 0.3125-0.3125 0.74219-0.50781 1.1914-0.50781h4.8633v-4.8828c0-0.89844 0.74219-1.6211 1.6211-1.6211h4.043c0.89844 0 1.6211 0.74219 1.6211 1.6211v4.8828h4.8633c0.89844 0 1.6211 0.74219 1.6211 1.6211v4.043c0 0.89844-0.74219 1.6211-1.6211 1.6211h-4.8633v4.8633c0 0.91797-0.72266 1.6406-1.6211 1.6406zm-3.7695-1.9141h3.4766v-5.5273c0-0.52734 0.42969-0.95703 0.95703-0.95703h5.5273v-3.4766h-5.5273c-0.52734 0-0.95703-0.42969-0.95703-0.95703v-5.5273h-3.4766v5.5273c0 0.52734-0.42969 0.95703-0.95703 0.95703h-5.5273v3.4766h5.5273c0.52734 0 0.95703 0.42969 0.95703 0.95703z"/>
 <path d="m71.523 26.445c-0.52734 0-0.95703-0.42969-0.95703-0.95703v-3.3594c0-0.019531-0.019531-0.039062-0.039062-0.039062h-4.7461c-0.019531 0-0.039062 0.019531-0.039062 0.039062v3.3398c0 0.52734-0.42969 0.95703-0.95703 0.95703s-0.95703-0.42969-0.95703-0.95703v-3.3398c0-1.0742 0.87891-1.9336 1.9336-1.9336h4.7656c1.0742 0 1.9336 0.87891 1.9336 1.9336v3.3594c0.019531 0.52734-0.41016 0.95703-0.9375 0.95703z"/>
 <path d="m35.254 26.445c-0.52734 0-0.95703-0.42969-0.95703-0.95703v-3.3594c0-0.019531-0.019531-0.039062-0.039063-0.039062h-4.7461c-0.019531 0-0.039063 0.019531-0.039063 0.039062v3.3398c0 0.52734-0.42969 0.95703-0.95703 0.95703s-0.95703-0.42969-0.95703-0.95703v-3.3398c0-1.0742 0.87891-1.9336 1.9336-1.9336h4.7461c1.0742 0 1.9336 0.87891 1.9336 1.9336v3.3594c0.039063 0.52734-0.39062 0.95703-0.91797 0.95703z"/>
 <path d="m84.824 78.809c-0.27344 0-0.56641-0.11719-0.74219-0.35156-2.0703-2.6562-3.2227-6.25-3.2227-10.156 0-3.1445 0.78125-6.2109 2.207-8.6523 1.4453-2.4609 3.4766-4.1992 5.7422-4.8438 0.50781-0.15625 1.0352 0.13672 1.1719 0.64453 0.15625 0.50781-0.13672 1.0352-0.64453 1.1719-3.7891 1.1133-6.5625 5.9961-6.5625 11.66 0 3.418 1.0352 6.6992 2.8125 8.9648 0.3125 0.41016 0.25391 1.0156-0.17578 1.3477-0.17578 0.13672-0.37109 0.21484-0.58594 0.21484z"/>
 <path d="m15.078 78.75c-0.21484 0-0.41016-0.078125-0.58594-0.21484-0.41016-0.3125-0.48828-0.9375-0.17578-1.3477 1.7578-2.2656 2.7734-5.5078 2.7734-8.9062 0-5.5664-2.7148-10.449-6.4453-11.641-0.50781-0.15625-0.78125-0.68359-0.625-1.1914 0.15625-0.50781 0.68359-0.78125 1.1914-0.625 4.5898 1.4453 7.793 6.9727 7.793 13.438 0 3.8281-1.1719 7.5-3.1836 10.098-0.17578 0.25391-0.44922 0.39062-0.74219 0.39062z"/>
<text x="0.0" y="117.5" font-size="5.0" font-weight="bold" font-family="Arbeit Regular, Helvetica, Arial-Unicode, Arial, Sans-serif" fill="#000000">Created by Muhammad Shayan</text><text x="0.0" y="122.5" font-size="5.0" font-weight="bold" font-family="Arbeit Regular, Helvetica, Arial-Unicode, Arial, Sans-serif" fill="#000000">from Noun Project</text></svg>