<svg xmlns="http://www.w3.org/2000/svg" version="1.1" viewBox="-5.0 -10.0 110.0 135.0">
 <path d="m73.738 81.855h-4.2344v8.1914c0 1.2695-1.0273 2.2969-2.2969 2.2969s-2.2969-1.0273-2.2969-2.2969v-8.1914h-12.617v14.844c0 1.2656-1.0273 2.2969-2.2969 2.2969-1.2695 0-2.2969-1.0273-2.2969-2.2969v-14.844h-12.617v8.1914c0 1.2695-1.0273 2.2969-2.2969 2.2969-1.2695 0-2.2969-1.0273-2.2969-2.2969v-8.1914h-4.2344c-2.293 0-4.3711-0.9375-5.8789-2.4414-1.5078-1.5078-2.4453-3.5898-2.4453-5.8789v-4.0273h-7.9883c-1.2695 0-2.2969-1.0273-2.2969-2.2969 0-1.2695 1.0273-2.2969 2.2969-2.2969h7.9883v-12.617h-14.637c-1.2656 0-2.2969-1.0273-2.2969-2.2969s1.0273-2.2969 2.2969-2.2969h14.637v-12.617h-7.9883c-1.2695 0-2.2969-1.0273-2.2969-2.2969 0-1.2695 1.0273-2.2969 2.2969-2.2969h7.9883v-4.0273c0-2.293 0.9375-4.3711 2.4453-5.8789 1.5078-1.5078 3.5898-2.4453 5.8789-2.4453h4.2344v-8.1914c0-1.2695 1.0273-2.2969 2.2969-2.2969 1.2695 0 2.2969 1.0273 2.2969 2.2969v8.1914h12.617v-14.84c0-1.2656 1.0273-2.2969 2.2969-2.2969 1.2695 0 2.2969 1.0273 2.2969 2.2969v14.84h12.617v-8.1914c0-1.2695 1.0273-2.2969 2.2969-2.2969s2.2969 1.0273 2.2969 2.2969v8.1914h4.2344c2.2891 0 4.3711 0.9375 5.8789 2.4453 1.5078 1.5078 2.4453 3.5898 2.4453 5.8789v4.0273h7.9883c1.2695 0 2.2969 1.0273 2.2969 2.2969 0 1.2695-1.0273 2.2969-2.2969 2.2969h-7.9883v12.617h14.637c1.2656 0 2.2969 1.0273 2.2969 2.2969s-1.0273 2.2969-2.2969 2.2969h-14.637v12.617h7.9883c1.2695 0 2.2969 1.0273 2.2969 2.2969 0 1.2695-1.0273 2.2969-2.2969 2.2969h-7.9883v4.0273c0 2.2891-0.9375 4.3711-2.4453 5.8789-1.5078 1.5078-3.5898 2.4414-5.8789 2.4414zm-38.23-43.836c-0.63281-1.0938-0.26172-2.4961 0.83594-3.1328 1.0938-0.63281 2.4961-0.26172 3.1328 0.83594l15.164 26.258c0.63281 1.0938 0.26172 2.4961-0.83594 3.1289-1.0938 0.63281-2.4961 0.26172-3.1328-0.83594l-15.16-26.258zm17-0.007812c-0.62891-1.0938-0.25391-2.4922 0.84375-3.1211 1.0938-0.62891 2.4922-0.25391 3.1211 0.84375l8.0195 13.891c0.62891 1.0938 0.25391 2.4922-0.84375 3.1211-1.0938 0.62891-2.4922 0.25391-3.1211-0.84375zm-29.977 28.25c0.13281 0.28906 0.20312 0.60938 0.20312 0.94922 0 0.33984-0.070313 0.66016-0.20312 0.94922v5.375c0 1.0234 0.42188 1.957 1.0977 2.6328 0.67969 0.67969 1.6094 1.0977 2.6328 1.0977h47.477c1.0234 0 1.957-0.42188 2.6328-1.0977 0.67969-0.67969 1.0977-1.6094 1.0977-2.6328v-5.375c-0.13281-0.28906-0.20312-0.61328-0.20312-0.94922 0-0.33984 0.070313-0.66016 0.20312-0.94922v-15.312c-0.13281-0.28906-0.20312-0.61328-0.20312-0.94922 0-0.33984 0.070313-0.66016 0.20312-0.94922v-15.312c-0.13281-0.28906-0.20312-0.60938-0.20312-0.94922 0-0.33984 0.070313-0.66016 0.20312-0.94922v-5.375c0-1.0234-0.42188-1.957-1.0977-2.6328-0.67969-0.67969-1.6094-1.0977-2.6328-1.0977h-47.477c-1.0234 0-1.957 0.42188-2.6328 1.0977-0.67969 0.67969-1.0977 1.6094-1.0977 2.6328v5.375c0.13281 0.28906 0.20312 0.61328 0.20312 0.94922 0 0.33984-0.070313 0.66016-0.20312 0.94922v15.312c0.13281 0.28906 0.20312 0.61328 0.20312 0.94922 0 0.33984-0.070313 0.66016-0.20312 0.94922z"/>
<text x="0.0" y="117.5" font-size="5.0" font-weight="bold" font-family="Arbeit Regular, Helvetica, Arial-Unicode, Arial, Sans-serif" fill="#000000">Created by UNKNOWN</text><text x="0.0" y="122.5" font-size="5.0" font-weight="bold" font-family="Arbeit Regular, Helvetica, Arial-Unicode, Arial, Sans-serif" fill="#000000">from Noun Project</text></svg>