<svg xmlns="http://www.w3.org/2000/svg" version="1.1" viewBox="-5.0 -10.0 110.0 135.0">
 <path d="m19.754 59.527v-0.027344c0-0.55078 0.44922-1 1-1h2.6797v-29.609c0-0.10938 0.019531-0.21484 0.050781-0.31641 2.1328-9.4531 7.1758-16.055 13.379-19.82 4.1211-2.5039 8.7578-3.7539 13.395-3.7539 4.6367 0 9.2812 1.25 13.41 3.7422 6.2617 3.7773 11.363 10.402 13.516 19.836 0.03125 0.097656 0.050781 0.20312 0.050781 0.3125v29.609h2.0156c0.55078 0 1 0.44922 1 1v14.543c0 0.55078-0.44922 1-1 1h-11.457c0.035156 2.2461-0.046875 3.4883-0.58594 4.2891-0.61719 0.92188-1.4727 1.0859-2.918 1.0898-0.015624 1.7539-0.023437 3.7617-0.023437 6.0039 0 2.6836 0.011719 5.1797 0.035156 7.4609l0.007813 0.10938c0 0.55078-0.44922 1-1 1h-3.8008c-0.55078 0-1-0.44922-1-1l0.003907-0.09375c-0.027344-2.8789-0.042969-5.3672-0.042969-7.4805 0-1.8828 0.011719-3.8789 0.03125-6.0039-1.4297-0.003907-2.2773-0.17188-2.8945-1.0898-0.53906-0.80469-0.62109-2.043-0.58594-4.2891h-9.1602c0.027344 2.2656-0.089844 3.5195-0.66016 4.3164-0.64453 0.90234-1.5195 1.0625-2.9648 1.0625-0.015625 1.7578-0.027344 3.7539-0.027344 6.0039 0 2.6914 0.011719 5.1719 0.035157 7.4609l0.007812 0.10938c0 0.55078-0.44922 1-1 1h-3.8008c-0.55078 0-1-0.44922-1-1l0.003906-0.09375c-0.027344-2.8711-0.042969-5.375-0.042969-7.4805 0-1.875 0.011719-3.8828 0.035156-6.0039-1.4336-0.003906-2.2734-0.17187-2.8789-1.0977-0.52734-0.80078-0.59375-2.0391-0.55469-4.2812h-12.246c-0.55078 0-1-0.44922-1-1v-14.516zm31.551-16.656c-0.98438-1.7578-1.9805-2.9805-2.9805-3.6758-0.57812-0.40234-1.1602-0.61719-1.7344-0.64062-0.57422-0.023438-1.1797 0.13672-1.8086 0.48828l-0.046875 0.027343c-1.1211 0.64063-2.3008 1.8555-3.5352 3.6367-0.3125 0.45312-0.93359 0.56641-1.3867 0.25391s-0.56641-0.93359-0.25391-1.3867c1.4102-2.0312 2.8086-3.4492 4.1953-4.2383l0.054688-0.03125c0.95703-0.53516 1.9141-0.78125 2.8672-0.73828 0.95703 0.039063 1.8867 0.375 2.7773 0.99219 0.97266 0.67578 1.9141 1.7031 2.8164 3.0781 1.125-1.4141 2.2422-2.4336 3.3516-3.0547 0.95703-0.53516 1.9141-0.78125 2.8633-0.73828 0.95703 0.042969 1.8867 0.375 2.7773 0.99609 1.2539 0.86719 2.4492 2.3203 3.5859 4.3438l0.011719 0.019531 0.007813 0.011719 0.003906 0.007812 0.007812 0.011719 0.039063 0.078125 0.007812 0.019531v0.003907l0.007813 0.019531v0.003906l0.007812 0.019531v0.003906l0.007813 0.019532v0.003906l0.007812 0.019531v0.003907l0.007813 0.019531v0.003906l0.007812 0.019531v0.003906l0.007813 0.019532v0.003906l0.003906 0.019531v0.003907l0.003906 0.019531v0.003906l0.003907 0.019531v0.003906l0.003906 0.019532v15.914h10.23v-29.512c-2.0273-8.8398-6.7734-15.023-12.594-18.531-3.8203-2.3047-8.1055-3.4609-12.383-3.4609s-8.5586 1.1523-12.363 3.4648c-5.7578 3.4961-10.449 9.6641-12.457 18.523v29.516h9.0781l0.019532-5.1797-0.019532-5.9375-0.003906-0.10547c0-0.55078 0.44922-1 1-1h8.4961c0.21875 0 0.42188 0.070312 0.58594 0.19141l0.83984 0.50391c2.9727 1.7227 5.5234 2.4492 7.6484 2.1797 2.0195-0.25781 3.7148-1.457 5.0703-3.5977l0.27734-0.46094c0.11719-0.19141 0.28906-0.33203 0.48438-0.41016l0.015625-0.007812h0.007813l0.11719-0.035157 0.011719-0.003906h0.011718l0.011719-0.003906h0.011719l0.023438-0.003907 0.011718-0.003906h0.015625l0.007813-0.003906h0.050781c0.19922-0.015625 0.40625 0.03125 0.58984 0.14062 0.19141 0.11719 0.33203 0.28906 0.41016 0.48438l0.007813 0.015625v0.007813l0.035156 0.11719 0.003906 0.011719v0.011718l0.003906 0.011719v0.011719l0.003906 0.023438 0.003907 0.011718v0.015625l0.003906 0.007813v0.050781l0.003906 0.09375v0.023437c0.12891 4.4688-1.2305 7.5312-4.082 9.1758-2.7266 1.5781-6.7891 1.7539-12.168 0.52344-0.57422 0.007813-0.95703 0.22656-1.1445 0.65234-0.24219 0.54297-0.29297 1.375-0.16016 2.4883h20.289v-15.539c-0.94922-1.6562-1.9102-2.8203-2.8711-3.4844-0.57812-0.40234-1.1602-0.61719-1.7344-0.64062-0.57813-0.023438-1.1836 0.13672-1.8125 0.48828-1.1289 0.62891-2.3164 1.8438-3.5625 3.6328l-0.011719 0.019531-0.007813 0.011719-0.007812 0.007812-0.007813 0.011719-0.003906 0.007812-0.027344 0.03125-0.003906 0.007813-0.015625 0.015625-0.011719 0.015625-0.082031 0.082031-0.015625 0.011719-0.003906 0.003906-0.015625 0.011719-0.003906 0.003906-0.015626 0.011719-0.003906 0.003906-0.015625 0.011719-0.003906 0.003906-0.015625 0.011719-0.003906 0.003906-0.015625 0.011719-0.003907 0.003906-0.023437 0.011719-0.011719 0.007812-0.007812 0.003906-0.011719 0.007813-0.007813 0.007813-0.046874 0.03125-0.078126 0.039062-0.019531 0.007812h-0.003906l-0.019531 0.007813h-0.003906l-0.019532 0.007813h-0.003906l-0.019531 0.007812h-0.003907l-0.019531 0.007812h-0.003906l-0.019531 0.007813-0.14062 0.023437h-0.14844l-0.019531-0.003906h-0.003906l-0.019532-0.003906h-0.003906l-0.023437-0.003906h-0.003907l-0.019531-0.003906h-0.003906l-0.019531-0.003907h-0.003906l-0.019532-0.003906-0.023437-0.003906-0.09375-0.03125-0.019531-0.007813h-0.003907l-0.019531-0.007812h-0.003906l-0.019532-0.007813h-0.003906l-0.019531-0.007812h-0.003906l-0.019531-0.007813-0.003907-0.003906-0.070312-0.035156-0.011719-0.007813-0.007812-0.003906-0.011719-0.007813-0.007813-0.007812-0.023437-0.015625-0.007813-0.007813-0.011718-0.007812-0.007813-0.003906-0.03125-0.027344-0.007813-0.003906-0.015624-0.015625-0.015626-0.011719-0.082031-0.082031-0.011719-0.015625-0.003906-0.003906-0.011718-0.015626-0.003907-0.003906-0.011719-0.015625-0.003906-0.003906-0.011718-0.015625-0.003907-0.003906-0.011719-0.015625-0.003906-0.003907-0.011718-0.015624-0.003907-0.003907-0.011719-0.023437-0.007812-0.011719-0.003906-0.007813-0.007813-0.011718-0.007812-0.007813-0.007813-0.011719-0.011718-0.019531zm6.7344 5.9727c-1.3555 1.2969-2.9297 2.0586-4.7148 2.2852-2.5742 0.32812-5.5391-0.48438-8.8945-2.4297l-0.69922-0.42188h-7.2266l0.027344 5.0391-0.027344 5.1797h4.2148c-0.14062-1.3789-0.03125-2.4766 0.33203-3.293 0.55078-1.2422 1.5664-1.8555 3.043-1.8398h0.17578l0.019531 0.003907h0.003907l0.070312 0.011718c4.9219 1.1367 8.5352 1.043 10.828-0.28516 1.4805-0.85547 2.4258-2.2773 2.8477-4.2617zm-17.801 44.148c-0.023437-2.4961-0.035156-4.6914-0.035156-6.5703 0-2.1641 0.015625-4.4961 0.046875-6.9844v-0.15234l0.003906-0.015625v-0.007812l0.003906-0.015625v-0.007813l0.003907-0.015625v-0.007812l0.003906-0.015625v-0.007813l0.003906-0.015625v-0.007812l0.003907-0.015625 0.003906-0.007813 0.003906-0.015625 0.003906-0.007812 0.003906-0.015625 0.003907-0.007813 0.003906-0.015625 0.003906-0.007812 0.003907-0.015625 0.0625-0.125 0.007812-0.011719 0.015625-0.03125 0.007813-0.011719 0.003906-0.007812 0.007812-0.011719 0.003906-0.007813 0.007813-0.011718 0.003906-0.007813 0.007813-0.011719 0.003906-0.007812 0.007812-0.011719 0.007813-0.007812 0.007813-0.011719 0.003906-0.007812 0.011718-0.011719 0.003907-0.007813 0.03125-0.03125 0.003906-0.007812 0.058594-0.058594 0.011719-0.007812 0.019531-0.019532 0.007812-0.003906 0.011719-0.007812 0.007812-0.007813 0.011719-0.007813 0.007813-0.003906 0.011718-0.007812 0.007813-0.003906 0.011719-0.007813 0.007812-0.003906 0.011719-0.007813 0.007813-0.003906 0.011718-0.007812 0.03125-0.015626 0.011719-0.007812 0.14844-0.074219 0.015626-0.003906 0.03125-0.015625 0.015624-0.003906 0.007813-0.003906 0.015625-0.003907h0.007812l0.015626-0.003906 0.007812-0.003906 0.015625-0.003907 0.007813-0.003906 0.015624-0.003906h0.007813l0.015625-0.003906 0.007812-0.003906 0.015626-0.003907h0.03125l0.015624-0.003906h0.12891c1.3594 0.03125 2.0977 0.039063 2.2852-0.22266 0.27344-0.38281 0.32422-1.332 0.29688-3.1523h-8.875c-0.035156 1.8398-0.007812 2.8125 0.23828 3.1875 0.14453 0.22656 0.83984 0.21875 2.1758 0.1875h0.13672l0.019531 0.003906h0.007813l0.019531 0.003907h0.007813l0.019531 0.003906h0.007812l0.019532 0.003906h0.007812l0.019532 0.003906h0.007812l0.015625 0.003906 0.007813 0.003907 0.015624 0.003906h0.007813l0.015625 0.003906 0.007812 0.003907 0.015626 0.003906 0.023437 0.011718h0.007813l0.25781 0.12891 0.015625 0.011719 0.007813 0.003906 0.011718 0.011718 0.007813 0.003907 0.011719 0.011719 0.007812 0.003906 0.011719 0.011718 0.007812 0.003907 0.011719 0.011719 0.007812 0.003906 0.03125 0.03125 0.003907 0.007812 0.03125 0.03125 0.003906 0.007813 0.011719 0.011719 0.003906 0.007812 0.011719 0.011719 0.003906 0.007812 0.011719 0.011719 0.003906 0.007812 0.011719 0.011719 0.003906 0.007813 0.023437 0.03125 0.14453 0.28906 0.003906 0.015625 0.003906 0.007813 0.003906 0.015625 0.003907 0.007812 0.003906 0.015625v0.007813l0.007813 0.042969v0.007812l0.003906 0.019531v0.007813l0.003906 0.019531v0.007813l0.003906 0.019531v0.007812l0.003906 0.019531v0.16406c-0.023437 1.9766-0.035156 4.2891-0.035156 6.957 0 2.3477 0.007813 4.5312 0.027344 6.5703h1.8086zm22.059 0c-0.023437-2.5-0.035156-4.6836-0.035156-6.5703 0-2.168 0.015625-4.4922 0.042969-6.9844v-0.15234l0.003906-0.015625v-0.007812l0.003906-0.015625v-0.007813l0.003906-0.015625v-0.007812l0.003906-0.015625v-0.007813l0.003907-0.015625v-0.007812l0.003906-0.015625 0.003906-0.007813 0.003907-0.015625 0.003906-0.007812 0.003906-0.015625 0.003906-0.007813 0.003906-0.015625 0.003907-0.007812 0.003906-0.015625 0.0625-0.125 0.007813-0.011719 0.015624-0.03125 0.007813-0.011719 0.003906-0.007812 0.007813-0.011719 0.003906-0.007813 0.007812-0.011718 0.003907-0.007813 0.007812-0.011719 0.003907-0.007812 0.007812-0.011719 0.007812-0.007812 0.007813-0.011719 0.003906-0.007812 0.011719-0.011719 0.003906-0.007813 0.03125-0.03125 0.003906-0.007812 0.058594-0.058594 0.011719-0.007812 0.019531-0.019532 0.007813-0.003906 0.011719-0.007812 0.007812-0.007813 0.011719-0.007813 0.007812-0.003906 0.011719-0.007812 0.007812-0.003906 0.011719-0.007813 0.007813-0.003906 0.011718-0.007813 0.007813-0.003906 0.011719-0.007812 0.03125-0.015626 0.011718-0.007812 0.14844-0.074219 0.015625-0.003906 0.03125-0.015625 0.015625-0.003906 0.007812-0.003906 0.015626-0.003907h0.007812l0.015625-0.003906 0.007813-0.003906 0.015624-0.003907 0.007813-0.003906 0.015625-0.003906h0.007812l0.015626-0.003906 0.007812-0.003906 0.015625-0.003907h0.03125l0.015625-0.003906h0.12891c1.3438 0.03125 2.0508 0.039063 2.207-0.19531 0.25-0.375 0.28516-1.3438 0.25-3.1797h-8.793c-0.035157 1.8359 0 2.8047 0.25 3.1797 0.15625 0.23438 0.85938 0.22656 2.207 0.19531h0.13672l0.019531 0.003906h0.007812l0.019532 0.003907h0.007812l0.019532 0.003906h0.007812l0.019531 0.003906h0.007813l0.019531 0.003906h0.007813l0.015624 0.003906 0.007813 0.003907 0.015625 0.003906h0.007812l0.015626 0.003906 0.007812 0.003907 0.015625 0.003906 0.023437 0.011718h0.007813l0.25781 0.12891 0.015624 0.011719 0.007813 0.003906 0.011719 0.011718 0.007812 0.003907 0.011719 0.011719 0.007813 0.003906 0.011718 0.011718 0.007813 0.003907 0.011719 0.011719 0.007812 0.003906 0.03125 0.03125 0.003906 0.007812 0.03125 0.03125 0.003906 0.007813 0.011719 0.011719 0.003907 0.007812 0.011718 0.011719 0.003906 0.007812 0.011719 0.011719 0.003907 0.007812 0.011718 0.011719 0.003906 0.007813 0.023438 0.03125 0.14453 0.28906 0.003907 0.015625 0.003906 0.007813 0.003906 0.015625 0.003906 0.007812 0.003906 0.015625v0.007813l0.007813 0.042969v0.007812l0.003906 0.019531v0.007813l0.003907 0.019531v0.007813l0.003906 0.019531v0.007812l0.003906 0.019531v0.16406c-0.023438 1.9688-0.035156 4.2969-0.035156 6.957 0 2.3398 0.007812 4.5352 0.027344 6.5703h1.8086zm-40.543-19.953h56.488v-12.539h-56.492v12.539z"/>
<text x="0.0" y="117.5" font-size="5.0" font-weight="bold" font-family="Arbeit Regular, Helvetica, Arial-Unicode, Arial, Sans-serif" fill="#000000">Created by Ajik Sugeng</text><text x="0.0" y="122.5" font-size="5.0" font-weight="bold" font-family="Arbeit Regular, Helvetica, Arial-Unicode, Arial, Sans-serif" fill="#000000">from Noun Project</text></svg>