<svg xmlns="http://www.w3.org/2000/svg" version="1.1" viewBox="-5.0 -10.0 110.0 135.0">
 <path d="m34.148 67.02v3.6797h4.5703l0.003906-3.6797zm13.566 0v3.6797h4.5703v-3.6797zm21.133-6.1523h-37.695v3.7578l37.695-0.003906zm-5.2891 9.832h2.293v-3.6797h-4.5742v3.6797zm-12.359 2.4023v20.699c0 0.66016-0.53516 1.1992-1.1992 1.1992s-1.1992-0.53906-1.1992-1.1992v-20.699h-2.2852c-0.66406 0-1.1992-0.53906-1.1992-1.2031v-4.8789h-4.1992v4.8789c0 0.66406-0.53906 1.2031-1.2031 1.2031h-2.2812v4.4727c0 0.45703-0.26172 0.875-0.67578 1.0781l-3.9141 2.2578 0.003906 12.891c0 0.66016-0.53906 1.1992-1.2031 1.1992-0.66016 0-1.1992-0.53906-1.1992-1.1992v-13.582c0-0.42969 0.23047-0.82422 0.60156-1.0352l3.9883-2.3008v-3.7812h-2.2852c-0.66016 0-1.1992-0.53906-1.1992-1.2031v-4.8789h-1.8008c-0.66016 0-1.1992-0.53516-1.1992-1.1992v-23.688c0-7.5898 4.0508-14.602 10.621-18.398 6.5742-3.793 14.672-3.793 21.242 0 6.5742 3.7969 10.621 10.809 10.621 18.398v23.688c0 0.66406-0.53516 1.1992-1.1992 1.1992h-1.8008v4.8789c0 0.66406-0.53516 1.2031-1.1992 1.2031h-2.2734v3.7852l3.9883 2.3008v-0.003906c0.37109 0.21484 0.59766 0.60938 0.60156 1.0352v13.582c0.019532 0.33203-0.097656 0.65625-0.32422 0.89844-0.22656 0.24219-0.54297 0.37891-0.875 0.37891-0.33203 0-0.64844-0.13672-0.875-0.37891-0.22656-0.24219-0.34375-0.56641-0.32031-0.89844v-12.898l-3.9141-2.2578v-0.003906c-0.41406-0.19922-0.67578-0.61719-0.67578-1.0781v-4.4609h-2.2852c-0.66406 0-1.1992-0.53906-1.1992-1.2031v-4.8789h-4.1992l-0.003906 4.8789c0 0.66406-0.53516 1.2031-1.1992 1.2031zm5.1875-27.133-7.5-5.918-5.2773 5.1406 0.003906 13.277h12.773v-12.504zm-14.742-2.1992 6.3281-6.168c0.44922-0.4375 1.1562-0.45312 1.625-0.039062l8.6367 6.8164v0.003906c0.33984 0.21875 0.54688 0.59766 0.54688 1.0039v13.082h10.066v-16.336c0-6.7344-3.5938-12.957-9.4258-16.324-5.8281-3.3672-13.016-3.3672-18.844 0-5.832 3.3672-9.4258 9.5898-9.4258 16.324v16.336h10.066v-13.785c0-0.35156 0.15625-0.6875 0.42578-0.91406zm-4.1641 0.20703c0.015625-3.8438 1.5469-7.5273 4.2617-10.246 2.7188-2.7148 6.4023-4.25 10.246-4.2617 0.66016 0 1.1992-0.53516 1.1992-1.1992 0-0.66406-0.53906-1.1992-1.1992-1.1992-4.4805 0.011719-8.7695 1.7969-11.938 4.9609-3.168 3.168-4.9492 7.4609-4.9648 11.938-0.019532 0.33203 0.097656 0.65625 0.32422 0.89844 0.22656 0.24219 0.54297 0.37891 0.875 0.37891 0.33203 0 0.64844-0.13672 0.875-0.37891 0.22656-0.24219 0.34375-0.56641 0.32031-0.89844zm38.859 0.68359v-0.003906c-0.32812 0.023438-0.65625-0.09375-0.89844-0.32031-0.24219-0.22656-0.37891-0.54297-0.37891-0.875 0-0.33203 0.13672-0.64844 0.37891-0.875 0.24219-0.22656 0.57031-0.34375 0.89844-0.32422h8.2695c0.33203-0.019531 0.65625 0.097656 0.89844 0.32422 0.24219 0.22656 0.37891 0.54297 0.37891 0.875 0 0.33203-0.13672 0.64844-0.37891 0.875-0.24219 0.22656-0.56641 0.34375-0.89844 0.32031zm-0.96094-10.512c-0.59375 0.1875-1.2344-0.10938-1.4727-0.68359-0.23828-0.57422 0.003906-1.2344 0.55469-1.5234l7.8711-3.293h-0.003906c0.30078-0.15625 0.64844-0.17969 0.96484-0.0625 0.31641 0.11328 0.57031 0.35547 0.69922 0.66797 0.12891 0.30859 0.12109 0.66016-0.019532 0.96484s-0.40625 0.53516-0.72656 0.63672l-7.8711 3.293zm-24.152-18.93c0 0.66406-0.53906 1.2031-1.2031 1.2031-0.66016 0-1.1992-0.53906-1.1992-1.2031v-9.0195c0-0.66016 0.53906-1.1992 1.1992-1.1992 0.66406 0 1.2031 0.53906 1.2031 1.1992zm-10.934 1.8828c0.19141 0.59375-0.10547 1.2344-0.68359 1.4727s-1.2383-0.003907-1.5273-0.55859l-3.4531-8.2617c-0.19141-0.59375 0.10547-1.2305 0.68359-1.4727 0.57422-0.23828 1.2344 0.003906 1.5234 0.55469zm30.102 7.6992 6.207-6.2109c0.41797-0.47656 0.39453-1.1992-0.058593-1.6445-0.44922-0.44922-1.168-0.46875-1.6445-0.046874l-6.1992 6.2031c-0.25 0.21875-0.39453 0.53125-0.40625 0.85938-0.011719 0.33203 0.11719 0.65625 0.35156 0.89062 0.23438 0.23438 0.55469 0.35938 0.88672 0.35156 0.33203-0.011719 0.64453-0.16016 0.86328-0.41016zm-8.6094-6.8477h-0.003906c-0.11719 0.29297-0.35156 0.53125-0.64453 0.65234-0.29297 0.125-0.62109 0.125-0.91406 0.003906-0.29688-0.12109-0.53125-0.35156-0.65234-0.64453-0.12109-0.29688-0.12109-0.625 0.003907-0.91797l3.3984-8.2891c0.25391-0.60547 0.94922-0.89453 1.5547-0.64453 0.60938 0.25 0.89844 0.94141 0.65625 1.5508zm-30.453 5.1172-6.207-6.2031c-0.47656-0.41406-1.1914-0.39063-1.6367 0.054687-0.44531 0.44531-0.46875 1.1602-0.054687 1.6367l6.2031 6.207c0.47656 0.42188 1.1953 0.39844 1.6445-0.050781 0.44922-0.44922 0.47266-1.168 0.050781-1.6445zm-5.8516 9.0352c0.29688 0.11719 0.53906 0.34766 0.66406 0.64453 0.12891 0.29297 0.13281 0.62891 0.007813 0.92578-0.12109 0.29688-0.35938 0.53125-0.65625 0.65234s-0.62891 0.11719-0.92578-0.011719l-7.8867-3.2344c-0.29688-0.12109-0.53125-0.35156-0.65234-0.64453-0.125-0.29297-0.125-0.625-0.007812-0.91797 0.12109-0.29297 0.35547-0.52734 0.64844-0.64844s0.625-0.12109 0.91797 0z" fill-rule="evenodd"/>
 <path d="m15.391 44.66c-0.33203 0.019532-0.65625-0.097656-0.89844-0.32422-0.24219-0.22656-0.37891-0.54297-0.37891-0.875 0-0.33203 0.13672-0.64844 0.37891-0.875 0.24219-0.22656 0.56641-0.34375 0.89844-0.32031h8.2695c0.33203-0.023437 0.65625 0.09375 0.89844 0.32031 0.24219 0.22656 0.37891 0.54297 0.37891 0.875 0 0.33203-0.13672 0.64844-0.37891 0.875-0.24219 0.22656-0.56641 0.34375-0.89844 0.32422z" fill-rule="evenodd"/>
<text x="0.0" y="117.5" font-size="5.0" font-weight="bold" font-family="Arbeit Regular, Helvetica, Arial-Unicode, Arial, Sans-serif" fill="#000000">Created by SISWANTORO</text><text x="0.0" y="122.5" font-size="5.0" font-weight="bold" font-family="Arbeit Regular, Helvetica, Arial-Unicode, Arial, Sans-serif" fill="#000000">from Noun Project</text></svg>