<svg xmlns="http://www.w3.org/2000/svg" data-name="Layer 1" viewBox="0 0 100 125" x="0px" y="0px"><title>Mini mobile</title><path d="M66.23,2.5H33.77A13.78,13.78,0,0,0,20,16.27V83.73A13.78,13.78,0,0,0,33.77,97.5H66.23A13.78,13.78,0,0,0,80,83.73V16.27A13.78,13.78,0,0,0,66.23,2.5ZM75,83.73a8.79,8.79,0,0,1-8.77,8.77H33.77A8.79,8.79,0,0,1,25,83.73V16.27A8.79,8.79,0,0,1,33.77,7.5H66.23A8.79,8.79,0,0,1,75,16.27Z"/><path d="M59.5,81h-19a2.5,2.5,0,0,0,0,5h19a2.5,2.5,0,0,0,0-5Z"/><text x="0" y="115" fill="#000000" font-size="5px" font-weight="bold" font-family="'Helvetica Neue', Helvetica, Arial-Unicode, Arial, Sans-serif">Created by Rainbow Designs</text><text x="0" y="120" fill="#000000" font-size="5px" font-weight="bold" font-family="'Helvetica Neue', Helvetica, Arial-Unicode, Arial, Sans-serif">from the Noun Project</text></svg>