<svg version="1.1" xmlns="http://www.w3.org/2000/svg" xmlns:xlink="http://www.w3.org/1999/xlink" width="192" height="192" viewBox="0 0 192 192">
  <g fill="none" fill-rule="nonzero" stroke="none" stroke-width="1" stroke-linecap="butt" stroke-linejoin="miter" stroke-miterlimit="10" stroke-dasharray="" stroke-dashoffset="0" font-family="none" font-weight="none" font-size="none" text-anchor="none" style="mix-blend-mode: normal">
    <rect x="0" y="0" width="192" height="192" fill="none"/>
    <path d="M136.241,67.574c6.9332,9.61214 11.4786,19.46133 13.5937,29.42633c0.05507,-0.00022 0.11017,-0.00033 0.1653,-0.00033c22.09139,0 40,17.90861 40,40c0,22.09139 -17.90861,40 -40,40c-10.99848,0 -20.96019,-4.43896 -28.1913,-11.62306c-3.03926,2.0678 -6.25366,3.89085 -9.6147,5.44506l-2.191,1.015l-0.06,-0.026c-8.236,3.449 -16.915,5.193 -25.8287,5.193c-0.7972,0 -1.5944,-0.013 -2.3958,-0.043c-7.0637,-0.243 -13.9909,-1.582 -20.59,-3.977l-0.0213,0.008l-0.4987,-0.175l-1.6498,-0.665c-12.6694,-5.102 -23.3694,-13.846 -30.9446,-25.283c-7.7415,-11.693 -11.5739,-25.309 -11.0837,-39.377c0.3794,-10.832 3.4104,-21.5234 8.7646,-30.9147l1.1425,-2.0036l2.221,-0.6223c5.188,-1.4622 10.5593,-2.1059 15.9604,-1.9184c0.1663,0.0043 0.2899,0.0086 0.4135,0.0171c1.475,0.0341 2.9628,0.1108 4.4249,0.2302c0.2345,-1.7393 0.5159,-3.4743 0.8441,-5.1624c1.2533,-7.5028 3.6448,-14.7881 7.3067,-22.2398c5.9723,-12.5245 14.8861,-23.7615 25.7694,-32.4792l4.2625,-3.41892l3.364,3.95172l0.068,0.0299l0.154,0.2259l0.788,0.9293l1.454,1.7137c0.912,1.0785 2.067,2.4427 3.414,4.037c2.443,2.8903 7.405,8.7774 13.19,15.7132c13.326,15.9903 22.001,26.7542 25.774,31.989zM86.655,114.449c-2.8775,-10.917 -8.3554,-19.0679 -16.2759,-24.2303c-2.7538,-1.7947 -5.8445,-3.2526 -9.2079,-4.3567c0.7247,8.6495 3.0139,18.002 6.8207,27.833c3.5552,9.191 9.3827,17.814 17.3288,25.658c3.1803,-7.831 3.6323,-16.199 1.3343,-24.908zM88.1,156.605c-2.515,3.193 -5.3968,6.19 -8.6025,8.953c0.8739,0.072 1.7436,0.123 2.6132,0.153c5.6271,0.2 11.1903,-0.443 16.5833,-1.91c-3.662,-2.217 -7.213,-4.625 -10.59,-7.196zM97.538,111.576c3.313,12.546 2.183,24.486 -3.35,35.515c6.863,5.315 13.326,8.969 17.776,11.19c1.03507,-0.59748 2.04984,-1.22756 3.04275,-1.8888c-3.19,-5.74408 -5.00675,-12.35598 -5.00675,-19.3922c0,-18.15504 12.09512,-33.48511 28.667,-38.37186c-1.86114,-8.20346 -5.72117,-16.39091 -11.548,-24.46794c-4.523,-6.2793 -16.246,-20.5217 -25.288,-31.3666c-4.02,-4.8214 -8.441,-10.0904 -13.143,-15.662l-2.016,-2.383c-5.2221,4.7872 -9.7877,10.2182 -13.5987,16.1735l0.0213,0.0128l-0.6437,1.0615c-1.6412,2.7027 -3.0352,5.2306 -4.2715,7.733l-0.0298,0.0596c-0.8014,1.6839 -1.556,3.4274 -2.2466,5.1838c-1.7989,4.5826 -3.1886,9.3528 -4.1222,14.1742c-0.1151,0.6778 -0.2217,1.4025 -0.324,2.1912c-0.1194,0.9208 -0.2217,1.8586 -0.3027,2.8007c5.6697,1.4622 10.8321,3.7003 15.3636,6.6502c10.3291,6.7269 17.4013,17.0858 21.0163,30.7869zM79.5018,149.358c-10.1543,-9.476 -17.5548,-20.104 -22.0095,-31.609c-4.6253,-11.954 -7.2257,-23.3782 -7.7373,-33.9673c-1.5645,-0.2515 -3.1545,-0.4178 -4.7403,-0.4903c-1.0786,-0.0255 -2.2125,-0.0255 -3.3507,0l-0.584,0.0128c-2.2551,0.1151 -4.5102,0.4221 -6.7227,0.9123c-3.811,7.3706 -5.8871,15.3295 -6.177,23.6595c-0.405,11.621 2.7411,22.883 9.0929,32.573c6.2153,9.481 15.014,16.766 25.4454,21.076l0.4519,0.179c0.5627,0.23 1.1339,0.447 1.7052,0.656c3.5211,-2.148 9.5575,-6.424 14.6304,-12.997zM146.16,158.90048c0,2.12077 1.71923,3.84 3.84,3.84c2.12077,0 3.84,-1.71923 3.84,-3.84l16.41792,-12.19584c0.62377,-0.45119 0.95664,-1.20301 0.8714,-1.96812c-0.08525,-0.76511 -0.57544,-1.42523 -1.28323,-1.72805c-0.70778,-0.30282 -1.52374,-0.20154 -2.13601,0.26513l-16.176,12.01728c-0.9779,-0.42819 -2.09026,-0.42819 -3.06816,0l-16.176,-12.01728c-0.94803,-0.66551 -2.25369,-0.45457 -2.94392,0.47563c-0.69023,0.93019 -0.51371,2.24095 0.398,2.95541l16.416,12.19776zM151.92,158.81216c0,1.06039 -0.85961,1.92 -1.92,1.92c-1.06039,0 -1.92,-0.85961 -1.92,-1.92c0,-1.06039 0.85961,-1.92 1.92,-1.92c1.06039,0 1.92,0.85961 1.92,1.92zM133.2384,123.69152c0.3264,0.3168 0.77184,0.51648 1.25184,0.56064c0.26479,0.01616 0.53031,-0.01638 0.78336,-0.096c0.25152,-0.0768 0.48,-0.2016 0.67584,-0.36288c0.19066,-0.15617 0.3458,-0.35123 0.45504,-0.57216c0.10499,-0.21323 0.15952,-0.44776 0.15936,-0.68544v-4.2432c-0.00536,-0.46234 -0.20795,-0.90037 -0.5568,-1.20384c-0.37203,-0.32651 -0.84902,-0.50845 -1.344,-0.51264c-0.51072,0.00768 -0.9984,0.192 -1.35936,0.51072c-0.35245,0.30265 -0.56147,0.7395 -0.576,1.20384v4.24512c0.00969,0.43827 0.19428,0.85446 0.51264,1.15584zM163.95264,129.45152c0.3264,0.3168 0.76992,0.51648 1.25184,0.56064c0.26479,0.01616 0.53031,-0.01638 0.78336,-0.096c0.2496,-0.0768 0.48,-0.2016 0.67392,-0.36288c0.19066,-0.15617 0.3458,-0.35123 0.45504,-0.57216c0.10505,-0.21321 0.15958,-0.44775 0.15936,-0.68544v-4.2432c-0.00487,-0.46204 -0.20675,-0.90002 -0.55488,-1.20384c-0.37303,-0.32737 -0.85154,-0.50937 -1.34784,-0.51264c-0.51072,0.00768 -0.9984,0.192 -1.35936,0.51072c-0.35293,0.3031 -0.562,0.74075 -0.576,1.20576v4.2432c0.0102,0.43856 0.1955,0.85479 0.51456,1.15584zM134.64384,130.016c1.06039,0 1.92,-0.85961 1.92,-1.92c0,-1.06039 -0.85961,-1.92 -1.92,-1.92c-1.06039,0 -1.92,0.85961 -1.92,1.92c0,1.06039 0.85961,1.92 1.92,1.92zM134.64384,137.696c-1.06039,0 -1.92,0.85961 -1.92,1.92c0,1.06039 0.85961,1.92 1.92,1.92c1.06039,0 1.92,-0.85961 1.92,-1.92c0,-1.06039 -0.85961,-1.92 -1.92,-1.92zM134.64384,135.776c1.06039,0 1.92,-0.85961 1.92,-1.92c0,-1.06039 -0.85961,-1.92 -1.92,-1.92c-1.06039,0 -1.92,0.85961 -1.92,1.92c0,1.06039 0.85961,1.92 1.92,1.92zM165.35616,137.696c-1.06039,0 -1.92,0.85961 -1.92,1.92c0,1.06039 0.85961,1.92 1.92,1.92c1.06039,0 1.92,-0.85961 1.92,-1.92c0,-1.06039 -0.85961,-1.92 -1.92,-1.92zM165.35616,135.776c1.06039,0 1.92,-0.85961 1.92,-1.92c0,-1.06039 -0.85961,-1.92 -1.92,-1.92c-1.06039,0 -1.92,0.85961 -1.92,1.92c0,1.06039 0.85961,1.92 1.92,1.92zM165.35616,116.576c-1.06039,0 -1.92,0.85961 -1.92,1.92c0,1.06039 0.85961,1.92 1.92,1.92c1.06039,0 1.92,-0.85961 1.92,-1.92c0,-1.06039 -0.85961,-1.92 -1.92,-1.92zM158.30976,135.67808c0.24609,-0.07695 0.47494,-0.20083 0.67392,-0.3648c0.19066,-0.15617 0.3458,-0.35123 0.45504,-0.57216c0.10594,-0.21366 0.16113,-0.44888 0.16128,-0.68736v-4.2432c0,-0.44928 -0.2016,-0.88128 -0.5568,-1.20192c-0.3552,-0.32064 -0.83904,-0.50496 -1.34592,-0.51264c-0.51264,0.00768 -1.00032,0.19008 -1.3632,0.51072c-0.35293,0.3031 -0.562,0.74075 -0.576,1.20576v4.2432c0.01041,0.43851 0.19567,0.85466 0.51456,1.15584c0.34202,0.324 0.78425,0.52175 1.25376,0.56064c0.26496,0.01536 0.53184,-0.01728 0.78336,-0.09408zM148.59456,146.73152c0.3264,0.3168 0.77184,0.51648 1.25184,0.56064c0.26688,0.01536 0.53376,-0.01536 0.78336,-0.096c0.25152,-0.0768 0.48,-0.2016 0.67584,-0.36288c0.19062,-0.15621 0.34575,-0.35127 0.45504,-0.57216c0.10499,-0.21323 0.15952,-0.44776 0.15936,-0.68544v-4.2432c-0.00487,-0.46204 -0.20675,-0.90002 -0.55488,-1.20384c-0.37312,-0.32722 -0.85157,-0.5092 -1.34784,-0.51264c-0.51072,0.00768 -0.9984,0.192 -1.35936,0.51072c-0.35245,0.30265 -0.56147,0.7395 -0.576,1.20384v4.24512c0.00969,0.43827 0.19428,0.85446 0.51264,1.15584zM157.68,147.296c1.06039,0 1.92,-0.85961 1.92,-1.92c0,-1.06039 -0.85961,-1.92 -1.92,-1.92c-1.06039,0 -1.92,0.85961 -1.92,1.92c0,1.06039 0.85961,1.92 1.92,1.92zM150,149.216c-1.06039,0 -1.92,0.85961 -1.92,1.92c0,1.06039 0.85961,1.92 1.92,1.92c1.06039,0 1.92,-0.85961 1.92,-1.92c0,-1.06039 -0.85961,-1.92 -1.92,-1.92zM157.68,141.536c1.06039,0 1.92,-0.85961 1.92,-1.92c0,-1.06039 -0.85961,-1.92 -1.92,-1.92c-1.06039,0 -1.92,0.85961 -1.92,1.92c0,1.06039 0.85961,1.92 1.92,1.92zM150,133.856c-1.06039,0 -1.92,0.85961 -1.92,1.92c0,1.06039 0.85961,1.92 1.92,1.92c1.06039,0 1.92,-0.85961 1.92,-1.92c0,-1.06039 -0.85961,-1.92 -1.92,-1.92zM150,131.936c1.06039,0 1.92,-0.85961 1.92,-1.92c0,-1.06039 -0.85961,-1.92 -1.92,-1.92c-1.06039,0 -1.92,0.85961 -1.92,1.92c0,1.06039 0.85961,1.92 1.92,1.92zM140.9184,140.97152c0.32448,0.3168 0.76992,0.51648 1.25184,0.56064c0.26496,0.01536 0.53184,-0.01536 0.78144,-0.096c0.25152,-0.0768 0.48,-0.2016 0.67584,-0.36288c0.19066,-0.15617 0.3458,-0.35123 0.45504,-0.57216c0.10499,-0.21323 0.15952,-0.44776 0.15936,-0.68544v-4.2432c-0.00487,-0.46204 -0.20675,-0.90002 -0.55488,-1.20384c-0.37303,-0.32737 -0.85154,-0.50937 -1.34784,-0.51264c-0.51072,0.00768 -0.9984,0.192 -1.35936,0.51072c-0.35245,0.30265 -0.56147,0.7395 -0.576,1.20384v4.24512c0.00969,0.43827 0.19428,0.85446 0.51264,1.15584zM142.32192,147.296c1.06039,0 1.92,-0.85961 1.92,-1.92c0,-1.06039 -0.85961,-1.92 -1.92,-1.92c-1.06039,0 -1.92,0.85961 -1.92,1.92c0,1.06039 0.85961,1.92 1.92,1.92zM142.32192,128.096c-1.06039,0 -1.92,0.85961 -1.92,1.92c0,1.06039 0.85961,1.92 1.92,1.92c1.06039,0 1.92,-0.85961 1.92,-1.92c0,-1.06039 -0.85961,-1.92 -1.92,-1.92zM142.32192,126.176c1.06039,0 1.92,-0.85961 1.92,-1.92c0,-1.06039 -0.85961,-1.92 -1.92,-1.92c-1.06039,0 -1.92,0.85961 -1.92,1.92c0,1.06039 0.85961,1.92 1.92,1.92zM157.68,122.336c-1.06039,0 -1.92,0.85961 -1.92,1.92c0,1.06039 0.85961,1.92 1.92,1.92c1.06039,0 1.92,-0.85961 1.92,-1.92c0,-1.06039 -0.85961,-1.92 -1.92,-1.92z" fill="#ffffff"/>
  </g>
</svg>
