<svg version="1.1" xmlns="http://www.w3.org/2000/svg" xmlns:xlink="http://www.w3.org/1999/xlink" width="437.973" height="464" viewBox="0 0 437.973 464">
  <g fill="none" fill-rule="none" stroke="none" stroke-width="1" stroke-linecap="butt" stroke-linejoin="miter" stroke-miterlimit="10" stroke-dasharray="" stroke-dashoffset="0" font-family="none" font-weight="none" font-size="none" text-anchor="none" style="mix-blend-mode: normal">
    <rect x="0" y="0" width="437.973" height="464" fill="none" fill-rule="nonzero"/>
    <g>
      <path d="M247.05867,266.836l-0.005,-0.002c-9.51046,4.4002 -19.9236,6.49852 -30.396,6.125c-7.78905,-0.26654 -15.47189,-1.88987 -22.703,-4.797l-22.054,-66.018l15.28,-29.593h56.347c0,0 3.533,94.286 3.531,94.285z" fill="#ff9100" fill-rule="evenodd"/>
      <path d="M217.42467,248.218c-19.528,-18.059 -31.377,-44.2 -30.374,-72.873c0.033,-0.929 0.083,-1.862 0.139,-2.791c-3.56674,-0.92478 -7.22368,-1.45793 -10.906,-1.59c-5.23287,-0.18493 -10.46275,0.44321 -15.503,1.862c-5.37986,9.41326 -8.38391,19.99609 -8.752,30.832c-1.012,28.964 16.515,54.269 41.926,64.504c9.70246,-4.05293 17.90448,-11.02273 23.47,-19.944z" fill="#ffc400" fill-rule="nonzero"/>
      <path d="M222.52667,104.69c-12.791,10.25 -22.897,23.761 -29.006,39.33c-3.58028,9.125 -5.71919,18.75144 -6.34,28.534c22.462,5.795 38.691,26.561 37.846,50.706c-0.30069,8.84572 -2.92759,17.45593 -7.616,24.963c8.63785,7.99582 18.69285,14.30834 29.648,18.613c22.218,-10.268 37.98,-32.365 38.891,-58.502c0.591,-16.936 -5.915,-32.028 -15.106,-44.768c-9.709,-13.47 -48.317,-58.876 -48.317,-58.876z" fill="#dd2c00" fill-rule="nonzero"/>
    </g>
    <circle cx="284.987" cy="233" r="40" filter="url(#dropshadow)" fill="#ffffff" fill-rule="nonzero"/>
    <g fill="#5f6368" fill-rule="evenodd">
      <path d="M281.14667,254.9024l-16.416,-12.19776c-0.91171,-0.71447 -1.08822,-2.02522 -0.398,-2.95541c0.69023,-0.93019 1.99588,-1.14114 2.94392,-0.47563l16.176,12.01728c0.9779,-0.42819 2.09026,-0.42819 3.06816,0l16.176,-12.01728c0.61227,-0.46668 1.42823,-0.56796 2.13601,-0.26513c0.70778,0.30282 1.19798,0.96294 1.28323,1.72805c0.08525,0.76511 -0.24763,1.51693 -0.8714,1.96812l-16.41792,12.19584c0,2.12077 -1.71923,3.84 -3.84,3.84c-2.12077,0 -3.84,-1.71923 -3.84,-3.84zM286.90667,254.81216c0,1.06039 -0.85961,1.92 -1.92,1.92c-1.06039,0 -1.92,-0.85961 -1.92,-1.92c0,-1.06039 0.85961,-1.92 1.92,-1.92c1.06039,0 1.92,0.85961 1.92,1.92zM268.22507,219.69152c0.3264,0.3168 0.77184,0.51648 1.25184,0.56064c0.26479,0.01616 0.53031,-0.01638 0.78336,-0.096c0.25152,-0.0768 0.48,-0.2016 0.67584,-0.36288c0.19066,-0.15617 0.3458,-0.35123 0.45504,-0.57216c0.10499,-0.21323 0.15952,-0.44776 0.15936,-0.68544v-4.2432c-0.00536,-0.46234 -0.20795,-0.90037 -0.5568,-1.20384c-0.37203,-0.32651 -0.84902,-0.50845 -1.344,-0.51264c-0.51072,0.00768 -0.9984,0.192 -1.35936,0.51072c-0.35245,0.30265 -0.56147,0.7395 -0.576,1.20384v4.24512c0.00969,0.43827 0.19428,0.85446 0.51264,1.15584zM298.93931,225.45152c0.3264,0.3168 0.76992,0.51648 1.25184,0.56064c0.26479,0.01616 0.53031,-0.01638 0.78336,-0.096c0.2496,-0.0768 0.48,-0.2016 0.67392,-0.36288c0.19066,-0.15617 0.3458,-0.35123 0.45504,-0.57216c0.10505,-0.21321 0.15958,-0.44775 0.15936,-0.68544v-4.2432c-0.00487,-0.46204 -0.20675,-0.90002 -0.55488,-1.20384c-0.37303,-0.32737 -0.85154,-0.50937 -1.34784,-0.51264c-0.51072,0.00768 -0.9984,0.192 -1.35936,0.51072c-0.35293,0.3031 -0.562,0.74075 -0.576,1.20576v4.2432c0.0102,0.43856 0.1955,0.85479 0.51456,1.15584zM269.63051,226.016c1.06039,0 1.92,-0.85961 1.92,-1.92c0,-1.06039 -0.85961,-1.92 -1.92,-1.92c-1.06039,0 -1.92,0.85961 -1.92,1.92c0,1.06039 0.85961,1.92 1.92,1.92zM271.55051,235.616c0,1.06039 -0.85961,1.92 -1.92,1.92c-1.06039,0 -1.92,-0.85961 -1.92,-1.92c0,-1.06039 0.85961,-1.92 1.92,-1.92c1.06039,0 1.92,0.85961 1.92,1.92zM269.63051,231.776c1.06039,0 1.92,-0.85961 1.92,-1.92c0,-1.06039 -0.85961,-1.92 -1.92,-1.92c-1.06039,0 -1.92,0.85961 -1.92,1.92c0,1.06039 0.85961,1.92 1.92,1.92zM302.26283,235.616c0,1.06039 -0.85961,1.92 -1.92,1.92c-1.06039,0 -1.92,-0.85961 -1.92,-1.92c0,-1.06039 0.85961,-1.92 1.92,-1.92c1.06039,0 1.92,0.85961 1.92,1.92zM300.34283,231.776c1.06039,0 1.92,-0.85961 1.92,-1.92c0,-1.06039 -0.85961,-1.92 -1.92,-1.92c-1.06039,0 -1.92,0.85961 -1.92,1.92c0,1.06039 0.85961,1.92 1.92,1.92zM302.26283,214.496c0,1.06039 -0.85961,1.92 -1.92,1.92c-1.06039,0 -1.92,-0.85961 -1.92,-1.92c0,-1.06039 0.85961,-1.92 1.92,-1.92c1.06039,0 1.92,0.85961 1.92,1.92zM292.51307,231.77216c-0.46951,-0.03889 -0.91174,-0.23664 -1.25376,-0.56064c-0.31889,-0.30118 -0.50415,-0.71733 -0.51456,-1.15584v-4.2432c0.014,-0.46501 0.22307,-0.90266 0.576,-1.20576c0.36288,-0.32064 0.85056,-0.50304 1.3632,-0.51072c0.50688,0.00768 0.99072,0.192 1.34592,0.51264c0.3552,0.32064 0.5568,0.75264 0.5568,1.20192v4.2432c-0.00015,0.23848 -0.05534,0.4737 -0.16128,0.68736c-0.10924,0.22093 -0.26438,0.41599 -0.45504,0.57216c-0.19898,0.16397 -0.42783,0.28785 -0.67392,0.3648c-0.25152,0.0768 -0.5184,0.10944 -0.78336,0.09408zM283.58123,242.73152c0.3264,0.3168 0.77184,0.51648 1.25184,0.56064c0.26688,0.01536 0.53376,-0.01536 0.78336,-0.096c0.25152,-0.0768 0.48,-0.2016 0.67584,-0.36288c0.19062,-0.15621 0.34575,-0.35127 0.45504,-0.57216c0.10499,-0.21323 0.15952,-0.44776 0.15936,-0.68544v-4.2432c-0.00487,-0.46204 -0.20675,-0.90002 -0.55488,-1.20384c-0.37312,-0.32722 -0.85157,-0.5092 -1.34784,-0.51264c-0.51072,0.00768 -0.9984,0.192 -1.35936,0.51072c-0.35245,0.30265 -0.56147,0.7395 -0.576,1.20384v4.24512c0.00969,0.43827 0.19428,0.85446 0.51264,1.15584zM292.66667,243.296c1.06039,0 1.92,-0.85961 1.92,-1.92c0,-1.06039 -0.85961,-1.92 -1.92,-1.92c-1.06039,0 -1.92,0.85961 -1.92,1.92c0,1.06039 0.85961,1.92 1.92,1.92zM286.90667,247.136c0,1.06039 -0.85961,1.92 -1.92,1.92c-1.06039,0 -1.92,-0.85961 -1.92,-1.92c0,-1.06039 0.85961,-1.92 1.92,-1.92c1.06039,0 1.92,0.85961 1.92,1.92zM292.66667,237.536c1.06039,0 1.92,-0.85961 1.92,-1.92c0,-1.06039 -0.85961,-1.92 -1.92,-1.92c-1.06039,0 -1.92,0.85961 -1.92,1.92c0,1.06039 0.85961,1.92 1.92,1.92zM286.90667,231.776c0,1.06039 -0.85961,1.92 -1.92,1.92c-1.06039,0 -1.92,-0.85961 -1.92,-1.92c0,-1.06039 0.85961,-1.92 1.92,-1.92c1.06039,0 1.92,0.85961 1.92,1.92zM284.98667,227.936c1.06039,0 1.92,-0.85961 1.92,-1.92c0,-1.06039 -0.85961,-1.92 -1.92,-1.92c-1.06039,0 -1.92,0.85961 -1.92,1.92c0,1.06039 0.85961,1.92 1.92,1.92zM275.90507,236.97152c0.32448,0.3168 0.76992,0.51648 1.25184,0.56064c0.26496,0.01536 0.53184,-0.01536 0.78144,-0.096c0.25152,-0.0768 0.48,-0.2016 0.67584,-0.36288c0.19066,-0.15617 0.3458,-0.35123 0.45504,-0.57216c0.10499,-0.21323 0.15952,-0.44776 0.15936,-0.68544v-4.2432c-0.00487,-0.46204 -0.20675,-0.90002 -0.55488,-1.20384c-0.37303,-0.32737 -0.85154,-0.50937 -1.34784,-0.51264c-0.51072,0.00768 -0.9984,0.192 -1.35936,0.51072c-0.35245,0.30265 -0.56147,0.7395 -0.576,1.20384v4.24512c0.00969,0.43827 0.19428,0.85446 0.51264,1.15584zM277.30859,243.296c1.06039,0 1.92,-0.85961 1.92,-1.92c0,-1.06039 -0.85961,-1.92 -1.92,-1.92c-1.06039,0 -1.92,0.85961 -1.92,1.92c0,1.06039 0.85961,1.92 1.92,1.92zM279.22859,226.016c0,1.06039 -0.85961,1.92 -1.92,1.92c-1.06039,0 -1.92,-0.85961 -1.92,-1.92c0,-1.06039 0.85961,-1.92 1.92,-1.92c1.06039,0 1.92,0.85961 1.92,1.92zM277.30859,222.176c1.06039,0 1.92,-0.85961 1.92,-1.92c0,-1.06039 -0.85961,-1.92 -1.92,-1.92c-1.06039,0 -1.92,0.85961 -1.92,1.92c0,1.06039 0.85961,1.92 1.92,1.92zM294.58667,220.256c0,1.06039 -0.85961,1.92 -1.92,1.92c-1.06039,0 -1.92,-0.85961 -1.92,-1.92c0,-1.06039 0.85961,-1.92 1.92,-1.92c1.06039,0 1.92,0.85961 1.92,1.92z"/>
    </g>
    <g fill="#5f6368" fill-rule="nonzero">
      <path d="M133.94667,348h-5.12083l-13.4375,-38.1875h5.4375l10.45417,30.9875h0.2125l10.87917,-30.9875h5.44167z"/>
      <path d="M159.54667,348.85417v0c-3.94722,0 -7.15556,-1.31528 -9.625,-3.94583c-2.47222,-2.63333 -3.70833,-5.95833 -3.70833,-9.975v0c0,-3.80556 1.2,-7.07639 3.6,-9.8125c2.4,-2.73889 5.46667,-4.10833 9.2,-4.10833v0c3.875,0 6.97778,1.2625 9.30833,3.7875c2.32778,2.525 3.49167,5.90278 3.49167,10.13333v0l-0.05417,0.90833h-20.6375c0.14167,2.63056 1.02083,4.70972 2.6375,6.2375c1.61944,1.53056 3.5125,2.29583 5.67917,2.29583v0c3.52222,0 5.90556,-1.49444 7.15,-4.48333v0l4.37083,1.81667c-0.85278,2.025 -2.25694,3.72222 -4.2125,5.09167c-1.95556,1.36944 -4.35556,2.05417 -7.2,2.05417zM151.43833,331.7875h15.15c-0.10833,-1.49444 -0.79306,-2.91667 -2.05417,-4.26667c-1.26389,-1.35278 -3.14028,-2.02917 -5.62917,-2.02917v0c-1.81111,0 -3.38333,0.56944 -4.71667,1.70833c-1.33333,1.13889 -2.25,2.66806 -2.75,4.5875z"/>
      <path d="M207.8675,348.425v0c-2.73889,0 -4.82778,-0.72778 -6.26667,-2.18333c-1.44167,-1.45833 -2.1625,-3.52083 -2.1625,-6.1875v0v-13.70833h-4.58333v-4.47917h4.58333v-8h4.90833v8h6.4v4.47917h-6.4v13.33333c0,2.84444 1.17361,4.26667 3.52083,4.26667v0c0.88889,0 1.63472,-0.14167 2.2375,-0.425v0l1.70833,4.2125c-1.06667,0.46111 -2.38194,0.69167 -3.94583,0.69167zM176.2925,321.86667h4.69583v4.26667h0.2125c0.56944,-1.52778 1.62639,-2.72778 3.17083,-3.6c1.54722,-0.87222 3.24583,-1.30833 5.09583,-1.30833v0c0.53333,0 1.11944,0.03611 1.75833,0.10833v0v4.8c-0.675,-0.07222 -1.33194,-0.10833 -1.97083,-0.10833v0c-2.34722,0 -4.27639,0.68472 -5.7875,2.05417c-1.51111,1.36944 -2.26667,3.24583 -2.26667,5.62917v0v14.29167h-4.90833z"/>
      <path d="M227.01333,348.85417v0c-3.94722,0 -7.15556,-1.31528 -9.625,-3.94583c-2.47222,-2.63333 -3.70833,-5.95833 -3.70833,-9.975v0c0,-3.80556 1.2,-7.07639 3.6,-9.8125c2.4,-2.73889 5.46667,-4.10833 9.2,-4.10833v0c3.875,0 6.97778,1.2625 9.30833,3.7875c2.32778,2.525 3.49167,5.90278 3.49167,10.13333v0l-0.05417,0.90833h-20.6375c0.14167,2.63056 1.02083,4.70972 2.6375,6.2375c1.61944,1.53056 3.5125,2.29583 5.67917,2.29583v0c3.52222,0 5.90556,-1.49444 7.15,-4.48333v0l4.37083,1.81667c-0.85278,2.025 -2.25694,3.72222 -4.2125,5.09167c-1.95556,1.36944 -4.35556,2.05417 -7.2,2.05417zM218.905,331.7875h15.15c-0.10833,-1.49444 -0.79306,-2.91667 -2.05417,-4.26667c-1.26389,-1.35278 -3.14028,-2.02917 -5.62917,-2.02917v0c-1.81111,0 -3.38333,0.56944 -4.71667,1.70833c-1.33333,1.13889 -2.25,2.66806 -2.75,4.5875z"/>
      <path d="M255.655,334.72083l9.33333,13.27917h-5.7625l-6.45417,-9.65417l-6.34583,9.65417h-5.75833l9.225,-13.27917l-9.0125,-12.85417h5.54583l6.45417,9.225l6.13333,-9.225h5.75833z"/>
      <path d=""/>
      <path d="M281.0925,348h-5.4375l14.4,-38.1875h5.54583l14.4,38.1875h-5.44167l-3.67917,-10.34583h-16.05417zM292.72167,315.84167l-6.24167,17.225h12.69167l-6.2375,-17.225z"/>
      <path d="M319.38833,348h-4.90833v-38.1875h4.90833z"/>
    </g>
    <g fill="#5f6368" fill-rule="nonzero">
      <path d="M104.32083,367.30833c-0.675,0.675 -1.49306,1.0125 -2.45417,1.0125c-0.96111,0 -1.77917,-0.3375 -2.45417,-1.0125c-0.675,-0.67778 -1.0125,-1.49583 -1.0125,-2.45417c0,-0.96111 0.3375,-1.77917 1.0125,-2.45417c0.675,-0.675 1.49306,-1.0125 2.45417,-1.0125c0.96111,0 1.77917,0.3375 2.45417,1.0125c0.675,0.675 1.0125,1.49306 1.0125,2.45417c0,0.95833 -0.3375,1.77639 -1.0125,2.45417zM104.32083,373.86667v26.13333h-4.90833v-26.13333z"/>
      <path d="M110.1875,373.86667h4.69167v3.625h0.2125c0.71111,-1.24444 1.83194,-2.30139 3.3625,-3.17083c1.52778,-0.87222 3.1625,-1.30833 4.90417,-1.30833v0c3.23611,0 5.70833,0.99583 7.41667,2.9875c1.70556,1.99167 2.55833,4.65833 2.55833,8v0v16h-4.90833v-15.25417c0,-4.83611 -2.15,-7.25417 -6.45,-7.25417v0c-2.02778,0 -3.68194,0.80972 -4.9625,2.42917c-1.28056,1.61667 -1.92083,3.49167 -1.92083,5.625v0v14.45417h-4.90417z"/>
      <path d=""/>
      <path d="M156.5875,383.625v16.375h-4.90833v-38.1875h22.29583v4.69583h-17.3875v12.53333h15.67917v4.58333z"/>
      <path d="M183.2,367.30833c-0.675,0.675 -1.49306,1.0125 -2.45417,1.0125c-0.95833,0 -1.77639,-0.3375 -2.45417,-1.0125c-0.675,-0.67778 -1.0125,-1.49583 -1.0125,-2.45417c0,-0.96111 0.3375,-1.77917 1.0125,-2.45417c0.67778,-0.675 1.49583,-1.0125 2.45417,-1.0125c0.96111,0 1.77917,0.3375 2.45417,1.0125c0.675,0.675 1.0125,1.49306 1.0125,2.45417c0,0.95833 -0.3375,1.77639 -1.0125,2.45417zM183.2,373.86667v26.13333h-4.90833v-26.13333z"/>
      <path d="M193.975,385.70833v14.29167h-4.90833v-26.13333h4.69167v4.26667h0.21667c0.49722,-1.42222 1.51944,-2.59583 3.06667,-3.52083c1.54444,-0.925 3.04583,-1.3875 4.50417,-1.3875c1.45833,0 2.68472,0.21389 3.67917,0.64167v0l-1.86667,4.5875c-0.63889,-0.25 -1.50972,-0.375 -2.6125,-0.375v0c-1.77778,0 -3.35139,0.70278 -4.72083,2.10833c-1.36667,1.40278 -2.05,3.24306 -2.05,5.52083z"/>
      <path d="M218.66667,400.85417v0c-3.94722,0 -7.15556,-1.31528 -9.625,-3.94583c-2.47222,-2.63333 -3.70833,-5.95833 -3.70833,-9.975v0c0,-3.80556 1.2,-7.07639 3.6,-9.8125c2.4,-2.73889 5.46667,-4.10833 9.2,-4.10833v0c3.875,0 6.97778,1.2625 9.30833,3.7875c2.32778,2.525 3.49167,5.90278 3.49167,10.13333v0l-0.05417,0.90833h-20.6375c0.14167,2.63056 1.02083,4.70972 2.6375,6.2375c1.61944,1.53056 3.5125,2.29583 5.67917,2.29583v0c3.52222,0 5.90556,-1.49444 7.15,-4.48333v0l4.37083,1.81667c-0.85278,2.025 -2.25694,3.72222 -4.2125,5.09167c-1.95556,1.36944 -4.35556,2.05417 -7.2,2.05417zM210.55833,383.7875h15.15c-0.10833,-1.49444 -0.79306,-2.91667 -2.05417,-4.26667c-1.26389,-1.35278 -3.14028,-2.02917 -5.62917,-2.02917v0c-1.81111,0 -3.38333,0.56944 -4.71667,1.70833c-1.33333,1.13889 -2.25,2.66806 -2.75,4.5875z"/>
      <path d="M248.69167,400.85417v0c-1.98889,0 -3.775,-0.42639 -5.35833,-1.27917c-1.58333,-0.85556 -2.76528,-1.92222 -3.54583,-3.2v0h-0.2125v3.625h-4.69583v-38.1875h4.90833v12.05417l-0.2125,3.625h0.2125c0.78056,-1.27778 1.9625,-2.34444 3.54583,-3.2c1.58333,-0.85278 3.36944,-1.27917 5.35833,-1.27917v0c3.37778,0 6.29444,1.33333 8.75,4c2.45278,2.66667 3.67917,5.97361 3.67917,9.92083c0,3.94722 -1.22639,7.25417 -3.67917,9.92083c-2.45556,2.66667 -5.37222,4 -8.75,4zM247.89167,396.375v0c2.27778,0 4.23333,-0.8625 5.86667,-2.5875c1.63611,-1.725 2.45417,-4.00972 2.45417,-6.85417c0,-2.84444 -0.81806,-5.12917 -2.45417,-6.85417c-1.63333,-1.725 -3.58889,-2.5875 -5.86667,-2.5875v0c-2.31111,0 -4.275,0.85417 -5.89167,2.5625c-1.61667,1.70556 -2.425,3.99861 -2.425,6.87917c0,2.88056 0.80833,5.17361 2.425,6.87917c1.61667,1.70833 3.58056,2.5625 5.89167,2.5625z"/>
      <path d="M273.6,400.85417v0c-2.77222,0 -5.09167,-0.8 -6.95833,-2.4c-1.86667,-1.6 -2.8,-3.71528 -2.8,-6.34583v0c0,-2.84444 1.10139,-5.07639 3.30417,-6.69583c2.20556,-1.61667 4.92639,-2.425 8.1625,-2.425v0c2.87778,0 5.24167,0.53333 7.09167,1.6v0v-0.74583c0,-1.92222 -0.65833,-3.46111 -1.975,-4.61667c-1.31389,-1.15556 -2.93056,-1.73333 -4.85,-1.73333v0c-1.42222,0 -2.71111,0.33889 -3.86667,1.01667c-1.15556,0.675 -1.94722,1.59861 -2.375,2.77083v0l-4.47917,-1.92083c0.60278,-1.56389 1.79306,-3.0125 3.57083,-4.34583c1.77778,-1.33333 4.125,-2 7.04167,-2v0c3.34167,0 6.11528,0.97778 8.32083,2.93333c2.20278,1.95556 3.30417,4.71111 3.30417,8.26667v0v15.7875h-4.69167v-3.625h-0.2125c-1.95556,2.98611 -4.81806,4.47917 -8.5875,4.47917zM274.4,396.375v0c2.02778,0 3.86806,-0.75556 5.52083,-2.26667c1.65278,-1.51111 2.47917,-3.29861 2.47917,-5.3625v0c-1.38611,-1.13611 -3.46667,-1.70417 -6.24167,-1.70417v0c-2.38056,0 -4.175,0.51528 -5.38333,1.54583c-1.21111,1.03056 -1.81667,2.23889 -1.81667,3.625v0c0,1.28056 0.55139,2.29444 1.65417,3.04167c1.10278,0.74722 2.36528,1.12083 3.7875,1.12083z"/>
      <path d="M301.54583,400.85417v0c-2.91389,0 -5.32222,-0.71111 -7.225,-2.13333c-1.90278,-1.42222 -3.29861,-3.2 -4.1875,-5.33333v0l4.375,-1.8125c1.38611,3.26944 3.75,4.90417 7.09167,4.90417v0c1.52778,0 2.78056,-0.3375 3.75833,-1.0125c0.97778,-0.675 1.46667,-1.56389 1.46667,-2.66667v0c0,-1.70556 -1.19028,-2.86111 -3.57083,-3.46667v0l-5.27917,-1.27917c-1.67222,-0.42778 -3.25556,-1.2375 -4.75,-2.42917c-1.49167,-1.18889 -2.2375,-2.79722 -2.2375,-4.825v0c0,-2.31111 1.02222,-4.18611 3.06667,-5.625c2.04444,-1.44167 4.47083,-2.1625 7.27917,-2.1625v0c2.31111,0 4.37361,0.525 6.1875,1.575c1.81389,1.04722 3.11111,2.54861 3.89167,4.50417v0l-4.26667,1.7625c-0.95833,-2.31111 -2.94861,-3.46667 -5.97083,-3.46667v0c-1.45833,0 -2.68611,0.30139 -3.68333,0.90417c-0.99444,0.60556 -1.49167,1.42361 -1.49167,2.45417v0c0,1.49444 1.15556,2.50833 3.46667,3.04167v0l5.175,1.225c2.45278,0.56944 4.26528,1.54722 5.4375,2.93333c1.175,1.38611 1.7625,2.95139 1.7625,4.69583v0c0,2.34444 -0.96111,4.3 -2.88333,5.86667c-1.91944,1.56389 -4.39028,2.34583 -7.4125,2.34583z"/>
      <path d="M328.2125,400.85417v0c-3.94722,0 -7.15556,-1.31528 -9.625,-3.94583c-2.47222,-2.63333 -3.70833,-5.95833 -3.70833,-9.975v0c0,-3.80556 1.2,-7.07639 3.6,-9.8125c2.4,-2.73889 5.46667,-4.10833 9.2,-4.10833v0c3.875,0 6.97778,1.2625 9.30833,3.7875c2.32778,2.525 3.49167,5.90278 3.49167,10.13333v0l-0.05417,0.90833h-20.6375c0.14167,2.63056 1.02083,4.70972 2.6375,6.2375c1.61944,1.53056 3.51389,2.29583 5.68333,2.29583v0c3.51944,0 5.90139,-1.49444 7.14583,-4.48333v0l4.37083,1.81667c-0.85278,2.025 -2.25694,3.72222 -4.2125,5.09167c-1.95556,1.36944 -4.35556,2.05417 -7.2,2.05417zM320.10833,383.7875h15.14583c-0.10833,-1.49444 -0.79306,-2.91667 -2.05417,-4.26667c-1.26111,-1.35278 -3.13611,-2.02917 -5.625,-2.02917v0c-1.81389,0 -3.3875,0.56944 -4.72083,1.70833c-1.33333,1.13889 -2.24861,2.66806 -2.74583,4.5875z"/>
    </g>
  </g>
  <defs>
    <filter id="dropshadow">
      <feColorMatrix type="matrix" values="0 0 0 0 0  0 0 0 0 0  0 0 0 0 0  0 0 0 .3 0"/>
      <feOffset dx="0" dy="2"/>
      <feGaussianBlur stdDeviation="2"/>
      <feComposite in="SourceGraphic"/>
    </filter>
  </defs>
</svg>
