<svg version="1.1" xmlns="http://www.w3.org/2000/svg" xmlns:xlink="http://www.w3.org/1999/xlink" width="437.973" height="464" viewBox="0 0 437.973 464">
  <g fill="none" fill-rule="nonzero" stroke="none" stroke-width="1" stroke-linecap="butt" stroke-linejoin="miter" stroke-miterlimit="10" stroke-dasharray="" stroke-dashoffset="0" font-family="none" font-weight="none" font-size="none" text-anchor="none" style="mix-blend-mode: normal">
    <rect x="0" y="0" width="437.973" height="464" fill="none"/>
    <path d="M271.22767,163.574c6.9332,9.61214 11.4786,19.46133 13.5937,29.42633c0.05507,-0.00022 0.11017,-0.00033 0.1653,-0.00033c22.09139,0 40,17.90861 40,40c0,22.09139 -17.90861,40 -40,40c-10.99848,0 -20.96019,-4.43896 -28.1913,-11.62306c-3.03926,2.0678 -6.25366,3.89085 -9.6147,5.44506l-2.191,1.015l-0.06,-0.026c-8.236,3.449 -16.915,5.193 -25.8287,5.193c-0.7972,0 -1.5944,-0.013 -2.3958,-0.043c-7.0637,-0.243 -13.9909,-1.582 -20.59,-3.977l-0.0213,0.008l-0.4987,-0.175l-1.6498,-0.665c-12.6694,-5.102 -23.3694,-13.846 -30.9446,-25.283c-7.7415,-11.693 -11.5739,-25.309 -11.0837,-39.377c0.3794,-10.832 3.4104,-21.5234 8.7646,-30.9147l1.1425,-2.0036l2.221,-0.6223c5.188,-1.4622 10.5593,-2.1059 15.9604,-1.9184c0.1663,0.0043 0.2899,0.0086 0.4135,0.0171c1.475,0.0341 2.9628,0.1108 4.4249,0.2302c0.2345,-1.7393 0.5159,-3.4743 0.8441,-5.1624c1.2533,-7.5028 3.6448,-14.7881 7.3067,-22.2398c5.9723,-12.5245 14.8861,-23.7615 25.7694,-32.4792l4.2625,-3.41892l3.364,3.95172l0.068,0.0299l0.154,0.2259l0.788,0.9293l1.454,1.7137c0.912,1.0785 2.067,2.4427 3.414,4.037c2.443,2.8903 7.405,8.7774 13.19,15.7132c13.326,15.9903 22.001,26.7542 25.774,31.989zM221.64167,210.449c-2.8775,-10.917 -8.3554,-19.0679 -16.2759,-24.2303c-2.7538,-1.7947 -5.8445,-3.2526 -9.2079,-4.3567c0.7247,8.6495 3.0139,18.002 6.8207,27.833c3.5552,9.191 9.3827,17.814 17.3288,25.658c3.1803,-7.831 3.6323,-16.199 1.3343,-24.908zM223.08667,252.605c-2.515,3.193 -5.3968,6.19 -8.6025,8.953c0.8739,0.072 1.7436,0.123 2.6132,0.153c5.6271,0.2 11.1903,-0.443 16.5833,-1.91c-3.662,-2.217 -7.213,-4.625 -10.59,-7.196zM232.52467,207.576c3.313,12.546 2.183,24.486 -3.35,35.515c6.863,5.315 13.326,8.969 17.776,11.19c1.03507,-0.59748 2.04984,-1.22756 3.04275,-1.8888c-3.19,-5.74408 -5.00675,-12.35598 -5.00675,-19.3922c0,-18.15504 12.09512,-33.48511 28.667,-38.37186c-1.86114,-8.20346 -5.72117,-16.39091 -11.548,-24.46794c-4.523,-6.2793 -16.246,-20.5217 -25.288,-31.3666c-4.02,-4.8214 -8.441,-10.0904 -13.143,-15.662l-2.016,-2.383c-5.2221,4.7872 -9.7877,10.2182 -13.5987,16.1735l0.0213,0.0128l-0.6437,1.0615c-1.6412,2.7027 -3.0352,5.2306 -4.2715,7.733l-0.0298,0.0596c-0.8014,1.6839 -1.556,3.4274 -2.2466,5.1838c-1.7989,4.5826 -3.1886,9.3528 -4.1222,14.1742c-0.1151,0.6778 -0.2217,1.4025 -0.324,2.1912c-0.1194,0.9208 -0.2217,1.8586 -0.3027,2.8007c5.6697,1.4622 10.8321,3.7003 15.3636,6.6502c10.3291,6.7269 17.4013,17.0858 21.0163,30.7869zM214.48847,245.358c-10.1543,-9.476 -17.5548,-20.104 -22.0095,-31.609c-4.6253,-11.954 -7.2257,-23.3782 -7.7373,-33.9673c-1.5645,-0.2515 -3.1545,-0.4178 -4.7403,-0.4903c-1.0786,-0.0255 -2.2125,-0.0255 -3.3507,0l-0.584,0.0128c-2.2551,0.1151 -4.5102,0.4221 -6.7227,0.9123c-3.811,7.3706 -5.8871,15.3295 -6.177,23.6595c-0.405,11.621 2.7411,22.883 9.0929,32.573c6.2153,9.481 15.014,16.766 25.4454,21.076l0.4519,0.179c0.5627,0.23 1.1339,0.447 1.7052,0.656c3.5211,-2.148 9.5575,-6.424 14.6304,-12.997zM281.14667,254.90048c0,2.12077 1.71923,3.84 3.84,3.84c2.12077,0 3.84,-1.71923 3.84,-3.84l16.41792,-12.19584c0.62377,-0.45119 0.95664,-1.20301 0.8714,-1.96812c-0.08525,-0.76511 -0.57544,-1.42523 -1.28323,-1.72805c-0.70778,-0.30282 -1.52374,-0.20154 -2.13601,0.26513l-16.176,12.01728c-0.9779,-0.42819 -2.09026,-0.42819 -3.06816,0l-16.176,-12.01728c-0.94803,-0.66551 -2.25369,-0.45457 -2.94392,0.47563c-0.69023,0.93019 -0.51371,2.24095 0.398,2.95541l16.416,12.19776zM281.14667,254.90048c0,0 0,0 0,0zM286.90667,254.81216c0,1.06039 -0.85961,1.92 -1.92,1.92c-1.06039,0 -1.92,-0.85961 -1.92,-1.92c0,-1.06039 0.85961,-1.92 1.92,-1.92c1.06039,0 1.92,0.85961 1.92,1.92zM268.22507,219.69152c0.3264,0.3168 0.77184,0.51648 1.25184,0.56064c0.26479,0.01616 0.53031,-0.01638 0.78336,-0.096c0.25152,-0.0768 0.48,-0.2016 0.67584,-0.36288c0.19066,-0.15617 0.3458,-0.35123 0.45504,-0.57216c0.10499,-0.21323 0.15952,-0.44776 0.15936,-0.68544v-4.2432c-0.00536,-0.46234 -0.20795,-0.90037 -0.5568,-1.20384c-0.37203,-0.32651 -0.84902,-0.50845 -1.344,-0.51264c-0.51072,0.00768 -0.9984,0.192 -1.35936,0.51072c-0.35245,0.30265 -0.56147,0.7395 -0.576,1.20384v4.24512c0.00969,0.43827 0.19428,0.85446 0.51264,1.15584zM298.93931,225.45152c0.3264,0.3168 0.76992,0.51648 1.25184,0.56064c0.26479,0.01616 0.53031,-0.01638 0.78336,-0.096c0.2496,-0.0768 0.48,-0.2016 0.67392,-0.36288c0.19066,-0.15617 0.3458,-0.35123 0.45504,-0.57216c0.10505,-0.21321 0.15958,-0.44775 0.15936,-0.68544v-4.2432c-0.00487,-0.46204 -0.20675,-0.90002 -0.55488,-1.20384c-0.37303,-0.32737 -0.85154,-0.50937 -1.34784,-0.51264c-0.51072,0.00768 -0.9984,0.192 -1.35936,0.51072c-0.35293,0.3031 -0.562,0.74075 -0.576,1.20576v4.2432c0.0102,0.43856 0.1955,0.85479 0.51456,1.15584zM269.63051,226.016c1.06039,0 1.92,-0.85961 1.92,-1.92c0,-1.06039 -0.85961,-1.92 -1.92,-1.92c-1.06039,0 -1.92,0.85961 -1.92,1.92c0,1.06039 0.85961,1.92 1.92,1.92zM269.63051,233.696c-1.06039,0 -1.92,0.85961 -1.92,1.92c0,1.06039 0.85961,1.92 1.92,1.92c1.06039,0 1.92,-0.85961 1.92,-1.92c0,-1.06039 -0.85961,-1.92 -1.92,-1.92zM269.63051,231.776c1.06039,0 1.92,-0.85961 1.92,-1.92c0,-1.06039 -0.85961,-1.92 -1.92,-1.92c-1.06039,0 -1.92,0.85961 -1.92,1.92c0,1.06039 0.85961,1.92 1.92,1.92zM300.34283,233.696c-1.06039,0 -1.92,0.85961 -1.92,1.92c0,1.06039 0.85961,1.92 1.92,1.92c1.06039,0 1.92,-0.85961 1.92,-1.92c0,-1.06039 -0.85961,-1.92 -1.92,-1.92zM300.34283,231.776c1.06039,0 1.92,-0.85961 1.92,-1.92c0,-1.06039 -0.85961,-1.92 -1.92,-1.92c-1.06039,0 -1.92,0.85961 -1.92,1.92c0,1.06039 0.85961,1.92 1.92,1.92zM300.34283,212.576c-1.06039,0 -1.92,0.85961 -1.92,1.92c0,1.06039 0.85961,1.92 1.92,1.92c1.06039,0 1.92,-0.85961 1.92,-1.92c0,-1.06039 -0.85961,-1.92 -1.92,-1.92zM293.29643,231.67808c0.24609,-0.07695 0.47494,-0.20083 0.67392,-0.3648c0.19066,-0.15617 0.3458,-0.35123 0.45504,-0.57216c0.10594,-0.21366 0.16113,-0.44888 0.16128,-0.68736v-4.2432c0,-0.44928 -0.2016,-0.88128 -0.5568,-1.20192c-0.3552,-0.32064 -0.83904,-0.50496 -1.34592,-0.51264c-0.51264,0.00768 -1.00032,0.19008 -1.3632,0.51072c-0.35293,0.3031 -0.562,0.74075 -0.576,1.20576v4.2432c0.01041,0.43851 0.19567,0.85466 0.51456,1.15584c0.34202,0.324 0.78425,0.52175 1.25376,0.56064c0.26496,0.01536 0.53184,-0.01728 0.78336,-0.09408zM283.58123,242.73152c0.3264,0.3168 0.77184,0.51648 1.25184,0.56064c0.26688,0.01536 0.53376,-0.01536 0.78336,-0.096c0.25152,-0.0768 0.48,-0.2016 0.67584,-0.36288c0.19062,-0.15621 0.34575,-0.35127 0.45504,-0.57216c0.10499,-0.21323 0.15952,-0.44776 0.15936,-0.68544v-4.2432c-0.00487,-0.46204 -0.20675,-0.90002 -0.55488,-1.20384c-0.37312,-0.32722 -0.85157,-0.5092 -1.34784,-0.51264c-0.51072,0.00768 -0.9984,0.192 -1.35936,0.51072c-0.35245,0.30265 -0.56147,0.7395 -0.576,1.20384v4.24512c0.00969,0.43827 0.19428,0.85446 0.51264,1.15584zM292.66667,243.296c1.06039,0 1.92,-0.85961 1.92,-1.92c0,-1.06039 -0.85961,-1.92 -1.92,-1.92c-1.06039,0 -1.92,0.85961 -1.92,1.92c0,1.06039 0.85961,1.92 1.92,1.92zM284.98667,245.216c-1.06039,0 -1.92,0.85961 -1.92,1.92c0,1.06039 0.85961,1.92 1.92,1.92c1.06039,0 1.92,-0.85961 1.92,-1.92c0,-1.06039 -0.85961,-1.92 -1.92,-1.92zM292.66667,237.536c1.06039,0 1.92,-0.85961 1.92,-1.92c0,-1.06039 -0.85961,-1.92 -1.92,-1.92c-1.06039,0 -1.92,0.85961 -1.92,1.92c0,1.06039 0.85961,1.92 1.92,1.92zM284.98667,229.856c-1.06039,0 -1.92,0.85961 -1.92,1.92c0,1.06039 0.85961,1.92 1.92,1.92c1.06039,0 1.92,-0.85961 1.92,-1.92c0,-1.06039 -0.85961,-1.92 -1.92,-1.92zM284.98667,227.936c1.06039,0 1.92,-0.85961 1.92,-1.92c0,-1.06039 -0.85961,-1.92 -1.92,-1.92c-1.06039,0 -1.92,0.85961 -1.92,1.92c0,1.06039 0.85961,1.92 1.92,1.92zM275.90507,236.97152c0.32448,0.3168 0.76992,0.51648 1.25184,0.56064c0.26496,0.01536 0.53184,-0.01536 0.78144,-0.096c0.25152,-0.0768 0.48,-0.2016 0.67584,-0.36288c0.19066,-0.15617 0.3458,-0.35123 0.45504,-0.57216c0.10499,-0.21323 0.15952,-0.44776 0.15936,-0.68544v-4.2432c-0.00487,-0.46204 -0.20675,-0.90002 -0.55488,-1.20384c-0.37303,-0.32737 -0.85154,-0.50937 -1.34784,-0.51264c-0.51072,0.00768 -0.9984,0.192 -1.35936,0.51072c-0.35245,0.30265 -0.56147,0.7395 -0.576,1.20384v4.24512c0.00969,0.43827 0.19428,0.85446 0.51264,1.15584zM277.30859,243.296c1.06039,0 1.92,-0.85961 1.92,-1.92c0,-1.06039 -0.85961,-1.92 -1.92,-1.92c-1.06039,0 -1.92,0.85961 -1.92,1.92c0,1.06039 0.85961,1.92 1.92,1.92zM277.30859,224.096c-1.06039,0 -1.92,0.85961 -1.92,1.92c0,1.06039 0.85961,1.92 1.92,1.92c1.06039,0 1.92,-0.85961 1.92,-1.92c0,-1.06039 -0.85961,-1.92 -1.92,-1.92zM277.30859,222.176c1.06039,0 1.92,-0.85961 1.92,-1.92c0,-1.06039 -0.85961,-1.92 -1.92,-1.92c-1.06039,0 -1.92,0.85961 -1.92,1.92c0,1.06039 0.85961,1.92 1.92,1.92zM292.66667,218.336c-1.06039,0 -1.92,0.85961 -1.92,1.92c0,1.06039 0.85961,1.92 1.92,1.92c1.06039,0 1.92,-0.85961 1.92,-1.92c0,-1.06039 -0.85961,-1.92 -1.92,-1.92z" fill="#ffffff"/>
    <g fill="#ffffff">
      <path d="M133.94667,348h-5.12083l-13.4375,-38.1875h5.4375l10.45417,30.9875h0.2125l10.87917,-30.9875h5.44167z"/>
      <path d="M159.54667,348.85417v0c-3.94722,0 -7.15556,-1.31528 -9.625,-3.94583c-2.47222,-2.63333 -3.70833,-5.95833 -3.70833,-9.975v0c0,-3.80556 1.2,-7.07639 3.6,-9.8125c2.4,-2.73889 5.46667,-4.10833 9.2,-4.10833v0c3.875,0 6.97778,1.2625 9.30833,3.7875c2.32778,2.525 3.49167,5.90278 3.49167,10.13333v0l-0.05417,0.90833h-20.6375c0.14167,2.63056 1.02083,4.70972 2.6375,6.2375c1.61944,1.53056 3.5125,2.29583 5.67917,2.29583v0c3.52222,0 5.90556,-1.49444 7.15,-4.48333v0l4.37083,1.81667c-0.85278,2.025 -2.25694,3.72222 -4.2125,5.09167c-1.95556,1.36944 -4.35556,2.05417 -7.2,2.05417zM151.43833,331.7875h15.15c-0.10833,-1.49444 -0.79306,-2.91667 -2.05417,-4.26667c-1.26389,-1.35278 -3.14028,-2.02917 -5.62917,-2.02917v0c-1.81111,0 -3.38333,0.56944 -4.71667,1.70833c-1.33333,1.13889 -2.25,2.66806 -2.75,4.5875z"/>
      <path d="M207.8675,348.425v0c-2.73889,0 -4.82778,-0.72778 -6.26667,-2.18333c-1.44167,-1.45833 -2.1625,-3.52083 -2.1625,-6.1875v0v-13.70833h-4.58333v-4.47917h4.58333v-8h4.90833v8h6.4v4.47917h-6.4v13.33333c0,2.84444 1.17361,4.26667 3.52083,4.26667v0c0.88889,0 1.63472,-0.14167 2.2375,-0.425v0l1.70833,4.2125c-1.06667,0.46111 -2.38194,0.69167 -3.94583,0.69167zM176.2925,321.86667h4.69583v4.26667h0.2125c0.56944,-1.52778 1.62639,-2.72778 3.17083,-3.6c1.54722,-0.87222 3.24583,-1.30833 5.09583,-1.30833v0c0.53333,0 1.11944,0.03611 1.75833,0.10833v0v4.8c-0.675,-0.07222 -1.33194,-0.10833 -1.97083,-0.10833v0c-2.34722,0 -4.27639,0.68472 -5.7875,2.05417c-1.51111,1.36944 -2.26667,3.24583 -2.26667,5.62917v0v14.29167h-4.90833z"/>
      <path d="M227.01333,348.85417v0c-3.94722,0 -7.15556,-1.31528 -9.625,-3.94583c-2.47222,-2.63333 -3.70833,-5.95833 -3.70833,-9.975v0c0,-3.80556 1.2,-7.07639 3.6,-9.8125c2.4,-2.73889 5.46667,-4.10833 9.2,-4.10833v0c3.875,0 6.97778,1.2625 9.30833,3.7875c2.32778,2.525 3.49167,5.90278 3.49167,10.13333v0l-0.05417,0.90833h-20.6375c0.14167,2.63056 1.02083,4.70972 2.6375,6.2375c1.61944,1.53056 3.5125,2.29583 5.67917,2.29583v0c3.52222,0 5.90556,-1.49444 7.15,-4.48333v0l4.37083,1.81667c-0.85278,2.025 -2.25694,3.72222 -4.2125,5.09167c-1.95556,1.36944 -4.35556,2.05417 -7.2,2.05417zM218.905,331.7875h15.15c-0.10833,-1.49444 -0.79306,-2.91667 -2.05417,-4.26667c-1.26389,-1.35278 -3.14028,-2.02917 -5.62917,-2.02917v0c-1.81111,0 -3.38333,0.56944 -4.71667,1.70833c-1.33333,1.13889 -2.25,2.66806 -2.75,4.5875z"/>
      <path d="M255.655,334.72083l9.33333,13.27917h-5.7625l-6.45417,-9.65417l-6.34583,9.65417h-5.75833l9.225,-13.27917l-9.0125,-12.85417h5.54583l6.45417,9.225l6.13333,-9.225h5.75833z"/>
      <path d=""/>
      <path d="M281.0925,348h-5.4375l14.4,-38.1875h5.54583l14.4,38.1875h-5.44167l-3.67917,-10.34583h-16.05417zM292.72167,315.84167l-6.24167,17.225h12.69167l-6.2375,-17.225z"/>
      <path d="M319.38833,348h-4.90833v-38.1875h4.90833z"/>
    </g>
    <g fill="#ffffff">
      <path d="M104.32083,367.30833c-0.675,0.675 -1.49306,1.0125 -2.45417,1.0125c-0.96111,0 -1.77917,-0.3375 -2.45417,-1.0125c-0.675,-0.67778 -1.0125,-1.49583 -1.0125,-2.45417c0,-0.96111 0.3375,-1.77917 1.0125,-2.45417c0.675,-0.675 1.49306,-1.0125 2.45417,-1.0125c0.96111,0 1.77917,0.3375 2.45417,1.0125c0.675,0.675 1.0125,1.49306 1.0125,2.45417c0,0.95833 -0.3375,1.77639 -1.0125,2.45417zM104.32083,373.86667v26.13333h-4.90833v-26.13333z"/>
      <path d="M110.1875,373.86667h4.69167v3.625h0.2125c0.71111,-1.24444 1.83194,-2.30139 3.3625,-3.17083c1.52778,-0.87222 3.1625,-1.30833 4.90417,-1.30833v0c3.23611,0 5.70833,0.99583 7.41667,2.9875c1.70556,1.99167 2.55833,4.65833 2.55833,8v0v16h-4.90833v-15.25417c0,-4.83611 -2.15,-7.25417 -6.45,-7.25417v0c-2.02778,0 -3.68194,0.80972 -4.9625,2.42917c-1.28056,1.61667 -1.92083,3.49167 -1.92083,5.625v0v14.45417h-4.90417z"/>
      <path d=""/>
      <path d="M156.5875,383.625v16.375h-4.90833v-38.1875h22.29583v4.69583h-17.3875v12.53333h15.67917v4.58333z"/>
      <path d="M183.2,367.30833c-0.675,0.675 -1.49306,1.0125 -2.45417,1.0125c-0.95833,0 -1.77639,-0.3375 -2.45417,-1.0125c-0.675,-0.67778 -1.0125,-1.49583 -1.0125,-2.45417c0,-0.96111 0.3375,-1.77917 1.0125,-2.45417c0.67778,-0.675 1.49583,-1.0125 2.45417,-1.0125c0.96111,0 1.77917,0.3375 2.45417,1.0125c0.675,0.675 1.0125,1.49306 1.0125,2.45417c0,0.95833 -0.3375,1.77639 -1.0125,2.45417zM183.2,373.86667v26.13333h-4.90833v-26.13333z"/>
      <path d="M193.975,385.70833v14.29167h-4.90833v-26.13333h4.69167v4.26667h0.21667c0.49722,-1.42222 1.51944,-2.59583 3.06667,-3.52083c1.54444,-0.925 3.04583,-1.3875 4.50417,-1.3875c1.45833,0 2.68472,0.21389 3.67917,0.64167v0l-1.86667,4.5875c-0.63889,-0.25 -1.50972,-0.375 -2.6125,-0.375v0c-1.77778,0 -3.35139,0.70278 -4.72083,2.10833c-1.36667,1.40278 -2.05,3.24306 -2.05,5.52083z"/>
      <path d="M218.66667,400.85417v0c-3.94722,0 -7.15556,-1.31528 -9.625,-3.94583c-2.47222,-2.63333 -3.70833,-5.95833 -3.70833,-9.975v0c0,-3.80556 1.2,-7.07639 3.6,-9.8125c2.4,-2.73889 5.46667,-4.10833 9.2,-4.10833v0c3.875,0 6.97778,1.2625 9.30833,3.7875c2.32778,2.525 3.49167,5.90278 3.49167,10.13333v0l-0.05417,0.90833h-20.6375c0.14167,2.63056 1.02083,4.70972 2.6375,6.2375c1.61944,1.53056 3.5125,2.29583 5.67917,2.29583v0c3.52222,0 5.90556,-1.49444 7.15,-4.48333v0l4.37083,1.81667c-0.85278,2.025 -2.25694,3.72222 -4.2125,5.09167c-1.95556,1.36944 -4.35556,2.05417 -7.2,2.05417zM210.55833,383.7875h15.15c-0.10833,-1.49444 -0.79306,-2.91667 -2.05417,-4.26667c-1.26389,-1.35278 -3.14028,-2.02917 -5.62917,-2.02917v0c-1.81111,0 -3.38333,0.56944 -4.71667,1.70833c-1.33333,1.13889 -2.25,2.66806 -2.75,4.5875z"/>
      <path d="M248.69167,400.85417v0c-1.98889,0 -3.775,-0.42639 -5.35833,-1.27917c-1.58333,-0.85556 -2.76528,-1.92222 -3.54583,-3.2v0h-0.2125v3.625h-4.69583v-38.1875h4.90833v12.05417l-0.2125,3.625h0.2125c0.78056,-1.27778 1.9625,-2.34444 3.54583,-3.2c1.58333,-0.85278 3.36944,-1.27917 5.35833,-1.27917v0c3.37778,0 6.29444,1.33333 8.75,4c2.45278,2.66667 3.67917,5.97361 3.67917,9.92083c0,3.94722 -1.22639,7.25417 -3.67917,9.92083c-2.45556,2.66667 -5.37222,4 -8.75,4zM247.89167,396.375v0c2.27778,0 4.23333,-0.8625 5.86667,-2.5875c1.63611,-1.725 2.45417,-4.00972 2.45417,-6.85417c0,-2.84444 -0.81806,-5.12917 -2.45417,-6.85417c-1.63333,-1.725 -3.58889,-2.5875 -5.86667,-2.5875v0c-2.31111,0 -4.275,0.85417 -5.89167,2.5625c-1.61667,1.70556 -2.425,3.99861 -2.425,6.87917c0,2.88056 0.80833,5.17361 2.425,6.87917c1.61667,1.70833 3.58056,2.5625 5.89167,2.5625z"/>
      <path d="M273.6,400.85417v0c-2.77222,0 -5.09167,-0.8 -6.95833,-2.4c-1.86667,-1.6 -2.8,-3.71528 -2.8,-6.34583v0c0,-2.84444 1.10139,-5.07639 3.30417,-6.69583c2.20556,-1.61667 4.92639,-2.425 8.1625,-2.425v0c2.87778,0 5.24167,0.53333 7.09167,1.6v0v-0.74583c0,-1.92222 -0.65833,-3.46111 -1.975,-4.61667c-1.31389,-1.15556 -2.93056,-1.73333 -4.85,-1.73333v0c-1.42222,0 -2.71111,0.33889 -3.86667,1.01667c-1.15556,0.675 -1.94722,1.59861 -2.375,2.77083v0l-4.47917,-1.92083c0.60278,-1.56389 1.79306,-3.0125 3.57083,-4.34583c1.77778,-1.33333 4.125,-2 7.04167,-2v0c3.34167,0 6.11528,0.97778 8.32083,2.93333c2.20278,1.95556 3.30417,4.71111 3.30417,8.26667v0v15.7875h-4.69167v-3.625h-0.2125c-1.95556,2.98611 -4.81806,4.47917 -8.5875,4.47917zM274.4,396.375v0c2.02778,0 3.86806,-0.75556 5.52083,-2.26667c1.65278,-1.51111 2.47917,-3.29861 2.47917,-5.3625v0c-1.38611,-1.13611 -3.46667,-1.70417 -6.24167,-1.70417v0c-2.38056,0 -4.175,0.51528 -5.38333,1.54583c-1.21111,1.03056 -1.81667,2.23889 -1.81667,3.625v0c0,1.28056 0.55139,2.29444 1.65417,3.04167c1.10278,0.74722 2.36528,1.12083 3.7875,1.12083z"/>
      <path d="M301.54583,400.85417v0c-2.91389,0 -5.32222,-0.71111 -7.225,-2.13333c-1.90278,-1.42222 -3.29861,-3.2 -4.1875,-5.33333v0l4.375,-1.8125c1.38611,3.26944 3.75,4.90417 7.09167,4.90417v0c1.52778,0 2.78056,-0.3375 3.75833,-1.0125c0.97778,-0.675 1.46667,-1.56389 1.46667,-2.66667v0c0,-1.70556 -1.19028,-2.86111 -3.57083,-3.46667v0l-5.27917,-1.27917c-1.67222,-0.42778 -3.25556,-1.2375 -4.75,-2.42917c-1.49167,-1.18889 -2.2375,-2.79722 -2.2375,-4.825v0c0,-2.31111 1.02222,-4.18611 3.06667,-5.625c2.04444,-1.44167 4.47083,-2.1625 7.27917,-2.1625v0c2.31111,0 4.37361,0.525 6.1875,1.575c1.81389,1.04722 3.11111,2.54861 3.89167,4.50417v0l-4.26667,1.7625c-0.95833,-2.31111 -2.94861,-3.46667 -5.97083,-3.46667v0c-1.45833,0 -2.68611,0.30139 -3.68333,0.90417c-0.99444,0.60556 -1.49167,1.42361 -1.49167,2.45417v0c0,1.49444 1.15556,2.50833 3.46667,3.04167v0l5.175,1.225c2.45278,0.56944 4.26528,1.54722 5.4375,2.93333c1.175,1.38611 1.7625,2.95139 1.7625,4.69583v0c0,2.34444 -0.96111,4.3 -2.88333,5.86667c-1.91944,1.56389 -4.39028,2.34583 -7.4125,2.34583z"/>
      <path d="M328.2125,400.85417v0c-3.94722,0 -7.15556,-1.31528 -9.625,-3.94583c-2.47222,-2.63333 -3.70833,-5.95833 -3.70833,-9.975v0c0,-3.80556 1.2,-7.07639 3.6,-9.8125c2.4,-2.73889 5.46667,-4.10833 9.2,-4.10833v0c3.875,0 6.97778,1.2625 9.30833,3.7875c2.32778,2.525 3.49167,5.90278 3.49167,10.13333v0l-0.05417,0.90833h-20.6375c0.14167,2.63056 1.02083,4.70972 2.6375,6.2375c1.61944,1.53056 3.51389,2.29583 5.68333,2.29583v0c3.51944,0 5.90139,-1.49444 7.14583,-4.48333v0l4.37083,1.81667c-0.85278,2.025 -2.25694,3.72222 -4.2125,5.09167c-1.95556,1.36944 -4.35556,2.05417 -7.2,2.05417zM320.10833,383.7875h15.14583c-0.10833,-1.49444 -0.79306,-2.91667 -2.05417,-4.26667c-1.26111,-1.35278 -3.13611,-2.02917 -5.625,-2.02917v0c-1.81389,0 -3.3875,0.56944 -4.72083,1.70833c-1.33333,1.13889 -2.24861,2.66806 -2.74583,4.5875z"/>
    </g>
  </g>
</svg>
